<svg xmlns="http://www.w3.org/2000/svg" width="1497.796" height="1446.915" viewBox="0 0 1497.796 1446.915">
    <g data-name="타원 5168" transform="rotate(-37 1337.743 251.481)" style="stroke:#707070;stroke-width:2px;stroke-dasharray:2 4;fill:none">
        <ellipse cx="395.3" cy="308.044" rx="395.3" ry="308.044" style="stroke:none"/>
        <ellipse cx="395.3" cy="308.044" rx="394.3" ry="307.044" style="fill:none"/>
    </g>
    <g data-name="타원 5169" transform="matrix(.799 -.602 .602 .799 0 710.503)" style="stroke:#707070;stroke-width:2px;stroke-dasharray:2 4;fill:none">
        <ellipse cx="590.3" cy="461.044" rx="590.3" ry="461.044" style="stroke:none"/>
        <ellipse cx="590.3" cy="461.044" rx="589.3" ry="460.044" style="fill:none"/>
    </g>
    <g data-name="타원 5170" transform="rotate(-37 1215.243 292.473)" style="stroke:#707070;stroke-width:2px;stroke-dasharray:2 4;fill:none">
        <ellipse cx="500.8" cy="390.044" rx="500.8" ry="390.044" style="stroke:none"/>
        <ellipse cx="500.8" cy="390.044" rx="499.8" ry="389.044" style="fill:none"/>
    </g>
    <path data-name="다각형 26" d="m7 0 7 11H0z" transform="rotate(132 321.497 492.806)" style="fill:#f37331"/>
    <path data-name="다각형 27" d="m7 0 7 11H0z" transform="scale(-1) rotate(-57 -910.438 741.147)" style="fill:#f37331"/>
    <path data-name="다각형 28" d="m7 0 7 11H0z" transform="rotate(131 516.39 422.213)" style="fill:#f37331"/>
</svg>
