<svg xmlns="http://www.w3.org/2000/svg" width="276" height="290" viewBox="0 0 276 290">
    <text transform="translate(188 18)" style="font-size:20px;font-family:YDIYGO330;fill:#fff"><tspan x="0" y="17">CH</tspan></text>
    <text data-name="4" transform="translate(219 28)" style="font-family:YDIYGO360;font-size:12px;fill:#fff"><tspan x="0" y="11">4</tspan></text>
    <text transform="translate(30 33)" style="letter-spacing:.24em;font-family:YDIYGO360;font-size:12px;fill:#fff"><tspan x="0" y="0">METHANE</tspan></text>
    <g data-name="그룹 630013">
        <path data-name="합치기 38" d="M-9569-18447a17.009 17.009 0 0 1 13-16.529v-17.943a17.027 17.027 0 0 1-12.525-12.527h-17.95a17.005 17.005 0 0 1-16.524 13 17 17 0 0 1-17-17 17 17 0 0 1 17-17 17 17 0 0 1 16.525 13h17.948a17.019 17.019 0 0 1 12.526-12.527v-17.947a17 17 0 0 1-13-16.525 17 17 0 0 1 17-17 17 17 0 0 1 17 17 17.005 17.005 0 0 1-13 16.523v17.951a17.028 17.028 0 0 1 12.526 12.525h17.944a17.007 17.007 0 0 1 16.528-13 17 17 0 0 1 17 17 17 17 0 0 1-17 17 17.009 17.009 0 0 1-16.527-13h-17.946a17.032 17.032 0 0 1-12.525 12.525v17.947a17.01 17.01 0 0 1 13 16.527 17 17 0 0 1-17 17 17 17 0 0 1-17-17zm5.685-11.318A15.916 15.916 0 0 0-9568-18447a15.906 15.906 0 0 0 4.683 11.313A15.909 15.909 0 0 0-9552-18431a15.892 15.892 0 0 0 11.313-4.684A15.891 15.891 0 0 0-9536-18447a15.9 15.9 0 0 0-4.687-11.318A15.89 15.89 0 0 0-9552-18463a15.907 15.907 0 0 0-11.315 4.684zM-9549-18464v-17h-6v17h6zm36.688-45.312A15.887 15.887 0 0 0-9517-18498a15.89 15.89 0 0 0 4.688 11.313A15.886 15.886 0 0 0-9501-18482a15.886 15.886 0 0 0 11.313-4.687A15.89 15.89 0 0 0-9485-18498a15.887 15.887 0 0 0-4.687-11.312A15.878 15.878 0 0 0-9501-18514a15.878 15.878 0 0 0-11.312 4.688zm-51 0A15.906 15.906 0 0 0-9568-18498a15.91 15.91 0 0 0 4.683 11.313A15.9 15.9 0 0 0-9552-18482a15.88 15.88 0 0 0 11.313-4.687A15.894 15.894 0 0 0-9536-18498a15.891 15.891 0 0 0-4.687-11.312A15.871 15.871 0 0 0-9552-18514a15.888 15.888 0 0 0-11.315 4.688zm-51 0A15.887 15.887 0 0 0-9619-18498a15.89 15.89 0 0 0 4.688 11.313A15.884 15.884 0 0 0-9603-18482a15.886 15.886 0 0 0 11.313-4.687A15.89 15.89 0 0 0-9587-18498a15.887 15.887 0 0 0-4.687-11.312A15.878 15.878 0 0 0-9603-18514a15.876 15.876 0 0 0-11.312 4.688zM-9535-18495h17v-6h-17v6zm-51 0h17v-6h-17v6zm37-20v-17h-6v17h6zm-14.314-45.318A15.916 15.916 0 0 0-9568-18549a15.906 15.906 0 0 0 4.683 11.313A15.909 15.909 0 0 0-9552-18533a15.892 15.892 0 0 0 11.313-4.684A15.891 15.891 0 0 0-9536-18549a15.9 15.9 0 0 0-4.687-11.318A15.89 15.89 0 0 0-9552-18565a15.907 15.907 0 0 0-11.315 4.684z" transform="translate(9690 18671)" style="fill:rgba(243,115,49,.53)"/>
    </g>
    <g data-name="그룹 630020">
        <text transform="translate(133 164)" style="font-size:15px;font-family:YDIYGO360;fill:#fff"><tspan x="0" y="13">C</tspan></text>
        <text transform="translate(82 164)" style="font-size:15px;font-family:YDIYGO360;fill:#fff"><tspan x="0" y="13">H</tspan></text>
        <text data-name="H" transform="translate(184 164)" style="font-size:15px;font-family:YDIYGO360;fill:#fff"><tspan x="0" y="13">H</tspan></text>
        <text data-name="H" transform="translate(133 113)" style="font-size:15px;font-family:YDIYGO360;fill:#fff"><tspan x="0" y="13">H</tspan></text>
        <text data-name="H" transform="translate(133 215)" style="font-size:15px;font-family:YDIYGO360;fill:#fff"><tspan x="0" y="13">H</tspan></text>
    </g>
    <g data-name="사각형 461960" style="opacity:.3;stroke:#fff;fill:none">
        <path style="stroke:none" d="M0 0h276v290H0z"/>
        <path style="fill:none" d="M.5.5h275v289H.5z"/>
    </g>
    <path data-name="선 341" d="M.5 56h-1V0h1z" transform="translate(137.5)" style="opacity:.3;fill:#fff"/>
    <path data-name="선 345" transform="translate(0 56)" style="opacity:.3;stroke:#fff;fill:none" d="M276 0H0"/>
</svg>
