<svg xmlns="http://www.w3.org/2000/svg" width="32" height="32" viewBox="0 0 32 32">
    <g data-name="타원 4677" style="stroke:#fff;stroke-width:2px;fill:none">
        <circle cx="16" cy="16" r="16" style="stroke:none"/>
        <circle cx="16" cy="16" r="15" style="fill:none"/>
    </g>
    <g data-name="그룹 630157">
        <path data-name="패스 1506961" d="M1625.443 655.863H1624v-4.328h1.443z" transform="translate(-1608.722 -641.394)" style="fill:#fff"/>
        <path data-name="패스 1506962" d="m1623.031 653.177-1.02-1.02 2.164-2.164a.721.721 0 0 1 .51-.211.721.721 0 0 1 .51.211l2.164 2.164-1.02 1.02-1.654-1.654z" transform="translate(-1608.685 -640.905)" style="fill:#fff"/>
        <path data-name="패스 1506961" d="M1625.443 655.863H1624v-4.328h1.443z" transform="translate(-1608.722 -634.004)" style="fill:#fff"/>
        <path data-name="패스 1506962" d="M1624.685 653.47a.721.721 0 0 1-.51-.211l-2.164-2.164 1.02-1.02 1.654 1.654 1.654-1.654 1.02 1.02-2.164 2.164a.721.721 0 0 1-.51.211z" transform="translate(-1608.685 -630.346)" style="fill:#fff"/>
    </g>
</svg>
