<svg xmlns="http://www.w3.org/2000/svg" width="56" height="56" viewBox="0 0 56 56">
    <g data-name="타원 4677" style="stroke:#fff;stroke-width:2px;fill:none">
        <circle cx="28" cy="28" r="28" style="stroke:none"/>
        <circle cx="28" cy="28" r="27" style="fill:none"/>
    </g>
    <path data-name="패스 1506941" d="M13258.283-6654.749c-3.277-.431-5.582-2.457-5.371-5.766s1.783-3.924 2.494-6.016-.205-4.207 1.225-2.857a13.487 13.487 0 0 1 2.076 3.573c.506 1.344.547 2.523.951 2.658s.785-.7.785-1.976-.318-1.657-.236-1.881 1.238.311 2.357 1.725a6.554 6.554 0 0 1 1.859 5.329 5.439 5.439 0 0 1-6.14 5.211z" transform="translate(-13230.661 6690.256)" style="fill:#fff"/>
</svg>
