<svg xmlns="http://www.w3.org/2000/svg" width="32" height="32" viewBox="0 0 32 32">
    <g data-name="타원 4677" style="stroke:#fff;stroke-width:2px;fill:none">
        <circle cx="16" cy="16" r="16" style="stroke:none"/>
        <circle cx="16" cy="16" r="15" style="fill:none"/>
    </g>
    <path data-name="패스 1506941" d="M13256.761-6659.005c-2.351-.31-4-1.763-3.853-4.137s1.279-2.815 1.789-4.315-.147-3.018.879-2.05a9.69 9.69 0 0 1 1.489 2.563c.362.964.393 1.81.683 1.907s.563-.5.563-1.418-.229-1.189-.169-1.349.888.223 1.691 1.237a4.7 4.7 0 0 1 1.333 3.823 3.9 3.9 0 0 1-4.405 3.739z" transform="translate(-13241.032 6680.391)" style="fill:#fff"/>
</svg>
