<svg xmlns="http://www.w3.org/2000/svg" width="32" height="32" viewBox="0 0 32 32">
    <g data-name="타원 4677" style="stroke:#fff;stroke-width:2px;fill:none">
        <circle cx="16" cy="16" r="16" style="stroke:none"/>
        <circle cx="16" cy="16" r="15" style="fill:none"/>
    </g>
    <path data-name="패스 1506967" d="M4.1-7.766 2.145-3.072H.78l1.98-4.546H.336v-1.138H4.1zm4.548.166H6.215v1.076a1.133 1.133 0 0 1 .437-.281 1.664 1.664 0 0 1 .608-.109 1.676 1.676 0 0 1 .971.265 1.56 1.56 0 0 1 .565.686 2.3 2.3 0 0 1 .179.912 2 2 0 0 1-.515 1.446 1.92 1.92 0 0 1-1.45.534 2.544 2.544 0 0 1-1.084-.214 1.66 1.66 0 0 1-.71-.6 1.728 1.728 0 0 1-.273-.881h1.3a.7.7 0 0 0 .226.4.712.712 0 0 0 .491.16.644.644 0 0 0 .546-.234 1 1 0 0 0 .179-.624.832.832 0 0 0-.185-.581.706.706 0 0 0-.546-.2.708.708 0 0 0-.437.129.6.6 0 0 0-.226.339H5.006v-3.395h3.642zm3.618 3.4v1.131h-.678a1.66 1.66 0 0 1-1.131-.355 1.466 1.466 0 0 1-.405-1.158v-1.734h-.53v-1.107h.53v-1.06h1.333v1.06h.873v1.107h-.873v1.747a.365.365 0 0 0 .094.281.457.457 0 0 0 .312.086z" transform="translate(9.699 21.922)" style="fill:#fff"/>
</svg>
