<svg xmlns="http://www.w3.org/2000/svg" width="32" height="32" viewBox="0 0 32 32">
    <g data-name="타원 4677" style="stroke:#fff;stroke-width:2px;fill:none">
        <circle cx="16" cy="16" r="16" style="stroke:none"/>
        <circle cx="16" cy="16" r="15" style="fill:none"/>
    </g>
    <g data-name="그룹 630158">
        <path data-name="패스 1507672" d="M9674.564 12519.434a6.15 6.15 0 0 1-.279-2.1 4.7 4.7 0 0 1 2-3.762 4.816 4.816 0 0 1 4.143-.754 5.794 5.794 0 0 1 1.857.859l-.833 1.105.417-.553-.415.555a4.465 4.465 0 0 0-1.423-.641 3.42 3.42 0 0 0-2.941.553 3.31 3.31 0 0 0-1.415 2.652 4.839 4.839 0 0 0 .2 1.623z" transform="translate(-9663.551 -12501.813)" style="fill:#fff"/>
        <path data-name="패스 1507674" d="M.978 3.008 0 2.03 1.827.2a.692.692 0 0 1 .978 0l1.828 1.83-.979.978L2.317 1.67z" transform="rotate(108 6.461 12.72)" style="fill:#fff"/>
        <path data-name="패스 1507673" d="M9677.35 12519.647a5.482 5.482 0 0 1-1.5-.219 6.579 6.579 0 0 1-1.937-.92l.824-1.112a5.278 5.278 0 0 0 1.533.713 3.371 3.371 0 0 0 3-.468 3.32 3.32 0 0 0 1.4-2.7 5.133 5.133 0 0 0-.194-1.619l1.313-.439a6.443 6.443 0 0 1 .265 2.117 4.7 4.7 0 0 1-1.975 3.771 4.6 4.6 0 0 1-2.729.876z" transform="translate(-9660.781 -12498.257)" style="fill:#fff"/>
        <path data-name="패스 1507675" d="M.978 3.008 0 2.03 1.827.2a.692.692 0 0 1 .978 0l1.828 1.83-.979.978L2.317 1.67z" transform="rotate(-74.99 20.034 3.403)" style="fill:#fff"/>
    </g>
</svg>
