<svg data-name="ico_pyro starter_32px" xmlns="http://www.w3.org/2000/svg" width="32" height="32" viewBox="0 0 32 32">
    <g data-name="그룹 629488">
        <g data-name="타원 4677" style="stroke:#fff;stroke-width:2px;fill:none">
            <circle cx="16" cy="16" r="16" style="stroke:none"/>
            <circle cx="16" cy="16" r="15" style="fill:none"/>
        </g>
    </g>
    <path data-name="빼기 47" d="M-11510.791 8264h-1.6a.5.5 0 0 1-.5-.5v-1.358a4.162 4.162 0 0 1-1.462-.894l-1.09.659a.5.5 0 0 1-.26.072.511.511 0 0 1-.448-.271l-.78-1.416a.562.562 0 0 1 .19-.746l1.09-.662a4.735 4.735 0 0 1-.084-.884 4.738 4.738 0 0 1 .084-.885l-1.09-.662a.557.557 0 0 1-.19-.745l.78-1.417a.513.513 0 0 1 .447-.272.508.508 0 0 1 .261.073l1.09.659a4.092 4.092 0 0 1 1.462-.894v-1.357a.5.5 0 0 1 .5-.5h1.6a.5.5 0 0 1 .5.5v1.35a4.065 4.065 0 0 1 1.48.894l1.072-.65a.508.508 0 0 1 .261-.073.52.52 0 0 1 .45.272l.777 1.417a.559.559 0 0 1-.187.745l-1.069.647a4.673 4.673 0 0 1 .089.9 4.663 4.663 0 0 1-.089.9l1.069.647a.562.562 0 0 1 .188.746l-.777 1.416a.516.516 0 0 1-.451.271.489.489 0 0 1-.26-.072l-1.072-.65a4.136 4.136 0 0 1-1.48.894v1.35a.5.5 0 0 1-.501.496zm-.786-8.183a2.135 2.135 0 0 0-2.078 2.183 2.134 2.134 0 0 0 2.078 2.182 2.135 2.135 0 0 0 2.081-2.182 2.136 2.136 0 0 0-2.081-2.181z" transform="translate(11527.59 -8242)" style="fill:#fff"/>
</svg>
