<svg xmlns="http://www.w3.org/2000/svg" width="40" height="40" viewBox="0 0 40 40">
    <g data-name="ico_think_40px">
        <path data-name="합치기 115" d="m-13013.273 289.557-13.333-6.144v-8.068h.241l-4.368-1.913 4.383-7 .1-.159.11.052 6.335-3.225a8.378 8.378 0 0 1-1.419-4.679 8.421 8.421 0 0 1 8.424-8.421 8.418 8.418 0 0 1 8.418 8.418 8.385 8.385 0 0 1-1.376 4.616l7.1 3.415-.053.108 4.553 6.553-4.238 2.111v8.347l-14.87 6.423zm.938-.99 12.993-5.615v-7.262l-2.7 1.342-.418-.84 6.9-3.437-3.552-5.108-12.986 5.494 3.747 5.484 2.9-1.092.331.88-3.588 1.351-3.63-5.311zm-13.333-5.752 12.395 5.712V274.7l-3.431 4.873-8.964-3.926zm-3.692-9.808 12.332 5.4 3.522-5.007-12.391-5.926zm16.251-.453 2.193-.929v-2.608h-4.35v2.505zm3.132-1.326 10.146-4.3-6.5-3.13a8.47 8.47 0 0 1-1.7 1.553v3.663h-1.949zm-6.227-.154v-2.056h-1.278v-3.6a8.466 8.466 0 0 1-1.748-1.561l-5.841 2.974zm-.34-2.995h7.574v-2.161a8.38 8.38 0 0 1-3.833.921 8.386 8.386 0 0 1-3.741-.875zm-3.741-9.66a7.489 7.489 0 0 0 7.482 7.482 7.489 7.489 0 0 0 7.479-7.482 7.488 7.488 0 0 0-7.479-7.479 7.489 7.489 0 0 0-7.482 7.478z" transform="translate(13032.733 -250)" style="fill:#fff"/>
        <g data-name="그룹 630952">
            <path data-name="합치기 116" d="M-13035.431 259.74v-3.521h-2.507v3.521h-.938v-5.956h-.636V250h.939v2.844h3.776V250h.937v3.783h-.635V259.739zm0-4.46v-1.5h-2.507v1.5z" transform="translate(13056.614 -243.239)" style="opacity:.34;fill:#fff"/>
        </g>
    </g>
    <path data-name="사각형 462582" style="fill:none" d="M0 0h40v40H0z"/>
</svg>
