<svg xmlns="http://www.w3.org/2000/svg" width="648" height="146" viewBox="0 0 648 146">
    <path data-name="사각형 462781" style="fill:none" d="M0 0h648v146H0z"/>
    <g data-name="그룹 631178">
        <g data-name="그룹 631173">
            <path data-name="패스 1509364" d="M52.518 82.463a1.332 1.332 0 0 0 .134 0c14.342-.7 26.007-5.91 32.707-14.491 6.617 8.273 18.035 13.312 32.055 14a2.847 2.847 0 0 0 2.059-.767 2.814 2.814 0 0 0 .862-2.012v-8.821a2.784 2.784 0 0 0-2.627-2.779c-15.48-.885-24.131-8.3-24.445-20.9h22.447a2.783 2.783 0 0 0 2.779-2.783v-9.055a2.78 2.78 0 0 0-2.779-2.781H54.349a2.777 2.777 0 0 0-2.774 2.781v9.058a2.781 2.781 0 0 0 2.774 2.787h22.938c-.317 12.758-9.135 20.259-24.925 21.139a2.781 2.781 0 0 0-2.627 2.781v9.065A2.761 2.761 0 0 0 50.6 81.7a2.8 2.8 0 0 0 1.919.767" transform="translate(69.51 -15.91)" style="fill:#fff"/>
            <path data-name="패스 1509365" d="M153.953 79.162h.133c14.317-.69 25.979-5.951 32.718-14.609 6.648 8.345 18.055 13.43 32.051 14.118a2.786 2.786 0 0 0 2.059-.765 2.817 2.817 0 0 0 .864-2.012v-8.822a2.78 2.78 0 0 0-2.627-2.777c-15.435-.885-24.079-8.3-24.441-20.9h22.445a2.78 2.78 0 0 0 2.781-2.779v-9.06a2.786 2.786 0 0 0-2.781-2.781h-61.36a2.781 2.781 0 0 0-2.779 2.781v9.06a2.775 2.775 0 0 0 2.779 2.779h22.925c-.364 12.767-9.178 20.264-24.921 21.142a2.788 2.788 0 0 0-2.618 2.781v9.067a2.769 2.769 0 0 0 .858 2.014 2.81 2.81 0 0 0 1.914.767" transform="translate(197.619 -20.082)" style="fill:#fff"/>
            <path data-name="패스 1509366" d="M310.938 66.306c0-15.663-11.62-27.036-27.643-27.036s-27.634 11.373-27.634 27.036a18.831 18.831 0 0 0 2.627 10.056 2.792 2.792 0 0 0 2.36 1.3H270.8a2.784 2.784 0 0 0 2.333-4.3 12.2 12.2 0 0 1-1.878-7.058c0-7.309 4.956-12.4 12.038-12.4 7.1 0 12.043 5.094 12.043 12.4s-4.942 12.4-12.043 12.4h-76.939V63a2.78 2.78 0 0 0-2.779-2.783h-10.04A2.786 2.786 0 0 0 190.752 63v15.709H144.74a2.782 2.782 0 0 0-2.786 2.783v9.067a2.781 2.781 0 0 0 2.786 2.779h138.555c16.023 0 27.643-11.371 27.643-27.032" transform="translate(185.967 -6.823)" style="fill:#fff"/>
            <path data-name="패스 1509367" d="M253.423 65.74H208.84a2.782 2.782 0 0 0-2.783 2.779v9.063a2.786 2.786 0 0 0 2.783 2.783h37.269v31.021a2.773 2.773 0 0 0 2.779 2.774h10.045a2.778 2.778 0 0 0 2.783-2.774V74.024c0-5.109-3.179-8.284-8.293-8.284" transform="translate(266.918 26.604)" style="fill:#fff"/>
            <path data-name="패스 1509368" d="M299.679 103.325h-40.491v-6.483h38.9a2.4 2.4 0 0 0 2.39-2.4V72.853c0-4.4-2.731-7.132-7.126-7.132h-45.2a2.389 2.389 0 0 0-2.392 2.39v7.8a2.4 2.4 0 0 0 2.392 2.4h38.9v6.067h-38.9a2.39 2.39 0 0 0-2.392 2.392v22.013c0 4.394 2.738 7.13 7.13 7.13h46.782a2.392 2.392 0 0 0 2.383-2.392v-7.8a2.4 2.4 0 0 0-2.383-2.394" transform="translate(317.065 26.58)" style="fill:#fff"/>
            <path data-name="패스 1509369" d="M17.411 83.3A43.784 43.784 0 0 0 30.046 81a27.768 27.768 0 0 0 6.386 2.543 27.585 27.585 0 0 0 33.641-19.762A27.824 27.824 0 0 0 70.935 57c11.606-11.029 11.4-17.89 9.149-21.723-2.378-4.037-8.721-7.648-25.446-1.937q-3.489 1.2-7.128 2.788a4.46 4.46 0 0 0 .484-1.086l-.034-2.582a4.5 4.5 0 0 0-4.234-3.206h-.386A27.5 27.5 0 0 0 16.682 49.9a26.638 26.638 0 0 0-.873 6.8C4.214 67.723 4.413 74.579 6.66 78.415 7.972 80.644 10.9 83.3 17.411 83.3m54.835-43.412c-.048.72-.69 2.833-3.467 6.248a27.6 27.6 0 0 0-3.679-6.255c4.331-.765 6.494-.31 7.141.007m-29.383-1.6c-2.634 1.3-5.286 2.727-7.89 4.256s-5.137 3.154-7.567 4.84a18.541 18.541 0 0 1 15.457-9.1M23.4 61.964a102.381 102.381 0 0 1 16.134-11.638 104.782 104.782 0 0 1 15.786-7.605A18.525 18.525 0 0 1 38.7 74.808a18.692 18.692 0 0 1-6.248-3.008 4.727 4.727 0 0 1-.679-.487c-.226-.186-.446-.38-.656-.579a64.873 64.873 0 0 1-6.431-7.034l-6.227 5.732 2.589 3.6.009-.057c.2.278.376.566.579.83-4.338.772-6.5.31-7.137-.011.048-1.1 1.489-5.157 8.9-11.832" transform="translate(13.586 -19.47)" style="fill:#fff"/>
            <path data-name="패스 1509370" d="M120.375 83.221c16.168 0 27.887-10.9 27.887-25.925a17.33 17.33 0 0 0-2.482-8.92 2.772 2.772 0 0 0-2.369-1.335h-9.927a2.779 2.779 0 0 0-2.4 4.177 11.235 11.235 0 0 1 1.589 6.078c0 6.66-5.046 11.31-12.294 11.31-7.225 0-12.283-4.65-12.283-11.31s5.057-11.3 12.283-11.3h22.661a2.78 2.78 0 0 0 2.779-2.781v-9.066a2.781 2.781 0 0 0-2.779-2.781h-22.665c-16.163 0-27.889 10.9-27.889 25.927s11.726 25.925 27.889 25.925" transform="translate(123.497 -16.802)" style="fill:#fff"/>
            <path data-name="패스 1509371" d="M291.805 26.711h-9.063a2.774 2.774 0 0 0-2.779 2.781v40.869a24.245 24.245 0 0 1-24.217 24.215h-4.36l-.029-.007H2.779A2.783 2.783 0 0 0 0 97.352v9.058a2.781 2.781 0 0 0 2.779 2.781h40.694v30.292a2.787 2.787 0 0 0 2.783 2.783h10.052a2.782 2.782 0 0 0 2.774-2.783v-30.292H140.221v31.514a2.781 2.781 0 0 0 2.779 2.782h10.049a2.774 2.774 0 0 0 2.779-2.779v-31.515H221.8c.018 0 .034.011.052.011h33.89a38.622 38.622 0 0 0 24.217-8.526v5.831a2.775 2.775 0 0 0 2.779 2.779h9.063a2.779 2.779 0 0 0 2.779-2.779V29.492a2.778 2.778 0 0 0-2.779-2.781" transform="translate(6.703 -22.683)" style="fill:#fff"/>
            <path data-name="패스 1509372" d="M349.183 94.433h-41.374V83.857h17.847a2.509 2.509 0 0 0 2.509-2.514v-8.178a2.513 2.513 0 0 0-2.509-2.512h-38.085V52.677h38.086a2.509 2.509 0 0 0 2.509-2.509v-8.187a2.507 2.507 0 0 0-2.509-2.507H276a2.512 2.512 0 0 0-2.512 2.507v34.4c0 4.614 2.872 7.481 7.488 7.481h12.744v10.571h-44.343c-6.148 0-9.965-2.383-9.965-14.245v-.278h14.373a2.784 2.784 0 0 0 2.781-2.783v-9.06a2.788 2.788 0 0 0-2.781-2.788h-14.374v-7.053h14.373a2.778 2.778 0 0 0 2.781-2.779v-9.183a2.78 2.78 0 0 0-2.781-2.779h-14.373V29.728a2.779 2.779 0 0 0-2.747-2.779l-10.042-.127a2.672 2.672 0 0 0-1.989.806 2.787 2.787 0 0 0-.821 1.978v50.95c0 18.379 9.026 28.5 25.441 28.5h99.931a2.783 2.783 0 0 0 2.774-2.781v-9.061a2.78 2.78 0 0 0-2.774-2.781" transform="translate(289.338 -22.545)" style="fill:#fff"/>
        </g>
    </g>
</svg>
