<svg xmlns="http://www.w3.org/2000/svg" width="530.364" height="530.364" viewBox="0 0 530.364 530.364">
    <defs>
        <linearGradient id="nsxwhrc6oa" x1=".5" x2=".5" y2="1" gradientUnits="objectBoundingBox">
            <stop offset="0" stop-color="#fff"/>
            <stop offset="1" stop-color="gray" stop-opacity="0"/>
        </linearGradient>
    </defs>
    <path style="fill:none" d="M0 0h530v530H0z"/>
    <g data-name="recycle">
        <g data-name="타원 4835" transform="translate(10 10)" style="stroke-linecap:round;stroke-width:2px;stroke-dasharray:0 6;stroke:#f37331;fill:none">
            <circle cx="255" cy="255" r="255" style="stroke:none"/>
            <circle cx="255" cy="255" r="254" style="fill:none"/>
        </g>
        <path data-name="사각형 461929" d="m234.201 522.319.594-8.472 17.648 1.238-.594 8.472z"/>
        <path data-name="사각형 461932" d="m511.61 292.628 1.307-18.64 12.564.882-1.307 18.64z"/>
        <path data-name="사각형 461931" d="m4.138 246.172 1.209-17.23 12.563.88-1.208 17.231z"/>
        <path data-name="사각형 461930" d="m280.444 8.408 17.027.892-.445 8.478L280 16.885z"/>
        <path data-name="패스 1507572" d="M0 12 11.29 0 22 12" transform="rotate(90 142.5 143.5)" style="stroke:#f37331;fill:none"/>
        <path data-name="패스 1507668" d="M0 12 11.29 0 22 12" transform="rotate(180 265 142)" style="stroke:#f37331;fill:none"/>
        <path data-name="패스 1507669" d="M0 12 11.29 0 22 12" transform="rotate(-90 388 142)" style="stroke:#f37331;fill:none"/>
        <path data-name="패스 1507670" d="m0 0 11.29 12L22 0" transform="rotate(180 11.5 125)" style="stroke:#f37331;fill:none"/>
    </g>
    <g transform="translate(29.411 29.166)" style="opacity:.936">
        <path data-name="타원 4246" d="M134.925 1.443a135.2 135.2 0 0 1 26.9 2.7 133.384 133.384 0 0 1 96.085 78.368 131.5 131.5 0 0 1 7.777 24.912 133.3 133.3 0 0 1 0 53.5 131.6 131.6 0 0 1-20.083 47.457 133.456 133.456 0 0 1-83.777 55.82 135.532 135.532 0 0 1-53.8 0 133.384 133.384 0 0 1-96.085-78.368 131.5 131.5 0 0 1-7.777-24.912 133.3 133.3 0 0 1 0-53.5 131.6 131.6 0 0 1 20.08-47.458 133.456 133.456 0 0 1 83.779-55.823 135.2 135.2 0 0 1 26.9-2.7m0-1.443C60.408 0 0 60.07 0 134.17s60.408 134.17 134.925 134.17S269.85 208.27 269.85 134.17 209.442 0 134.925 0z" transform="translate(101.199 101.654)" style="opacity:.3;fill:#fff"/>
        <path data-name="합치기 9" d="M108.913 2.022a83 83 0 0 1 12.37-.976h.231c7.481.035 13.952 1.233 19.234 3.562 5.375 2.364 9.286 5.8 11.631 10.212s3.006 9.574 1.96 15.345c-1.026 5.682-3.651 11.714-7.808 17.928a91.659 91.659 0 0 1-16.422 18.161 128.161 128.161 0 0 1-23.562 16 128.134 128.134 0 0 1-26.439 10.587 92.206 92.206 0 0 1-24 3.457h-.237c-7.466-.023-13.937-1.217-19.234-3.55-5.366-2.365-9.278-5.8-11.628-10.212S22 72.96 23.05 67.19c1.034-5.713 3.659-11.748 7.808-17.935a89.883 89.883 0 0 1 15.2-17.1c-9.743 11.013-13.638 22.981-8.986 31.734 7.435 13.98 33.868 14.467 59.039 1.08s39.553-35.569 32.121-49.55S94.365.957 69.194 14.342a84.467 84.467 0 0 0-21.658 16.2q-4.873 4.036-9.364 8.525a137.613 137.613 0 0 0-8.454 9.3c-4.285 6.381-7 12.615-8.085 18.526-1.112 6.117-.4 11.613 2.1 16.325 2.52 4.732 6.693 8.4 12.413 10.893 5.526 2.41 12.246 3.632 19.98 3.632a93.545 93.545 0 0 0 24.5-3.55 129.811 129.811 0 0 0 26.591-10.667 129.724 129.724 0 0 0 23.827-16.182 93.1 93.1 0 0 0 16.674-18.448c4.266-6.373 6.966-12.592 8.026-18.475 1.106-6.1.4-11.573-2.1-16.279a23.676 23.676 0 0 0-9.8-9.608A41.548 41.548 0 0 0 128.447 0a135.124 135.124 0 0 0-19.534 2.022zM88.357 8.286a62.679 62.679 0 0 1 16.982-2.228 33.664 33.664 0 0 1 13.471 2.723 16.862 16.862 0 0 1 8.15 7.314 16.825 16.825 0 0 1 1.5 10.849 33.649 33.649 0 0 1-5.274 12.69 62.408 62.408 0 0 1-11.347 12.829A86.427 86.427 0 0 1 95.434 63.7a86.616 86.616 0 0 1-18.486 7.323 62.375 62.375 0 0 1-16.978 2.23 33.724 33.724 0 0 1-13.47-2.722 16.851 16.851 0 0 1-8.155-7.319 16.843 16.843 0 0 1-1.5-10.85 33.674 33.674 0 0 1 5.277-12.688A62.371 62.371 0 0 1 53.46 26.848a84.368 84.368 0 0 1 12.41-8.98q1.422-.832 2.872-1.636.843-.461 1.688-.913a86.48 86.48 0 0 1 17.927-7.033zm73.88-5.043a30.8 30.8 0 0 1 13.692 12.91c3.123 5.876 4.064 12.713 2.793 20.315-1.245 7.474-4.55 15.342-9.807 23.394a114.848 114.848 0 0 1-20.842 23.478 159.479 159.479 0 0 1-30.028 20.533 159.4 159.4 0 0 1-33.813 13.412 116.284 116.284 0 0 1-29.707 4.169c-.471 0-.946 0-1.412-.012-9.629-.148-18-1.816-24.876-4.95-7.008-3.2-12.148-7.8-15.279-13.681S8.895 90.1 10.162 82.5a46.4 46.4 0 0 1 1.038-4.7 130.066 130.066 0 0 0-2.738 6.401 32.093 32.093 0 0 0 3.224 19.281c3.352 6.311 8.893 11.206 16.468 14.547a54.577 54.577 0 0 0 12.172 3.645 79.117 79.117 0 0 0 14.174 1.219 118.482 118.482 0 0 0 30.9-4.429 161.35 161.35 0 0 0 33.315-13.324 160.527 160.527 0 0 0 30.3-20.715 116.367 116.367 0 0 0 21.1-23.775c5.37-8.237 8.745-16.29 10.021-23.939 1.318-7.922.327-15.066-2.947-21.23A30.82 30.82 0 0 0 167.1 4.442c-1.628-.436-3.27-.84-4.864-1.2zm33.385 16.22c3.9 7.343 5.222 15.792 3.911 25.122a62.463 62.463 0 0 1-3.74 14 87.373 87.373 0 0 1-7.249 14.385 130.536 130.536 0 0 1-24.06 28.131 177.1 177.1 0 0 1-35.022 24.247 177.223 177.223 0 0 1-39.689 15.473 133.675 133.675 0 0 1-32.523 4.3c-1.423 0-2.85-.032-4.242-.085a88.212 88.212 0 0 1-15.987-2.023 63.586 63.586 0 0 1-13.7-4.729c-8.471-4.145-14.744-9.963-18.636-17.3A37.278 37.278 0 0 1 1.019 110.6a119.314 119.314 0 0 0-.583 3.706 38 38 0 0 0 2.971 7.361 38.824 38.824 0 0 0 8.606 10.854 48.164 48.164 0 0 0 12.226 7.779 67.615 67.615 0 0 0 15.248 4.686 95.158 95.158 0 0 0 17.655 1.571c22.9 0 48.824-7.081 73-19.93a178.415 178.415 0 0 0 35.294-24.457 131.682 131.682 0 0 0 24.328-28.439 89.582 89.582 0 0 0 7.372-14.629 64.378 64.378 0 0 0 3.827-14.326c1.35-9.636-.023-18.382-4.071-26a36.87 36.87 0 0 0-2.111-3.5c-.91-.479-1.879-.977-2.87-1.47a37.364 37.364 0 0 1 3.711 5.657zM73.184 22.948c-13.693 7.28-21.843 18.728-18.2 25.569S72.667 55 86.359 47.722s21.846-18.728 18.206-25.572c-1.743-3.28-5.881-4.905-11.227-4.905-5.803.001-13.026 1.914-20.154 5.703zM60.023 50.967a6.436 6.436 0 0 1-4.254-8 17.359 17.359 0 0 1 2.987-6.233c3.314-4.651 8.676-9.1 15.1-12.515s13.118-5.381 18.822-5.525a17.345 17.345 0 0 1 6.843 1.006 6.979 6.979 0 0 1 3.773 3.122 7.009 7.009 0 0 1 .482 4.877 17.467 17.467 0 0 1-2.986 6.235c-3.314 4.65-8.676 9.1-15.108 12.513s-13.113 5.386-18.822 5.53c-.229.006-.453.009-.676.009a16.7 16.7 0 0 1-6.161-1.019zm162.629-16.05c1.661 8.839.937 18.487-2.146 28.675a105.063 105.063 0 0 1-15.428 30.263 162.413 162.413 0 0 1-26.964 28.983A205.47 205.47 0 0 1 141.35 147.7a204.646 204.646 0 0 1-43.119 17.11 158.412 158.412 0 0 1-40.672 5.661c-12.449 0-23.71-1.768-33.471-5.264C14.077 161.626 5.974 156.344 0 149.512c.1.843.206 1.656.32 2.485 6.187 6.494 14.357 11.511 24.281 14.909a101.877 101.877 0 0 0 32.985 5.008 159.53 159.53 0 0 0 40.995-5.7 205.885 205.885 0 0 0 43.438-17.242 206.911 206.911 0 0 0 36.613-24.674 164.748 164.748 0 0 0 27.031-28.781 108.644 108.644 0 0 0 15.8-30.161c3.274-10.178 4.254-19.879 2.924-28.828a200.724 200.724 0 0 0-1.731-1.61zm18.514 20.863a71.067 71.067 0 0 1-.322 7.206 85.968 85.968 0 0 1-4.182 19.148 112.723 112.723 0 0 1-8.744 19.459 143.806 143.806 0 0 1-13.008 19.173 175.313 175.313 0 0 1-16.952 18.281 206.839 206.839 0 0 1-44.441 31.538 206.856 206.856 0 0 1-51 19.207 174.215 174.215 0 0 1-24.643 3.833c-4.111.332-8.225.5-12.214.5-3.721 0-7.4-.148-10.952-.433a113.754 113.754 0 0 1-21.023-3.632 86.754 86.754 0 0 1-18.211-7.245 70.66 70.66 0 0 1-9.274-6.024c.316.921.592 1.7.86 2.434a81.878 81.878 0 0 0 26.265 12.223 121.716 121.716 0 0 0 32.354 4.115 170.712 170.712 0 0 0 43.3-5.876 210.909 210.909 0 0 0 45.208-17.834 212.822 212.822 0 0 0 36.266-24.253 178.977 178.977 0 0 0 27.665-28.6 131.584 131.584 0 0 0 17.8-30.682 87.4 87.4 0 0 0 6.671-30.518c-.474-.689-.94-1.35-1.418-2.019zm15.691 28.809c-.631 2.776-1.4 5.595-2.28 8.379a125.813 125.813 0 0 1-9.347 21.708 157.021 157.021 0 0 1-14.043 21.306 185.868 185.868 0 0 1-18.4 20.253 219.021 219.021 0 0 1-48.466 34.692 219.33 219.33 0 0 1-55.854 20.773 185.9 185.9 0 0 1-27.082 3.929c-3.788.263-7.587.4-11.3.4-4.838 0-9.62-.226-14.217-.669a125.179 125.179 0 0 1-23.219-4.383 102.592 102.592 0 0 1-11.832-4.277c.307.471.634.965 1.034 1.56.078.113.152.226.233.334l.086.14.1.141a112.734 112.734 0 0 0 22.568 6.425 143.493 143.493 0 0 0 25.253 2.162 184.618 184.618 0 0 0 46.585-6.256A223.9 223.9 0 0 0 165 192.2a227.74 227.74 0 0 0 33.93-22.068 201.613 201.613 0 0 0 27.319-25.9c15.8-18.176 26.7-37.982 31.514-57.27a86.211 86.211 0 0 0-.907-2.376zm6.611 22.395c-.183.739-.338 1.35-.485 1.925a128.3 128.3 0 0 1-8.556 23.2 152.042 152.042 0 0 1-13.389 22.535 173.361 173.361 0 0 1-17.892 21.167 190.4 190.4 0 0 1-22.073 19.1 204.769 204.769 0 0 1-25.927 16.361 206.659 206.659 0 0 1-28.061 12.35 192.467 192.467 0 0 1-28.19 7.619 175.678 175.678 0 0 1-27.556 3 160.09 160.09 0 0 1-4.316.058 151.14 151.14 0 0 1-21.847-1.563 128.269 128.269 0 0 1-24.016-5.884 112.896 112.896 0 0 1-6.592-2.562c.8.862 1.61 1.717 2.411 2.542a125.8 125.8 0 0 0 23.881 6.658 149.772 149.772 0 0 0 26.132 2.244 177.508 177.508 0 0 0 44.037-5.724 203.024 203.024 0 0 0 44.791-17.469 205.551 205.551 0 0 0 31.786-20.841 187.766 187.766 0 0 0 25.725-24.853 162.512 162.512 0 0 0 19.043-27.564 133.278 133.278 0 0 0 11.72-28.96 154.035 154.035 0 0 0-.621-3.34zm2.59 23a136.976 136.976 0 0 1-5.305 14.109 150.3 150.3 0 0 1-12.933 23.372 168.127 168.127 0 0 1-17.547 21.8 181.784 181.784 0 0 1-21.855 19.5 193.2 193.2 0 0 1-53.956 28.691 180.764 180.764 0 0 1-28.4 7.214 167.853 167.853 0 0 1-27.734 2.357h-.148a150.556 150.556 0 0 1-26.619-2.349 133.453 133.453 0 0 1-20.761-5.487c1.222.948 2.455 1.87 3.667 2.753a145.162 145.162 0 0 0 43.833 6.525c28.586 0 57.962-7.587 84.946-21.934a193.464 193.464 0 0 0 28.554-18.552 181.481 181.481 0 0 0 23.6-22.182 164.31 164.31 0 0 0 18.242-24.841 144.486 144.486 0 0 0 12.458-26.533v-.867c0-1.2-.016-2.4-.041-3.578zm-12.67 48.007a162.752 162.752 0 0 1-17.262 22.325 173.977 173.977 0 0 1-21.672 19.829 183.5 183.5 0 0 1-53.941 28.68 173.041 173.041 0 0 1-28.552 6.872 163.364 163.364 0 0 1-24.535 1.873c-1.213 0-2.434-.012-3.632-.043a149.386 149.386 0 0 1-26.972-3.037c-.661-.135-1.349-.283-2.041-.439 1.944.937 3.9 1.821 5.814 2.628a153.445 153.445 0 0 0 26.815 2.333 168.112 168.112 0 0 0 41.031-5.172 181.829 181.829 0 0 0 40.921-15.823 180.212 180.212 0 0 0 43.4-32.1 161.791 161.791 0 0 0 29.56-40.617c.38-1.571.742-3.177 1.073-4.787.058-.287.113-.576.171-.859.027-.132.051-.264.078-.393a152.47 152.47 0 0 1-10.255 18.728z" transform="rotate(180 184.312 184.709)" style="opacity:.3;fill:#fff"/>
        <path data-name="합치기 8" d="M98.577 8.015a75.458 75.458 0 0 0-11.616 9.758 74.207 74.207 0 0 0-8.531 10.386 43.525 43.525 0 0 1 5.7-14.773 31.113 31.113 0 0 1 4.449-5.754l-.976-1.056a31.263 31.263 0 0 0-4.666 6A44.945 44.945 0 0 0 76.9 28.521c-4.525-4.779-7.835-13.577-7.872-13.678l-1.349.507a59.072 59.072 0 0 0 2.908 6.389 36.978 36.978 0 0 0 4.773 7.235q-1.2-.112-2.447-.113a39.751 39.751 0 0 0-15.225 3.459 88.813 88.813 0 0 0-18.2 10.741 150.293 150.293 0 0 0-18.916 16.808l1.061.973a148.8 148.8 0 0 1 18.733-16.635 87.386 87.386 0 0 1 17.892-10.562 38.324 38.324 0 0 1 14.65-3.345 24.594 24.594 0 0 1 2.668.144A156.351 156.351 0 0 0 32.5 67.181a150.684 150.684 0 0 0-31.221 70.076A91.959 91.959 0 0 0 0 149.873l1.435.007a93.008 93.008 0 0 1 1.275-12.452 149.256 149.256 0 0 1 30.928-69.37A154.3 154.3 0 0 1 73.9 33.126a287.372 287.372 0 0 0-29.719 37.7A186.838 186.838 0 0 0 25.9 106.285a133.037 133.037 0 0 0-7.89 32.056 111.024 111.024 0 0 0 .463 28.534 113.516 113.516 0 0 0 13.739 39.309 141.658 141.658 0 0 0 21.613 28.631 162.418 162.418 0 0 0 19.95 17.5c1.3.962 2.567 1.87 3.779 2.707 1.112.507 2.241 1 3.352 1.473a88.07 88.07 0 0 0 2.179.9l.21-.365c-.012-.008-3.382-1.964-8.7-5.9a162.713 162.713 0 0 1-19.77-17.361 140.65 140.65 0 0 1-21.385-28.326 111.91 111.91 0 0 1-13.537-38.8 109.461 109.461 0 0 1-.459-28.16 131.34 131.34 0 0 1 7.805-31.7A185.375 185.375 0 0 1 45.394 71.6a287.077 287.077 0 0 1 30.554-38.558l-.746-.7q.945-.565 1.9-1.116l-.359-.626.06.009.023-.146a13.035 13.035 0 0 0 1.124.909l.814-1.132.029.018a68.494 68.494 0 0 1 9.225-11.508A74.372 74.372 0 0 1 99.409 9.2a63.413 63.413 0 0 1 15.777-7.824L114.734 0a65.032 65.032 0 0 0-16.157 8.015zm33.987-4.387a108.627 108.627 0 0 0-27.559 9.777 129.29 129.29 0 0 0-18.6 11.556 86.827 86.827 0 0 0-6.842 5.594l.989 1.052c.032-.03 1.129-1.055 3.143-2.694l.033.416c10.193-.826 20.148-1.243 29.613-1.243 8.485 0 16.73.334 24.5 1a206.837 206.837 0 0 1 42.235 7.8A141.759 141.759 0 0 1 211.9 50.78a112.8 112.8 0 0 1 22.87 18.057 107.311 107.311 0 0 1 20.42 29.945 121.168 121.168 0 0 1 9.014 28.813 130.586 130.586 0 0 1 1.855 15.143c.221-3.2.338-6.432.338-9.6v-1.085a122.943 122.943 0 0 0-.774-4.717 122.649 122.649 0 0 0-9.123-29.163 108.962 108.962 0 0 0-20.7-30.341 114.14 114.14 0 0 0-23.17-18.284 142.885 142.885 0 0 0-32.13-14.037 208.049 208.049 0 0 0-42.524-7.862c-7.789-.671-16.085-1.005-24.663-1.005-8.615 0-17.636.343-26.854 1.023a164.5 164.5 0 0 1 55.6-13.041 140.728 140.728 0 0 1 44.577 4.928A132.141 132.141 0 0 1 215.407 31.3a80.4 80.4 0 0 1 10.169 6.549l.9-1.126a81.377 81.377 0 0 0-10.364-6.686 133.927 133.927 0 0 0-29.1-11.878 141.341 141.341 0 0 0-37.979-5.146q-3.516 0-7.053.168A164.818 164.818 0 0 0 88.337 25.34a127.4 127.4 0 0 1 17.353-10.669 107.385 107.385 0 0 1 27.182-9.634 83.849 83.849 0 0 1 33.16-.222l.283-1.41a81.969 81.969 0 0 0-16.1-1.582 88.892 88.892 0 0 0-17.651 1.805zm-50.242 29a293.353 293.353 0 0 1 56.7 15.261 213.9 213.9 0 0 1 42.65 22.071 169.308 169.308 0 0 1 51.238 53.7 164.661 164.661 0 0 1 12.58 26.169 161.8 161.8 0 0 1 6.526 22.093 133.566 133.566 0 0 1 2.562 16.383 132.9 132.9 0 0 0 1.175-2.684 138.869 138.869 0 0 0-2.318-13.933 161.578 161.578 0 0 0-6.572-22.292 165.089 165.089 0 0 0-12.677-26.41 170.943 170.943 0 0 0-51.658-54.2 215.9 215.9 0 0 0-42.959-22.249 294.16 294.16 0 0 0-57.013-15.331zM53.973 84.144a218.824 218.824 0 0 0-10.2 43.716 156.139 156.139 0 0 0-.249 36.832 127.939 127.939 0 0 0 7.369 30.4 122.034 122.034 0 0 0 19.957 34.229 135.521 135.521 0 0 0 23.823 22.522 140.9 140.9 0 0 0 19.944 12.374c1.439.729 2.871 1.418 4.266 2.053 1.536.16 3.089.3 4.628.4v-.012a87.514 87.514 0 0 1-8.275-3.748 139.084 139.084 0 0 1-19.763-12.268 133.812 133.812 0 0 1-23.542-22.281 120.355 120.355 0 0 1-19.7-33.8 126.188 126.188 0 0 1-7.284-30.061 154.452 154.452 0 0 1 .253-36.485 218.367 218.367 0 0 1 10.138-43.423 336.879 336.879 0 0 1 22.4-50.83l-1.271-.677a337.4 337.4 0 0 0-22.494 51.059zm26.8-51.052-.781 1.2.423.282-.49.224.078-1.164-1.439-.1a493.7 493.7 0 0 0-.389 64.131 351.316 351.316 0 0 0 6.942 51.593c5.82 26.991 14.89 50.71 26.949 70.5a156.943 156.943 0 0 0 15.515 21.359 125.033 125.033 0 0 0 13.887 13.732c8.139 6.826 13.657 9.436 13.891 9.54l.607-1.3c-.07-.035-5.651-2.68-13.654-9.408a123.689 123.689 0 0 1-13.727-13.6 156.141 156.141 0 0 1-15.36-21.181c-11.961-19.651-20.944-43.218-26.723-70.041a349.621 349.621 0 0 1-6.9-51.344 489.758 489.758 0 0 1 .241-61.5c3.1 6.769 21.938 47.87 43.729 92.651 13.941 28.651 26.342 53.176 36.861 72.9 13.167 24.676 23.407 41.876 30.448 51.122l1.145-.872c-6.993-9.187-17.2-26.321-30.321-50.932-10.512-19.71-22.909-44.219-36.842-72.854-22.39-46.024-41.671-88.159-43.932-93.109a411.366 411.366 0 0 1 37.988 28.513 373.627 373.627 0 0 1 31.352 29.819 336.051 336.051 0 0 1 43.235 57.356 298.468 298.468 0 0 1 22.788 47.091 271.035 271.035 0 0 1 8.9 28.069l.016.059.012.051.032.105.128.5c.3 1.118.516 1.928.7 2.521.487-.484.848-.838 1.163-1.157-.147-.554-.323-1.2-.505-1.894l-.027-.109-.09-.335-.012-.055a273.252 273.252 0 0 0-8.956-28.268 301.376 301.376 0 0 0-22.9-47.316 337.136 337.136 0 0 0-43.435-57.595 374.406 374.406 0 0 0-31.471-29.937 412 412 0 0 0-39.074-29.247z" transform="rotate(180 184.456 184.495)" style="opacity:.16;fill:#fff"/>
        <path data-name="패스 1505307" d="M5.7 5.695c3.147 0 5.7-1.275 5.7-2.847S8.846 0 5.7 0 0 1.275 0 2.847s2.551 2.848 5.7 2.848z" transform="rotate(152 106.535 205.313)" style="fill:#343434"/>
        <g data-name="타원 4620" transform="translate(97.416 97.417)" style="stroke:#fff;opacity:.1;fill:none">
            <ellipse cx="139.174" cy="138.419" rx="139.174" ry="138.419" style="stroke:none"/>
            <ellipse cx="139.174" cy="138.419" rx="138.674" ry="137.919" style="fill:none"/>
        </g>
        <circle data-name="타원 4849" cx="139" cy="139" r="139" transform="translate(97.589 96.834)" style="opacity:.258;fill:url(#nsxwhrc6oa)"/>
        <g data-name="타원 4850" transform="translate(-.411 -.166)" style="opacity:.5;stroke:#f37331;fill:none">
            <circle cx="236" cy="236" r="236" style="stroke:none"/>
            <circle cx="236" cy="236" r="235.5" style="fill:none"/>
        </g>
    </g>
</svg>
