<svg xmlns="http://www.w3.org/2000/svg" width="56" height="56" viewBox="0 0 56 56">
    <g data-name="그룹 629488">
        <g data-name="타원 4677" style="stroke:#fff;stroke-width:2px;fill:none">
            <circle cx="28" cy="28" r="28" style="stroke:none"/>
            <circle cx="28" cy="28" r="27" style="fill:none"/>
        </g>
    </g>
    <path data-name="빼기 47" d="M-11508.809 8268h-1.561a1 1 0 0 1-1-1v-1.477a5.693 5.693 0 0 1-2-1.191l-1.491.879a.7.7 0 0 1-.356.1.706.706 0 0 1-.615-.365l-1.069-1.89a.74.74 0 0 1 .26-.994l1.494-.882a5.972 5.972 0 0 1-.115-1.179 5.975 5.975 0 0 1 .115-1.18l-1.494-.882a.742.742 0 0 1-.26-1l1.069-1.887a.709.709 0 0 1 .617-.365.7.7 0 0 1 .354.1l1.488.879a5.65 5.65 0 0 1 2.006-1.191V8253a1 1 0 0 1 1-1h1.561a1 1 0 0 1 1 1v1.466a5.6 5.6 0 0 1 2.026 1.19l1.469-.867a.7.7 0 0 1 .354-.1.708.708 0 0 1 .616.365l1.069 1.887a.74.74 0 0 1-.26 1l-1.466.864a5.817 5.817 0 0 1 .122 1.2 5.871 5.871 0 0 1-.122 1.2l1.466.861a.736.736 0 0 1 .26.994l-1.069 1.89a.706.706 0 0 1-.615.365.693.693 0 0 1-.355-.1l-1.472-.867a5.557 5.557 0 0 1-2.023 1.188V8267a1 1 0 0 1-1.003 1zm-.763-10.908a2.882 2.882 0 0 0-2.848 2.908 2.883 2.883 0 0 0 2.848 2.91 2.883 2.883 0 0 0 2.847-2.91 2.881 2.881 0 0 0-2.846-2.907z" transform="translate(11537.59 -8232)" style="fill:#fff"/>
</svg>
