<svg xmlns="http://www.w3.org/2000/svg" width="56" height="56" viewBox="0 0 56 56">
    <g data-name="그룹 629485">
        <g data-name="타원 4677" style="stroke:#fff;stroke-width:2px;fill:none">
            <circle cx="28" cy="28" r="28" style="stroke:none"/>
            <circle cx="28" cy="28" r="27" style="fill:none"/>
        </g>
    </g>
    <path data-name="패스 1506966" d="M6.132-7.224 3.12 0h-2.1l3.048-7H.336v-1.748h5.8zM10.9-1.74V0H9.852a2.556 2.556 0 0 1-1.74-.546 2.256 2.256 0 0 1-.624-1.782v-2.664h-.816V-6.7h.816v-1.628H9.54V-6.7h1.344V-5H9.54v2.7a.562.562 0 0 0 .144.432.7.7 0 0 0 .48.132z" transform="translate(22.384 32.374)" style="fill:#fff"/>
</svg>
