<svg xmlns="http://www.w3.org/2000/svg" width="32" height="32" viewBox="0 0 32 32">
    <g data-name="그룹 629485">
        <g data-name="타원 4677" style="stroke:#fff;stroke-width:2px;fill:none">
            <circle cx="16" cy="16" r="16" style="stroke:none"/>
            <circle cx="16" cy="16" r="15" style="fill:none"/>
        </g>
    </g>
    <path data-name="패스 1506966" d="m4.661-7.611-2.248 5.39H.846l2.274-5.22H.336v-1.307h4.325zm3.554 4.092v1.3h-.779a1.907 1.907 0 0 1-1.3-.407 1.684 1.684 0 0 1-.466-1.33v-1.989h-.606v-1.272h.609v-1.218H7.2v1.218h1v1.271h-1v2.006a.42.42 0 0 0 .107.322.524.524 0 0 0 .358.1z" transform="translate(11.724 21.484)" style="fill:#fff"/>
</svg>
