<svg xmlns="http://www.w3.org/2000/svg" width="56" height="56" viewBox="0 0 56 56">
    <g data-name="타원 4677" style="stroke:#fff;stroke-width:2px;fill:none">
        <circle cx="28" cy="28" r="28" style="stroke:none"/>
        <circle cx="28" cy="28" r="27" style="fill:none"/>
    </g>
    <path data-name="패스 1506967" d="M6.132-7.224 3.12 0h-2.1l3.048-7H.336v-1.748h5.8zm7 .252H9.384v1.656a1.744 1.744 0 0 1 .672-.432 2.56 2.56 0 0 1 .936-.168 2.579 2.579 0 0 1 1.494.408 2.4 2.4 0 0 1 .87 1.056 3.545 3.545 0 0 1 .276 1.4 3.073 3.073 0 0 1-.792 2.23A2.954 2.954 0 0 1 10.608 0 3.915 3.915 0 0 1 8.94-.33a2.555 2.555 0 0 1-1.092-.918 2.659 2.659 0 0 1-.42-1.352h2a1.08 1.08 0 0 0 .348.618 1.1 1.1 0 0 0 .756.246.992.992 0 0 0 .84-.36 1.538 1.538 0 0 0 .276-.96 1.281 1.281 0 0 0-.288-.9 1.087 1.087 0 0 0-.84-.312 1.089 1.089 0 0 0-.672.2.923.923 0 0 0-.348.522H7.524v-5.22h5.6zM18.7-1.74V0h-1.048a2.556 2.556 0 0 1-1.74-.546 2.256 2.256 0 0 1-.624-1.782v-2.664h-.816V-6.7h.816v-1.628h2.052V-6.7h1.344V-5H17.34v2.7a.562.562 0 0 0 .144.432.7.7 0 0 0 .48.132z" transform="translate(18.484 32.386)" style="fill:#fff"/>
</svg>
