<svg xmlns="http://www.w3.org/2000/svg" width="56.5" height="56.5" viewBox="0 0 56.5 56.5">
    <defs>
        <clipPath id="pddbkvna6a">
            <path data-name="사각형 462278" transform="translate(3514 6806)" style="stroke:#707070;fill:#fff" d="M0 0h16v32H0z"/>
        </clipPath>
    </defs>
    <g data-name="그룹 630384">
        <g data-name="타원 4947" transform="translate(12.25 12.25)" style="stroke:#fff;fill:none">
            <circle cx="16" cy="16" r="16" style="stroke:none"/>
            <circle cx="16" cy="16" r="15.5" style="fill:none"/>
        </g>
        <g data-name="마스크 그룹 142" style="clip-path:url(#pddbkvna6a)" transform="translate(-3485.75 -6793.75)">
            <g data-name="타원 5045" transform="translate(3506 6814)" style="stroke:#fff;fill:#fff">
                <circle cx="8" cy="8" r="8" style="stroke:none"/>
                <circle cx="8" cy="8" r="7.5" style="fill:none"/>
            </g>
        </g>
        <g data-name="타원 5046" transform="translate(20.25 20.25)" style="stroke:#fff;fill:none">
            <circle cx="8" cy="8" r="8" style="stroke:none"/>
            <circle cx="8" cy="8" r="7.5" style="fill:none"/>
        </g>
        <path data-name="패스 1508270" d="M-9129 829.919v30.419" transform="translate(9157.25 -816.75)" style="stroke:#fff;fill:none"/>
    </g>
    <path data-name="패스 1508163" d="M1866.039 7669.448v-6h6" transform="translate(-1865.789 -7663.198)" style="stroke-width:.5px;stroke:#fff;fill:none"/>
    <path data-name="패스 1508167" d="M1872.039 7669.448v-6h-6" transform="translate(-1815.789 -7663.198)" style="stroke-width:.5px;stroke:#fff;fill:none"/>
    <path data-name="패스 1508165" d="M1866.039 7663.448v6h6" transform="translate(-1865.789 -7613.198)" style="stroke-width:.5px;stroke:#fff;fill:none"/>
    <path data-name="패스 1508166" d="M1872.039 7663.448v6h-6" transform="translate(-1815.789 -7613.198)" style="stroke-width:.5px;stroke:#fff;fill:none"/>
</svg>
