<svg xmlns="http://www.w3.org/2000/svg" width="40" height="40" viewBox="0 0 40 40">
    <g data-name="그룹 630999">
        <g data-name="그룹 630998">
            <path data-name="패스 1509116" d="M-7582.257-5248.015s-5.063-1.332-7.165-.865-4.4 2.824-4.4 2.824l4.9 4.789-.493 4 4.588 4.625h3.927l4.895 4.942s3.19-3.033 3.255-5.939a32.813 32.813 0 0 0-.746-6.535" transform="translate(7600.635 5261.565)" style="stroke:#fff;fill:none"/>
            <path data-name="패스 1509117" d="m-7575.226-5234.946 12.267-11.965a2.236 2.236 0 0 1 2.417.494 2.461 2.461 0 0 1 .51 2.5l-7 7.114" transform="translate(7587.11 5260.179)" style="opacity:.34;stroke:#fff;fill:none"/>
            <path data-name="패스 1509119" d="m-7562.449-5199.827 3.221-3.221" transform="translate(7577.82 5228.168)" style="opacity:.34;stroke:#fff;fill:none"/>
            <path data-name="패스 1509120" d="m-7562.449-5270.423 11.451-11.361s8.475-3.37 10.006-1.989-1.852 9.991-1.852 9.991l-11.506 11.859" transform="translate(7577.82 5287.105)" style="stroke:#fff;fill:none"/>
            <path data-name="패스 1509121" d="M-7521.517-5275.194s7.35.336 8.216 7.828" transform="translate(7548.263 5280.662)" style="opacity:.341;stroke:#fff;fill:none"/>
            <path data-name="패스 1509122" d="m-7592.557-5233.525-1.234 1.807 1.807 1.649 1.942-1.127" transform="translate(7600.608 5250.329)" style="stroke:#fff;fill:none"/>
            <path data-name="패스 1509123" d="m-7592.557-5233.525-1.234 1.807 1.807 1.649 1.942-1.127" transform="translate(7613.343 5263.664)" style="stroke:#fff;fill:none"/>
            <g data-name="그룹 630995">
                <path data-name="패스 1509124" d="m-7606.247-5218.6-1.532 1.609" transform="translate(7610.779 5239.476)" style="stroke:#fff;fill:none"/>
                <path data-name="패스 1509125" d="m-7602.8-5215.65-3.366 3.508" transform="translate(7609.604 5237.332)" style="stroke:#fff;fill:none"/>
            </g>
            <g data-name="그룹 630997">
                <path data-name="패스 1509124" d="m-7606.247-5218.6-1.532 1.609" transform="translate(7617.759 5246.582)" style="stroke:#fff;fill:none"/>
                <path data-name="패스 1509125" d="m-7598.634-5215.649-7.531 8.379" transform="translate(7612.422 5244.437)" style="stroke:#fff;fill:none"/>
            </g>
            <g data-name="그룹 630996">
                <path data-name="패스 1509124" d="m-7606.247-5218.6-1.532 1.609" transform="translate(7625.707 5254.378)" style="stroke:#fff;fill:none"/>
                <path data-name="패스 1509125" d="m-7602.8-5215.65-3.366 3.508" transform="translate(7621.258 5248.958)" style="stroke:#fff;fill:none"/>
            </g>
        </g>
    </g>
    <path data-name="사각형 462583" style="fill:none" d="M0 0h40v40H0z"/>
</svg>
