<svg version="1.1" id="Layer_1" xmlns="http://www.w3.org/2000/svg" xmlns:xlink="http://www.w3.org/1999/xlink" x="0px" y="0px"
	 viewBox="0 0 1046.7 651.5" style="enable-background:new 0 0 1046.7 651.5;" xml:space="preserve">
<style type="text/css">
	.st0{fill:none;stroke:#F37331;}
	.st1{fill:#F37331;}
	.st2{fill:#FFFFFF;}
</style>
<g>
	<g id="main_line" transform="translate(-124.45 -53.347)">
		<path id="main_line-2" class="st0" d="M985.9,476.1c23.1-49.2-42.9-23.8-107.6,28.7S449.9,777.6,238,530.3S177.2,47.5,308.6,62
			S476.7,258.5,534,384.9s126.2,240.8,219,282s227.3,45.2,317.3-21.7c85.7-63.7,136-199.1,43-310.5c-9.6-10.5-27,5.5-32.4,0"/>
	</g>
	<g id="방향" transform="translate(-665.762 -236.854)">
		<g id="_6">
			<path id="_6-2" class="st1" d="M1654.1,517.1l8.1,3.7l-6.2,5L1654.1,517.1z"/>
			<circle id="_1" class="st2" cx="1670.3" cy="539.5" r="2"/>
		</g>
		<g id="_5">
			<path id="다각형_20" class="st1" d="M1179.8,752.9l-7.4-5.1l7-3.9L1179.8,752.9z"/>
			<circle id="타원_5175" class="st2" cx="1141.3" cy="695.5" r="2"/>
		</g>
		<g id="_4">
			<path id="다각형_21" class="st1" d="M800.2,251.3l-5.8,6.8l-3.1-7.4L800.2,251.3z"/>
			<circle id="타원_5176" class="st2" cx="762.3" cy="271.5" r="2"/>
		</g>
		<g id="_3">
			<path id="다각형_22" class="st1" d="M919.7,810.8l8.8-1.8l-2.1,7.7L919.7,810.8z"/>
			<circle id="타원_5187" class="st2" cx="951.3" cy="819.5" r="2"/>
		</g>
		<g id="_2">
			<path id="다각형_23" class="st1" d="M1417.2,690.6l3.4-8.3l5.2,6L1417.2,690.6z"/>
			<circle id="타원_5174" class="st2" cx="1442.3" cy="670.5" r="2"/>
		</g>
		<circle id="_1-2" class="st2" cx="1527.3" cy="658.5" r="2"/>
	</g>
</g>
</svg>
