<svg xmlns="http://www.w3.org/2000/svg" xmlns:xlink="http://www.w3.org/1999/xlink" width="2307.528" height="1121" viewBox="0 0 2307.528 1121">
    <defs>
        <clipPath id="4bvzmkxt4g">
            <use xlink:href="#ehpq0385za"/>
        </clipPath>
        <clipPath id="9yydpe6qxh">
            <use xlink:href="#pv6jn2b7vb"/>
        </clipPath>
        <clipPath id="mcahlzsoyi">
            <use xlink:href="#nxgbb177ac"/>
        </clipPath>
        <clipPath id="8qgatoegaj">
            <use xlink:href="#e55r5c1kid"/>
        </clipPath>
        <clipPath id="3i3lgu45kk">
            <use xlink:href="#iv0veltfke"/>
        </clipPath>
        <clipPath id="y043w238tl">
            <use xlink:href="#c140fn21lf"/>
        </clipPath>
    </defs>
    <!-- <path data-name="선 473" transform="translate(0 566.5)" style="opacity:.2;stroke:#fff;fill:none" d="M0 0h773"/> -->
    <!-- <path data-name="선 474" transform="translate(1531.028 566.5)" style="opacity:.2;stroke:#fff;fill:none" d="M0 0h776.5"/> -->
    <g data-name="그룹 631126">
        <g data-name="그룹 631124">
            <g data-name="그룹 631120">
                <path data-name="패스 1509273" d="M-7136.5-17326.625v-30.807" transform="translate(8660.507 17715.688)" style="opacity:.403;stroke:#fff;fill:none"/>
                <path data-name="패스 1509274" d="M0 0v66.162" transform="rotate(90 582.505 938.51)" style="opacity:.403;stroke:#fff;fill:none"/>
                <g data-name="사각형 462592" style="stroke:#f37331;fill:none">
                    <path style="stroke:none" d="M0 0h5.987v5.987H0z" transform="translate(1521.013 353.012)"/>
                    <path style="fill:none" d="M.5.5h4.987v4.987H.5z" transform="translate(1521.013 353.012)"/>
                </g>
            </g>
            <g data-name="그룹 631121">
                <path data-name="패스 1509273" d="M-7136.5-17326.625v-30.807" transform="translate(7916.494 17716.431)" style="opacity:.403;stroke:#fff;fill:none"/>
                <path data-name="패스 1509274" d="M0 66.162V0" transform="rotate(90 246.571 602.578)" style="opacity:.403;stroke:#fff;fill:none"/>
                <g data-name="사각형 462592" style="stroke:#f37331;fill:none">
                    <path style="stroke:none" d="M0 0h5.987v5.987H0z" transform="translate(777 353.013)"/>
                    <path style="fill:none" d="M.5.5h4.987v4.987H.5z" transform="translate(777 353.013)"/>
                </g>
            </g>
        </g>
        <g data-name="그룹 631125">
            <g data-name="그룹 631122">
                <path data-name="패스 1509273" d="M-7136.5-17357.432v31.021" transform="translate(8660.506 18087.437)" style="opacity:.403;stroke:#fff;fill:none"/>
                <path data-name="패스 1509274" d="M0 66.162V0" transform="rotate(-90 1109.94 -345.919)" style="opacity:.403;stroke:#fff;fill:none"/>
                <g data-name="사각형 462592" style="stroke:#f37331;fill:none">
                    <path style="stroke:none" d="M0 0h5.987v5.987H0z" transform="translate(1521.012 761.027)"/>
                    <path style="fill:none" d="M.5.5h4.987v4.987H.5z" transform="translate(1521.012 761.027)"/>
                </g>
            </g>
            <g data-name="그룹 631123">
                <path data-name="패스 1509273" d="M-7136.5-17357.432v31.021" transform="translate(7916.494 18087.437)" style="opacity:.403;stroke:#fff;fill:none"/>
                <path data-name="패스 1509274" d="M0 0v66.162" transform="rotate(-90 773.505 -9.484)" style="opacity:.403;stroke:#fff;fill:none"/>
                <g data-name="사각형 462592" style="stroke:#f37331;fill:none">
                    <path style="stroke:none" d="M0 0h5.987v5.987H0z" transform="translate(777 761.027)"/>
                    <path style="fill:none" d="M.5.5h4.987v4.987H.5z" transform="translate(777 761.027)"/>
                </g>
            </g>
        </g>
    </g>
    <g data-name="사각형 462593" transform="translate(841.014 415)" style="stroke-width:.5px;fill:rgba(255,255,255,.06);opacity:.77;stroke:#fff">
        <rect width="622" height="288" rx="1" style="stroke:none"/>
        <rect x=".25" y=".25" width="621.5" height="287.5" rx=".75" style="fill:none"/>
    </g>
    <path data-name="선 475" transform="translate(772.514 529.5)" style="opacity:.2;stroke:#fff;fill:none" d="M0 0v67"/>
    <!-- <path data-name="선 481" transform="translate(1152.014)" style="opacity:.15;stroke:#fff;fill:none" d="M0 0v353"/> -->
    <!-- <path data-name="선 488" transform="translate(1152.014 768)" style="opacity:.15;stroke:#fff;fill:none" d="M0 0v353"/> -->
    <path data-name="선 484" transform="translate(1049.014 353)" style="opacity:.15;stroke:#fff;fill:none" d="M206 0H0"/>
    <path data-name="선 489" transform="translate(1049.014 768)" style="opacity:.15;stroke:#fff;fill:none" d="M206 0H0"/>
    <path data-name="선 476" transform="translate(1531.514 529.5)" style="opacity:.2;stroke:#fff;fill:none" d="M0 0v67"/>
    <g data-name="그룹 631128">
        <g data-name="사각형 462594" style="opacity:.195;stroke:#fff;fill:none">
            <path style="stroke:none" d="M0 0h8v8H0z" transform="translate(893.014 462)"/>
            <path style="fill:none" d="M.5.5h7v7h-7z" transform="translate(893.014 462)"/>
        </g>
        <g data-name="사각형 462597" style="opacity:.195;stroke:#fff;fill:none">
            <path style="stroke:none" d="M0 0h8v8H0z" transform="translate(1403.014 462)"/>
            <path style="fill:none" d="M.5.5h7v7h-7z" transform="translate(1403.014 462)"/>
        </g>
        <g data-name="사각형 462595" style="opacity:.195;stroke:#fff;fill:none">
            <path style="stroke:none" d="M0 0h8v8H0z" transform="translate(893.014 648)"/>
            <path style="fill:none" d="M.5.5h7v7h-7z" transform="translate(893.014 648)"/>
        </g>
        <g data-name="사각형 462596" style="opacity:.195;stroke:#fff;fill:none">
            <path style="stroke:none" d="M0 0h8v8H0z" transform="translate(1403.014 648)"/>
            <path style="fill:none" d="M.5.5h7v7h-7z" transform="translate(1403.014 648)"/>
        </g>
    </g>
    <text data-name="Wait Coming soon contents page Page Working…" transform="translate(857.014 749.014)" style="opacity:.4;font-family:YDIYGO360;letter-spacing:.32em;font-size:5px;fill:#fff"><tspan x="0" y="0">WAIT </tspan><tspan x="0" y="8">COMING SOON CONTENTS PAGE</tspan><tspan x="0" y="16">PAGE WORKING…</tspan></text>
    <g data-name="hud">
        <path data-name="사각형 462302" transform="translate(1895.014 916)" style="opacity:.1;fill:#fff" d="M0 0h8v8H0z"/>
        <g data-name="그룹 630579" style="opacity:.2">
            <path data-name="선 355" transform="rotate(-45 2056.834 -1830.982)" style="stroke-width:.5px;stroke:#fff;fill:none" d="M0 0v5.322"/>
            <path data-name="선 356" transform="rotate(45 -157.82 2753.644)" style="stroke-width:.5px;stroke:#fff;fill:none" d="M0 0v5.322"/>
        </g>
        <g data-name="box" style="opacity:.6">
            <g data-name="사각형 462464" style="opacity:.2;stroke:#fff;fill:none">
                <path style="stroke:none" d="M0 0h40v40H0z" transform="translate(337.014 235)"/>
                <path style="fill:none" d="M.5.5h39v39H.5z" transform="translate(337.014 235)"/>
            </g>
            <g data-name="사각형 462468" style="fill:#fff;stroke:#fff">
                <path style="stroke:none" d="M0 0h2v2H0z" transform="translate(373.014 310)"/>
                <path style="fill:none" d="M.5.5h1v1h-1z" transform="translate(373.014 310)"/>
            </g>
            <g data-name="타원 5310" transform="translate(336.014 273)" style="fill:#fff;stroke:#fff">
                <circle cx="1.5" cy="1.5" r="1.5" style="stroke:none"/>
                <circle cx="1.5" cy="1.5" r="1" style="fill:none"/>
            </g>
            <path data-name="패스 1509136" d="m-17998.09-21911.91-36.41 36.41 36.41 36.41" transform="translate(18372.014 22150)" style="opacity:.3;stroke:#fff;fill:none"/>
            <g data-name="사각형 462465" style="opacity:.6;fill:#fff;stroke:#fff">
                <path style="stroke:none" d="M0 0h2v2H0z" transform="translate(339.014 237)"/>
                <path style="fill:none" d="M.5.5h1v1h-1z" transform="translate(339.014 237)"/>
            </g>
            <g data-name="사각형 462466" style="opacity:.6;fill:#fff;stroke:#fff">
                <path style="stroke:none" d="M0 0h2v2H0z" transform="translate(373.014 237)"/>
                <path style="fill:none" d="M.5.5h1v1h-1z" transform="translate(373.014 237)"/>
            </g>
            <g data-name="사각형 462467" style="opacity:.6;fill:#fff;stroke:#fff">
                <path style="stroke:none" d="M0 0h2v2H0z" transform="translate(373.014 271)"/>
                <path style="fill:none" d="M.5.5h1v1h-1z" transform="translate(373.014 271)"/>
            </g>
        </g>
        <g data-name="사각형 462469" style="opacity:.4;stroke-width:.5px;stroke:#fff;fill:none">
            <path style="stroke:none" d="M0 0h3v3H0z" transform="translate(757.014 999.939)"/>
            <path style="fill:none" d="M.25.25h2.5v2.5H.25z" transform="translate(757.014 999.939)"/>
        </g>
        <g data-name="사각형 462470" transform="rotate(45 -823.831 1418.064)" style="opacity:.4;stroke:#fff;fill:none">
            <path style="stroke:none" d="M0 0h1v2H0z"/>
            <rect x=".5" y=".5" height="1" style="fill:none"/>
        </g>
        <g data-name="사각형 462473" transform="rotate(135 171.607 656.454)" style="opacity:.4;stroke:#fff;fill:none">
            <path style="stroke:none" d="M0 0h1v2H0z"/>
            <rect x=".5" y=".5" height="1" style="fill:none"/>
        </g>
        <g data-name="사각형 462471" transform="rotate(-45 1591.441 -415.626)" style="opacity:.4;stroke:#fff;fill:none">
            <path id="ehpq0385za" style="stroke:none" d="M0 0h1v2H0z"/>
            <path d="M0 .5h1M.5 0v2m.5-.5H0m.5.5V0" style="clip-path:url(#4bvzmkxt4g);fill:none"/>
        </g>
        <g data-name="사각형 462472" transform="rotate(-135 586.003 345.985)" style="opacity:.4;stroke:#fff;fill:none">
            <path id="pv6jn2b7vb" style="stroke:none" d="M0 0h1v2H0z"/>
            <path d="M0 .5h1M.5 0v2m.5-.5H0m.5.5V0" style="clip-path:url(#9yydpe6qxh);fill:none"/>
        </g>
        <g style="opacity:.3">
            <g data-name="사각형 462474" style="fill:#fff;stroke:#fff">
                <path style="stroke:none" d="M0 0h2v2H0z" transform="translate(551.014 824)"/>
                <path style="fill:none" d="M.5.5h1v1h-1z" transform="translate(551.014 824)"/>
            </g>
            <g data-name="사각형 462477" style="fill:#fff;stroke:#fff">
                <path style="stroke:none" d="M0 0h2v2H0z" transform="translate(590.014 824)"/>
                <path style="fill:none" d="M.5.5h1v1h-1z" transform="translate(590.014 824)"/>
            </g>
            <g data-name="사각형 462478" style="fill:#fff;stroke:#fff">
                <path style="stroke:none" d="M0 0h2v2H0z" transform="translate(596.014 824)"/>
                <path style="fill:none" d="M.5.5h1v1h-1z" transform="translate(596.014 824)"/>
            </g>
            <g data-name="사각형 462475" style="fill:#fff;stroke:#fff">
                <path style="stroke:none" d="M0 0h2v2H0z" transform="translate(551.014 830)"/>
                <path style="fill:none" d="M.5.5h1v1h-1z" transform="translate(551.014 830)"/>
            </g>
            <g data-name="사각형 462476" style="fill:#fff;stroke:#fff">
                <path style="stroke:none" d="M0 0h2v2H0z" transform="translate(590.014 830)"/>
                <path style="fill:none" d="M.5.5h1v1h-1z" transform="translate(590.014 830)"/>
            </g>
            <path data-name="패스 1509137" d="m-17787-22030-38.43 38.43" transform="translate(18378.014 22861)" style="stroke:#fff;fill:none"/>
        </g>
        <g data-name="box" transform="translate(252.014 62)">
            <rect data-name="사각형 462479" width="18" height="7" rx="1" transform="translate(1742 931)" style="fill:#fff;opacity:.2"/>
            <path data-name="사각형 462480" transform="translate(1749 934)" style="opacity:.2" d="M0 0h4v1H0z"/>
        </g>
        <g data-name="box" transform="translate(210.014 77)">
            <rect data-name="사각형 462482" width="18" height="7" rx="1" transform="translate(1742 916)" style="fill:#fff;opacity:.2"/>
            <path data-name="사각형 462481" transform="translate(1749 918)" style="opacity:.2" d="M0 0h4v1H0z"/>
            <path data-name="사각형 462483" transform="translate(1749 920)" style="opacity:.2" d="M0 0h4v1H0z"/>
        </g>
        <path d="m7981 18528 2.667-2v4zm2.667.666v-1.332h2.667v1.332z" transform="translate(-5932.986 -17543.004)" style="opacity:.4;fill:#fff"/>
        <path data-name="arrow" d="m7981 18528 2.667-2v4zm2.667.666v-1.332h2.667v1.332z" transform="translate(-5932.986 -17588.004)" style="opacity:.4;fill:#fff"/>
        <g>
            <g data-name="2">
                <g data-name="그룹 631051" transform="translate(344.014 106)">
                    <g data-name="그룹 631050">
                        <g data-name="그룹 631049">
                            <g data-name="타원 5322" transform="translate(1469 546)" style="opacity:.143;stroke-width:.5px;stroke:#fff;fill:none">
                                <circle cx="26" cy="26" r="26" style="stroke:none"/>
                                <circle cx="26" cy="26" r="25.75" style="fill:none"/>
                            </g>
                            <circle data-name="타원 5323" cx="2" cy="2" r="2" transform="translate(1493 570)" style="opacity:.152;fill:#fff"/>
                        </g>
                    </g>
                    <g data-name="그룹 631048">
                        <g data-name="타원 5324" transform="translate(1489 627)" style="opacity:.143;stroke:#fff;fill:none">
                            <circle cx="6.5" cy="6.5" r="6.5" style="stroke:none"/>
                            <circle cx="6.5" cy="6.5" r="6" style="fill:none"/>
                        </g>
                        <g data-name="그룹 631047">
                            <path data-name="사각형 462528" transform="translate(1492.74 612)" style="opacity:.386;fill:#fff" d="M0 0h4v4H0z"/>
                        </g>
                        <g data-name="사각형 462529" transform="translate(1486 605)" style="opacity:.178;stroke-width:.5px;stroke:#fff;fill:none">
                            <rect width="18" height="38" rx="1" style="stroke:none"/>
                            <rect x=".25" y=".25" width="17.5" height="37.5" rx=".75" style="fill:none"/>
                        </g>
                    </g>
                    <circle data-name="타원 5325" cx="1" cy="1" r="1" transform="translate(1538 613)" style="opacity:.286;fill:#fff"/>
                </g>
                <g data-name="그룹 631053" transform="translate(344.014 106)">
                    <g data-name="그룹 631052">
                        <circle data-name="타원 5326" cx="2.5" cy="2.5" r="2.5" transform="translate(1331 569)" style="opacity:.293;fill:#fff"/>
                        <circle data-name="타원 5327" cx="1.5" cy="1.5" r="1.5" transform="translate(1313 552)" style="opacity:.46;fill:#fff"/>
                        <circle data-name="타원 5328" cx="1.5" cy="1.5" r="1.5" transform="translate(1313 588)" style="opacity:.46;fill:#fff"/>
                        <circle data-name="타원 5329" cx="1.5" cy="1.5" r="1.5" transform="translate(1351 552)" style="opacity:.46;fill:#fff"/>
                        <circle data-name="타원 5330" cx="1.5" cy="1.5" r="1.5" transform="translate(1351 588)" style="opacity:.46;fill:#fff"/>
                    </g>
                    <rect data-name="사각형 462530" width="3" height="2" rx=".5" transform="translate(1359 586)" style="opacity:.343;fill:#fff"/>
                    <rect data-name="사각형 462531" width="3" height="2" rx=".5" transform="translate(1359 589)" style="opacity:.343;fill:#fff"/>
                </g>
                <g data-name="그룹 631054">
                    <path data-name="사각형 462532" transform="translate(1719.014 543)" style="fill:#fff" d="M0 0h1v1H0z"/>
                    <text data-name="1" transform="translate(1724.967 543.793)" style="opacity:.178;font-family:YDIYGO360;letter-spacing:.32em;font-size:5px;fill:#fff"><tspan x="0" y="0">001</tspan></text>
                    <text data-name="5" transform="translate(1742.014 544)" style="font-size:6px;opacity:.4;font-family:YDIYGO360;letter-spacing:.32em;fill:#fff"><tspan x="0" y="0">005</tspan></text>
                </g>
                <g data-name="그룹 631055">
                    <path data-name="사각형 462532" transform="translate(1921.014 543)" style="fill:#fff" d="M0 0h1v1H0z"/>
                    <text data-name="1" transform="translate(1926.967 543.793)" style="opacity:.178;font-family:YDIYGO360;letter-spacing:.32em;font-size:5px;fill:#fff"><tspan x="0" y="0">001</tspan></text>
                    <text data-name="25" transform="translate(1944.014 544)" style="font-size:6px;opacity:.4;font-family:YDIYGO360;letter-spacing:.32em;fill:#fff"><tspan x="0" y="0">025</tspan></text>
                </g>
            </g>
            <g data-name="1">
                <g data-name="그룹 631045">
                    <path data-name="패스 1509271" d="m-12550.74-22182.59 1.323 1.246" transform="translate(14385.014 22898)" style="opacity:.152;stroke:#fff;fill:none"/>
                    <path data-name="패스 1509272" d="m-12550.74-22182.59 1.323 1.246" transform="translate(14392.754 22905)" style="opacity:.152;stroke:#fff;fill:none"/>
                </g>
                <path data-name="패스 1509271" d="m-12550.74-22181.344 1.323-1.246" transform="translate(14384.754 22905)" style="opacity:.152;stroke:#fff;fill:none"/>
                <path data-name="패스 1509272" d="m-12550.74-22181.344 1.323-1.246" transform="translate(14392.494 22898)" style="opacity:.152;stroke:#fff;fill:none"/>
            </g>
        </g>
        <g data-name="x_box">
            <g data-name="사각형 462469" style="opacity:.4;stroke-width:.5px;stroke:#fff;fill:none">
                <path style="stroke:none" d="M0 0h3v3H0z" transform="translate(1733.014 822.939)"/>
                <path style="fill:none" d="M.25.25h2.5v2.5H.25z" transform="translate(1733.014 822.939)"/>
            </g>
            <g data-name="사각형 462470" transform="rotate(45 -122.173 2507.7)" style="opacity:.4;stroke:#fff;fill:none">
                <path style="stroke:none" d="M0 0h1v2H0z"/>
                <rect x=".5" y=".5" height="1" style="fill:none"/>
            </g>
            <g data-name="사각형 462473" transform="rotate(135 696.265 770.09)" style="opacity:.4;stroke:#fff;fill:none">
                <path style="stroke:none" d="M0 0h1v2H0z"/>
                <rect x=".5" y=".5" height="1" style="fill:none"/>
            </g>
            <g data-name="사각형 462471" transform="rotate(-45 1865.783 -1682.262)" style="opacity:.4;stroke:#fff;fill:none">
                <path id="nxgbb177ac" style="stroke:none" d="M0 0h1v2H0z"/>
                <path d="M0 .5h1M.5 0v2m.5-.5H0m.5.5V0" style="clip-path:url(#mcahlzsoyi);fill:none"/>
            </g>
            <g data-name="사각형 462472" transform="rotate(-135 1037.345 55.349)" style="opacity:.4;stroke:#fff;fill:none">
                <path id="e55r5c1kid" style="stroke:none" d="M0 0h1v2H0z"/>
                <path d="M0 .5h1M.5 0v2m.5-.5H0m.5.5V0" style="clip-path:url(#8qgatoegaj);fill:none"/>
            </g>
        </g>
        <g data-name="x_box">
            <g data-name="사각형 462469" style="opacity:.4;stroke-width:.5px;stroke:#fff;fill:none">
                <path style="stroke:none" d="M0 0h3v3H0z" transform="translate(445.014 874.939)"/>
                <path style="fill:none" d="M.25.25h2.5v2.5H.25z" transform="translate(445.014 874.939)"/>
            </g>
            <g data-name="사각형 462470" transform="rotate(45 -828.943 978.947)" style="opacity:.4;stroke:#fff;fill:none">
                <path style="stroke:none" d="M0 0h1v2H0z"/>
                <rect x=".5" y=".5" height="1" style="fill:none"/>
            </g>
            <g data-name="사각형 462473" transform="rotate(135 41.495 529.337)" style="opacity:.4;stroke:#fff;fill:none">
                <path style="stroke:none" d="M0 0h1v2H0z"/>
                <rect x=".5" y=".5" height="1" style="fill:none"/>
            </g>
            <g data-name="사각형 462471" transform="rotate(-45 1284.553 -101.508)" style="opacity:.4;stroke:#fff;fill:none">
                <path id="iv0veltfke" style="stroke:none" d="M0 0h1v2H0z"/>
                <path d="M0 .5h1M.5 0v2m.5-.5H0m.5.5V0" style="clip-path:url(#3i3lgu45kk);fill:none"/>
            </g>
            <g data-name="사각형 462472" transform="rotate(-135 404.114 348.102)" style="opacity:.4;stroke:#fff;fill:none">
                <path id="c140fn21lf" style="stroke:none" d="M0 0h1v2H0z"/>
                <path d="M0 .5h1M.5 0v2m.5-.5H0m.5.5V0" style="clip-path:url(#y043w238tl);fill:none"/>
            </g>
        </g>
    </g>
    <text data-name="Korea" transform="translate(795.014 375)" style="font-size:8px;font-family:YDIYGO350;letter-spacing:.29em;opacity:.261;fill:#fff"><tspan x="0" y="0">Korea </tspan></text>
    <text data-name="1920 X 1080" transform="translate(686.014 550)" style="font-size:8px;font-family:YDIYGO350;letter-spacing:.29em;opacity:.261;fill:#fff"><tspan x="0" y="0">1920 X 1080</tspan></text>
    <text data-name="X1294 Y2984" transform="translate(686.014 588)" style="font-size:8px;font-family:YDIYGO350;letter-spacing:.29em;opacity:.261;fill:#fff"><tspan x="0" y="0">X1294 Y2984</tspan></text>
    <g data-name="box" transform="translate(610.014 296)" style="opacity:.3;stroke-width:.5px;stroke:#fff;fill:none">
        <rect width="18" height="18" rx="3" style="stroke:none"/>
        <rect x=".25" y=".25" width="17.5" height="17.5" rx="2.75" style="fill:none"/>
    </g>
    <g transform="translate(993.014 -112)" style="opacity:.698">
        <rect data-name="사각형 462236" width="20" height="8" rx="3" transform="translate(426 823)" style="opacity:.289;fill:#fff"/>
        <path data-name="사각형 462237" transform="translate(441 826)" style="fill:#fff" d="M0 0h2v2H0z"/>
    </g>
    <g data-name="btn" transform="translate(1017.014 -112)">
        <rect data-name="사각형 462236" width="20" height="8" rx="3" transform="translate(426 823)" style="fill:#f37331;opacity:.2"/>
        <path data-name="사각형 462237" transform="translate(441 826)" style="fill:#f37331" d="M0 0h2v2H0z"/>
    </g>
    <g data-name="그룹 631137">
        <g data-name="그룹 631135">
            <path data-name="패스 1509275" d="M-5571.847-15983.787v-6.281h6" transform="translate(6527.553 16513.068)" style="stroke:#f37331;fill:none"/>
            <path data-name="패스 1509276" d="M-5571.847-15990.068v6.281h6" transform="translate(6527.553 16578.787)" style="stroke:#f37331;fill:none"/>
        </g>
        <g data-name="그룹 631136">
            <path data-name="패스 1509275" d="M-5565.847-15983.787v-6.281h-6" transform="translate(6914.17 16513.068)" style="stroke:#f37331;fill:none"/>
            <path data-name="패스 1509276" d="M-5565.848-15990.068v6.281h-6" transform="translate(6914.171 16578.787)" style="stroke:#f37331;fill:none"/>
        </g>
    </g>
    <path data-name="사각형 462603" transform="translate(772.014 564)" style="opacity:.667;fill:#fff" d="M0 0h1v5H0z"/>
    <path data-name="사각형 462606" transform="translate(1531.014 564)" style="opacity:.667;fill:#fff" d="M0 0h1v5H0z"/>
</svg>
