<svg xmlns="http://www.w3.org/2000/svg" width="281.66" height="327.179" viewBox="0 0 281.66 327.179">
    <g data-name="그룹 631126">
        <g data-name="그룹 631124">
            <g data-name="그룹 631121">
                <path data-name="패스 1509273" d="M-7136.5-17338.02v-19.412" transform="translate(7137.859 17360.198)" style="opacity:.403;stroke-width:.5px;stroke:#fff;fill:none"/>
                <path data-name="패스 1509274" d="M0 24.524V0" transform="rotate(90 12.555 14.438)" style="opacity:.403;stroke-width:.5px;stroke:#fff;fill:none"/>
                <g data-name="사각형 462592" style="stroke:#f37331;stroke-width:.5px;fill:none">
                    <path style="stroke:none" d="M0 0h2.219v2.219H0z" transform="translate(.25 .774)"/>
                    <path style="fill:none" d="M.25.25h1.719v1.719H.25z" transform="translate(.25 .774)"/>
                </g>
            </g>
            <g data-name="그룹 631182">
                <path data-name="패스 1509273" d="M-7136.5-17338.02v-19.412" transform="translate(7416.384 17360.198)" style="opacity:.403;stroke-width:.5px;stroke:#fff;fill:none"/>
                <path data-name="패스 1509274" d="M0 0v24.524" transform="rotate(90 138.446 140.328)" style="opacity:.403;stroke-width:.5px;stroke:#fff;fill:none"/>
                <g data-name="사각형 462592" style="stroke:#f37331;stroke-width:.5px;fill:none">
                    <path style="stroke:none" d="M0 0h2.219v2.219H0z" transform="translate(278.774 .774)"/>
                    <path style="fill:none" d="M.25.25h1.719v1.719H.25z" transform="translate(278.774 .774)"/>
                </g>
            </g>
        </g>
        <g data-name="그룹 631183">
            <g data-name="그룹 631121">
                <path data-name="패스 1509273" d="M-7136.5-17357.432v19.412" transform="translate(7137.859 17663.206)" style="opacity:.403;stroke-width:.5px;stroke:#fff;fill:none"/>
                <path data-name="패스 1509274" d="M0 0v24.524" transform="rotate(-90 164.27 161.8)" style="opacity:.403;stroke-width:.5px;stroke:#fff;fill:none"/>
                <g data-name="사각형 462592" style="stroke:#f37331;stroke-width:.5px;fill:none">
                    <path style="stroke:none" d="M0 0h2.219v2.219H0z" transform="translate(.25 324.959)"/>
                    <path style="fill:none" d="M.25.25h1.719v1.719H.25z" transform="translate(.25 324.959)"/>
                </g>
            </g>
            <g data-name="그룹 631182">
                <path data-name="패스 1509273" d="M-7136.5-17357.432v19.412" transform="translate(7416.384 17663.206)" style="opacity:.403;stroke-width:.5px;stroke:#fff;fill:none"/>
                <path data-name="패스 1509274" d="M0 24.524V0" transform="rotate(-90 290.16 35.91)" style="opacity:.403;stroke-width:.5px;stroke:#fff;fill:none"/>
                <g data-name="사각형 462592" style="stroke:#f37331;stroke-width:.5px;fill:none">
                    <path style="stroke:none" d="M0 0h2.219v2.219H0z" transform="translate(278.774 324.959)"/>
                    <path style="fill:none" d="M.25.25h1.719v1.719H.25z" transform="translate(278.774 324.959)"/>
                </g>
            </g>
        </g>
    </g>
    <g data-name="사각형 462593" transform="translate(29.001 31.999)" style="fill:rgba(255,255,255,.06);stroke:rgba(255,255,255,.42);opacity:.77;stroke-width:.5px">
        <rect width="220" height="240" rx="1" style="stroke:none"/>
        <rect x=".25" y=".25" width="219.5" height="239.5" rx=".75" style="fill:none"/>
    </g>
    <g data-name="그룹 631128">
        <g data-name="사각형 462594" style="opacity:.5;stroke-width:.5px;stroke:#fff;fill:none">
            <path style="stroke:none" d="M0 0h3.082v3.365H0z" transform="translate(41.001 44.997)"/>
            <path style="fill:none" d="M.25.25h2.582v2.865H.25z" transform="translate(41.001 44.997)"/>
        </g>
        <g data-name="사각형 462597" style="opacity:.5;stroke-width:.5px;stroke:#fff;fill:none">
            <path style="stroke:none" d="M0 0h3.082v3.365H0z" transform="translate(233.919 44.997)"/>
            <path style="fill:none" d="M.25.25h2.582v2.865H.25z" transform="translate(233.919 44.997)"/>
        </g>
        <g data-name="사각형 462595" style="opacity:.5;stroke-width:.5px;stroke:#fff;fill:none">
            <path style="stroke:none" d="M0 0h3.082v3.365H0z" transform="translate(41.001 255.632)"/>
            <path style="fill:none" d="M.25.25h2.582v2.865H.25z" transform="translate(41.001 255.632)"/>
        </g>
        <g data-name="사각형 462596" style="opacity:.5;stroke-width:.5px;stroke:#fff;fill:none">
            <path style="stroke:none" d="M0 0h3.082v3.365H0z" transform="translate(233.919 255.632)"/>
            <path style="fill:none" d="M.25.25h2.582v2.865H.25z" transform="translate(233.919 255.632)"/>
        </g>
    </g>
    <text data-name="Wait Coming soon contents page Page Working…" transform="translate(32.896 310.996)" style="letter-spacing:.32em;opacity:.4;font-size:5px;font-family:YDIYGO360;fill:#fff"><tspan x="0" y="0">WAIT </tspan><tspan x="0" y="7">COMING SOON CONTENTS PAGE</tspan><tspan x="0" y="14">PAGE WORKING…</tspan></text>
    <text data-name="Korea" transform="translate(32.001 4)" style="letter-spacing:.29em;opacity:.426;font-size:5px;font-family:YDIYGO360;fill:#fff"><tspan x="0" y="0">Korea </tspan></text>
    <g style="opacity:.698">
        <rect data-name="사각형 462237" width="1.114" transform="translate(244.097 156.581)" style="fill:#fff"/>
    </g>
    <g data-name="btn" transform="translate(247.438 155.467)">
        <rect data-name="사각형 462237" width="1.114" transform="translate(5.568 1.114)" style="fill:#f37331"/>
    </g>
    <g data-name="그룹 631137">
        <g data-name="그룹 631135">
            <path data-name="패스 1509275" d="M-5571.847-15987.056v-3.012h3" transform="translate(5627.098 16124.064)" style="stroke:#f37331;stroke-width:.5px;fill:none"/>
            <path data-name="패스 1509276" d="M-5571.847-15990.067v3.012h3" transform="translate(5627.098 16157.053)" style="stroke:#f37331;stroke-width:.5px;fill:none"/>
        </g>
        <g data-name="그룹 631136">
            <path data-name="패스 1509275" d="M-5568.846-15987.067v-3h-3" transform="translate(5791.848 16124.064)" style="stroke:#f37331;stroke-width:.5px;fill:none"/>
            <path data-name="패스 1509276" d="M-5568.846-15990.067v3h-3" transform="translate(5791.848 16156.922)" style="stroke:#f37331;stroke-width:.5px;fill:none"/>
        </g>
    </g>
    <g data-name="그룹 631180">
        <path data-name="선 475" d="M.25 35.869h-.5V0h.5z" transform="translate(.25 139.058)" style="opacity:.2;fill:#fff"/>
        <path data-name="사각형 462603" transform="translate(0 157.054)" style="opacity:.667;fill:#fff" d="M0 0h.5v1.603H0z"/>
    </g>
    <path data-name="사각형 462610" transform="translate(280.547 99.996)" style="opacity:.667;fill:#fff" d="M0 0h1.114v1.114H0z"/>
    <g data-name="그룹 631181">
        <path data-name="선 475" d="M.25 35.869h-.5V0h.5z" transform="translate(278.5 139.058)" style="opacity:.2;fill:#fff"/>
        <path data-name="사각형 462603" transform="translate(278.25 157.054)" style="opacity:.667;fill:#fff" d="M0 0h.5v1.603H0z"/>
    </g>
    <g data-name="on" transform="translate(-221 -547)" style="opacity:.698">
        <rect data-name="사각형 462236" width="20" height="8" rx="3" transform="translate(426 823)" style="opacity:.289;fill:#fff"/>
        <path data-name="사각형 462237" transform="translate(441 826)" style="fill:#fff" d="M0 0h2v2H0z"/>
    </g>
    <g data-name="on" transform="translate(-197 -547)" style="opacity:.698">
        <rect data-name="사각형 462236" width="20" height="8" rx="3" transform="translate(426 823)" style="fill:#ff9300;opacity:.289"/>
        <path data-name="사각형 462237" transform="translate(441 826)" style="fill:#ff9300" d="M0 0h2v2H0z"/>
    </g>
</svg>
