<svg xmlns="http://www.w3.org/2000/svg" width="449" height="110" viewBox="0 0 449 110">
  <g id="그룹_634056" data-name="그룹 634056" transform="translate(-9015.5 18313)">
    <path id="패스_1510365" data-name="패스 1510365" d="M438.921,104H2.834a4.252,4.252,0,0,1-3-1.238l-2.582-2.568A4.253,4.253,0,0,1-4,97.179V2.821A4.253,4.253,0,0,1-2.747-.194L-.165-2.762A4.252,4.252,0,0,1,2.834-4H82.309a4.252,4.252,0,0,1,3,1.238l.527.524a4.252,4.252,0,0,0,3,1.238H351.166a4.252,4.252,0,0,0,3-1.238l.527-.524a4.252,4.252,0,0,1,3-1.238h79.475a4.252,4.252,0,0,1,3,1.238l2.582,2.568A4.253,4.253,0,0,1,444,2.821V97.18a4.253,4.253,0,0,1-1.253,3.015L438.922,104Z" transform="translate(9020 -18308)" fill="none" stroke="#f37331" stroke-width="1" opacity="0.2"/>
    <path id="패스_1510366" data-name="패스 1510366" d="M430,109.5v-1h13.715l3.679-3.66a3.775,3.775,0,0,0,1.105-2.66V90h1v12.18a4.787,4.787,0,0,1-1.4,3.37l-3.972,3.951Zm-422.167,0a4.721,4.721,0,0,1-3.352-1.384L1.9,105.548a4.784,4.784,0,0,1-1.4-3.37V90h1v12.179a3.775,3.775,0,0,0,1.105,2.66l2.582,2.569A3.728,3.728,0,0,0,7.834,108.5H20v1ZM448.5,20V7.821a3.776,3.776,0,0,0-1.105-2.66l-2.582-2.568A3.728,3.728,0,0,0,442.166,1.5H430V.5h12.166a4.72,4.72,0,0,1,3.352,1.383L448.1,4.451a4.785,4.785,0,0,1,1.4,3.37V20ZM.5,20V7.821a4.788,4.788,0,0,1,1.4-3.37L4.482,1.884A4.72,4.72,0,0,1,7.834.5H20v1H7.834A3.731,3.731,0,0,0,5.188,2.592L2.605,5.161A3.776,3.776,0,0,0,1.5,7.821V20Z" transform="translate(9015 -18313)" fill="#f37331"/>
    <g id="사각형_464177" data-name="사각형 464177" transform="translate(9037 -18313)" fill="#fff" stroke="#f37331" stroke-width="1">
      <rect width="2" height="2" stroke="none"/>
      <rect x="0.5" y="0.5" width="1" height="1" fill="none"/>
    </g>
    <g id="사각형_464179" data-name="사각형 464179" transform="translate(9037 -18205)" fill="#fff" stroke="#f37331" stroke-width="1">
      <rect width="2" height="2" stroke="none"/>
      <rect x="0.5" y="0.5" width="1" height="1" fill="none"/>
    </g>
    <g id="사각형_464178" data-name="사각형 464178" transform="translate(9441 -18313)" fill="#fff" stroke="#f37331" stroke-width="1">
      <rect width="2" height="2" stroke="none"/>
      <rect x="0.5" y="0.5" width="1" height="1" fill="none"/>
    </g>
    <g id="사각형_464180" data-name="사각형 464180" transform="translate(9441 -18205)" fill="#fff" stroke="#f37331" stroke-width="1">
      <rect width="2" height="2" stroke="none"/>
      <rect x="0.5" y="0.5" width="1" height="1" fill="none"/>
    </g>
    <path id="패스_1510367" data-name="패스 1510367" d="M-19862.844-11033h160" transform="translate(29023.344 -7171.001)" fill="none" stroke="#f37331" stroke-width="1" opacity="0.2"/>
    <g id="사각형_464181" data-name="사각형 464181" transform="translate(9157 -18205)" fill="#fff" stroke="#f37331" stroke-width="1">
      <rect width="2" height="2" stroke="none"/>
      <rect x="0.5" y="0.5" width="1" height="1" fill="none"/>
    </g>
    <g id="사각형_464182" data-name="사각형 464182" transform="translate(9322 -18205)" fill="#fff" stroke="#f37331" stroke-width="1">
      <rect width="2" height="2" stroke="none"/>
      <rect x="0.5" y="0.5" width="1" height="1" fill="none"/>
    </g>
    <path id="패스_1510368" data-name="패스 1510368" d="M93.334,4.5a4.724,4.724,0,0,1-3.352-1.383l-.526-.524A3.729,3.729,0,0,0,86.809,1.5H26V.5H86.809a4.721,4.721,0,0,1,3.353,1.383l.526.524A3.728,3.728,0,0,0,93.334,3.5H355.666a3.728,3.728,0,0,0,2.647-1.093l.527-.524A4.72,4.72,0,0,1,362.191.5H422v1H362.191a3.731,3.731,0,0,0-2.646,1.092l-.527.525A4.721,4.721,0,0,1,355.666,4.5Z" transform="translate(9016 -18313)" fill="#f37331" opacity="0.4"/>
  </g>
</svg>
