<svg xmlns="http://www.w3.org/2000/svg" width="480" height="108" viewBox="0 0 480 108">
    <path data-name="사각형 462781" style="fill:none" d="M0 0h480v108H0z"/>
    <g data-name="그룹 631178">
        <g data-name="그룹 631173">
            <path data-name="패스 1509364" d="M51.8 69.4a.986.986 0 0 0 .1 0c10.624-.518 19.264-4.378 24.227-10.734 4.9 6.128 13.359 9.861 23.745 10.372a2.109 2.109 0 0 0 1.525-.568 2.084 2.084 0 0 0 .639-1.49v-6.537a2.062 2.062 0 0 0-1.946-2.058c-11.467-.655-17.875-6.145-18.108-15.479h16.623a2.062 2.062 0 0 0 2.058-2.062v-6.71a2.059 2.059 0 0 0-2.058-2.06H53.153a2.057 2.057 0 0 0-2.055 2.06v6.71a2.06 2.06 0 0 0 2.055 2.062h16.991c-.235 9.45-6.767 15.007-18.463 15.659a2.06 2.06 0 0 0-1.946 2.06v6.715a2.045 2.045 0 0 0 .64 1.492 2.077 2.077 0 0 0 1.425.568" transform="translate(38.594 -20.101)" style="fill:#fff"/>
            <path data-name="패스 1509365" d="M153.234 66.1h.1c10.605-.511 19.244-4.408 24.236-10.821 4.925 6.182 13.374 9.948 23.741 10.458a2.064 2.064 0 0 0 1.525-.567 2.087 2.087 0 0 0 .64-1.49v-6.538a2.059 2.059 0 0 0-1.946-2.057c-11.433-.655-17.836-6.145-18.1-15.484h16.626a2.059 2.059 0 0 0 2.06-2.058v-6.712a2.064 2.064 0 0 0-2.06-2.06H154.6a2.06 2.06 0 0 0-2.058 2.06v6.711A2.056 2.056 0 0 0 154.6 39.6h16.98c-.27 9.457-6.8 15.01-18.46 15.66a2.065 2.065 0 0 0-1.939 2.06v6.716a2.051 2.051 0 0 0 .635 1.492 2.082 2.082 0 0 0 1.418.568" transform="translate(107.189 -22.334)" style="fill:#fff"/>
            <path data-name="패스 1509366" d="M267.127 59.3c0-11.6-8.607-20.027-20.476-20.027s-20.469 8.421-20.469 20.027a13.949 13.949 0 0 0 1.946 7.449 2.068 2.068 0 0 0 1.748.962h7.524a2.062 2.062 0 0 0 1.728-3.183 9.039 9.039 0 0 1-1.391-5.228c0-5.414 3.671-9.187 8.917-9.187s8.921 3.773 8.921 9.187-3.661 9.187-8.921 9.187h-56.996V56.848a2.06 2.06 0 0 0-2.058-2.062h-7.437a2.063 2.063 0 0 0-2.062 2.062v11.636h-34.084a2.061 2.061 0 0 0-2.063 2.062v6.716a2.06 2.06 0 0 0 2.063 2.058h102.634c11.869 0 20.476-8.423 20.476-20.024" transform="translate(100.95 -15.235)" style="fill:#fff"/>
            <path data-name="패스 1509367" d="M241.143 65.74h-33.024a2.061 2.061 0 0 0-2.062 2.058v6.713a2.063 2.063 0 0 0 2.062 2.062h27.607v22.979a2.054 2.054 0 0 0 2.058 2.055h7.441a2.058 2.058 0 0 0 2.062-2.055V71.876c0-3.785-2.355-6.136-6.143-6.136" transform="translate(144.295 2.663)" style="fill:#fff"/>
            <path data-name="패스 1509368" d="M285.7 93.576h-29.992v-4.8h28.817A1.776 1.776 0 0 0 286.3 87V71a4.9 4.9 0 0 0-5.278-5.283h-33.483a1.77 1.77 0 0 0-1.772 1.77v5.776a1.774 1.774 0 0 0 1.772 1.775h28.813v4.494h-28.813a1.77 1.77 0 0 0-1.772 1.772v16.309a4.9 4.9 0 0 0 5.282 5.282H285.7a1.772 1.772 0 0 0 1.765-1.772v-5.774a1.776 1.776 0 0 0-1.765-1.773" transform="translate(171.145 2.65)" style="fill:#fff"/>
            <path data-name="패스 1509369" d="M14.31 69.29a32.433 32.433 0 0 0 9.36-1.708 20.568 20.568 0 0 0 4.73 1.884A20.433 20.433 0 0 0 53.319 54.83a20.611 20.611 0 0 0 .639-5.02c8.6-8.17 8.448-13.252 6.777-16.091-1.762-2.99-6.46-5.665-18.849-1.435q-2.585.89-5.28 2.065a3.3 3.3 0 0 0 .359-.8l-.025-1.919a3.335 3.335 0 0 0-3.14-2.375h-.287A20.368 20.368 0 0 0 13.77 44.548a19.732 19.732 0 0 0-.647 5.037C4.534 57.75 4.682 62.829 6.346 65.67c.972 1.651 3.144 3.621 7.963 3.621m40.619-32.16c-.035.533-.511 2.1-2.568 4.628a20.443 20.443 0 0 0-2.722-4.633c3.208-.567 4.811-.23 5.29.005m-21.765-1.188c-1.951.964-3.916 2.02-5.845 3.153s-3.8 2.337-5.605 3.585a13.734 13.734 0 0 1 11.45-6.738m-14.42 17.541A75.838 75.838 0 0 1 30.7 44.863a77.616 77.616 0 0 1 11.691-5.633A13.722 13.722 0 0 1 30.083 63a13.846 13.846 0 0 1-4.631-2.231 3.5 3.5 0 0 1-.5-.36 9.076 9.076 0 0 1-.486-.429 48.054 48.054 0 0 1-4.766-5.207l-4.613 4.246L17 61.684l.007-.042c.151.206.278.419.429.615-3.213.572-4.817.23-5.287-.008.035-.811 1.1-3.82 6.591-8.765" transform="translate(8.651 -22.007)" style="fill:#fff"/>
            <path data-name="패스 1509370" d="M113.145 69.777c11.976 0 20.657-8.072 20.657-19.2a12.837 12.837 0 0 0-1.839-6.607 2.053 2.053 0 0 0-1.755-.989h-7.353a2.058 2.058 0 0 0-1.78 3.094 8.322 8.322 0 0 1 1.177 4.5c0 4.933-3.738 8.378-9.107 8.378-5.352 0-9.1-3.445-9.1-8.378s3.746-8.371 9.1-8.371h16.789a2.059 2.059 0 0 0 2.058-2.06v-6.716a2.06 2.06 0 0 0-2.058-2.06h-16.789c-11.973 0-20.659 8.076-20.659 19.206s8.686 19.2 20.659 19.2" transform="translate(67.501 -20.578)" style="fill:#fff"/>
            <path data-name="패스 1509371" d="M216.152 26.711h-6.713a2.055 2.055 0 0 0-2.058 2.06v30.273a17.96 17.96 0 0 1-17.938 17.937h-3.23l-.022-.005H2.058A2.062 2.062 0 0 0 0 79.038v6.71a2.06 2.06 0 0 0 2.058 2.06H32.2v22.439a2.065 2.065 0 0 0 2.062 2.062h7.448a2.061 2.061 0 0 0 2.055-2.062v-22.44h60.1v23.344a2.06 2.06 0 0 0 2.058 2.058h7.444a2.055 2.055 0 0 0 2.058-2.058V87.809H164.3c.013 0 .025.008.039.008h25.1a28.609 28.609 0 0 0 17.942-6.317v4.32a2.056 2.056 0 0 0 2.058 2.058h6.713a2.059 2.059 0 0 0 2.058-2.058V28.771a2.058 2.058 0 0 0-2.058-2.06" transform="translate(4.965 -23.727)" style="fill:#fff"/>
            <path data-name="패스 1509372" d="M316.679 76.9h-30.647v-7.83h13.22a1.858 1.858 0 0 0 1.859-1.862V61.15a1.861 1.861 0 0 0-1.859-1.861H271.04V45.974h28.212a1.859 1.859 0 0 0 1.859-1.859V38.05a1.857 1.857 0 0 0-1.859-1.857h-36.784a1.861 1.861 0 0 0-1.861 1.857v25.478a5.145 5.145 0 0 0 5.546 5.541h9.44V76.9h-32.844c-4.554 0-7.382-1.765-7.382-10.551v-.206h10.647a2.062 2.062 0 0 0 2.06-2.062v-6.71a2.065 2.065 0 0 0-2.06-2.065h-10.648v-5.222h10.647a2.058 2.058 0 0 0 2.06-2.058v-6.8a2.059 2.059 0 0 0-2.06-2.058h-10.647V28.974a2.058 2.058 0 0 0-2.035-2.058l-7.439-.094a1.979 1.979 0 0 0-1.473.6 2.064 2.064 0 0 0-.608 1.465v37.737c0 13.614 6.686 21.115 18.845 21.115h74.023a2.062 2.062 0 0 0 2.055-2.06v-6.715a2.06 2.06 0 0 0-2.055-2.06" transform="translate(156.299 -23.653)" style="fill:#fff"/>
        </g>
    </g>
</svg>
