<svg xmlns="http://www.w3.org/2000/svg" width="330" height="66" viewBox="0 0 330 66">
    <path data-name="사각형 462071" style="fill:none" d="M0 0h330v66H0z"/>
    <path data-name="사각형 461899" style="fill:none" d="M0 0h209v66H0z"/>
    <g data-name="그룹 629990">
        <path data-name="패스 1505403" d="M22.894 28.337c-.769-7 6.567-12.62 16.388-12.542S57.69 21.607 58.46 28.6 51.9 41.216 42.074 41.138s-18.41-5.806-19.18-12.8m37.393 2.171c-.887-8.682-10.77-15.792-22.073-15.887S18.462 21.492 19.35 30.17s10.77 15.8 22.074 15.89 19.753-6.87 18.862-15.552" transform="translate(1.806 4.918)" style="fill:#fff"/>
        <path data-name="패스 1505404" d="M43.136 46.6c-5.567 5.825-14.507 6.3-19.962 1.08s-5.363-14.17.209-19.986 14.509-6.3 19.961-1.08 5.362 14.174-.208 19.986m-20.63-19.086c-6.472 6.758-6.577 17.162-.237 23.234s16.731 5.506 23.2-1.257 6.582-17.164.239-23.234-16.728-5.506-23.2 1.257" transform="translate(1.891 4.545)" style="fill:#fff"/>
        <path data-name="패스 1505405" d="M22.216 4.63c11.582-4.337 23.032.052 25.577 9.8s-4.777 21.192-16.358 25.527S8.4 39.91 5.858 30.155 10.637 8.975 22.216 4.63M11.461 8.361C-.554 17.872-3.611 31.659 4.628 39.145s24.662 5.847 36.678-3.665S56.381 12.188 48.138 4.7 23.474-1.154 11.461 8.361" transform="translate(2.773 5.65)" style="fill:#fff"/>
    </g>
    <path data-name="패스 1507963" d="M20.562-9.108V12.77h-3.427V1.231H4.168V12.77H.741V-9.108h3.427v7.34h12.967v-7.34zm14.48 13.966h-5.426c-1.771 0-2.628.743-2.628 2.228v.543c0 1.485.857 2.2 2.628 2.2h5.427c1.771 0 2.685-.714 2.685-2.2v-.543c-.001-1.486-.915-2.228-2.686-2.228zm-6.254 7.912a5.149 5.149 0 0 1-3.8-1.342 4.423 4.423 0 0 1-1.428-3.456V6.8a4.526 4.526 0 0 1 1.428-3.484 5.164 5.164 0 0 1 3.8-1.371h8.939v-.086c0-1.742-.971-2.628-2.885-2.628H24.9v-2.912h9.882a6.606 6.606 0 0 1 4.718 1.57 5.769 5.769 0 0 1 1.657 4.4v5.8a4.395 4.395 0 0 1-1.516 3.511 5.661 5.661 0 0 1-3.856 1.171zM51.179-3.681h3.37a6.815 6.815 0 0 1 5.027 1.856 7.177 7.177 0 0 1 1.824 5.17v9.425h-3.424V3.516a4.707 4.707 0 0 0-.8-3 3.587 3.587 0 0 0-2.884-1.227h-2.913A3.567 3.567 0 0 0 48.523.517a4.73 4.73 0 0 0-.743 3v9.253h-3.427V3.345a7.057 7.057 0 0 1 1.828-5.169 6.7 6.7 0 0 1 4.998-1.857zM77.2 10.57a5.647 5.647 0 0 1-4.541 2.2h-2.116A5.9 5.9 0 0 1 66 10.97a6.559 6.559 0 0 1-1.6-4.77v-9.881h3.4v9.91a3.752 3.752 0 0 0 .771 2.628 2.972 2.972 0 0 0 2.313.942h1.485a3.077 3.077 0 0 0 2.342-.942 3.751 3.751 0 0 0 .8-2.628v-9.91h3.37v9.91a3.752 3.752 0 0 0 .771 2.628 2.972 2.972 0 0 0 2.313.942h1.485a3.077 3.077 0 0 0 2.342-.942 3.751 3.751 0 0 0 .8-2.628v-9.91h3.4V6.2a6.581 6.581 0 0 1-1.657 4.77 6 6 0 0 1-4.57 1.8h-2.083a5.541 5.541 0 0 1-4.482-2.2zM100.046-.711A3.567 3.567 0 0 0 97.19.517a4.73 4.73 0 0 0-.743 3v9.253H93.02V-9.165h3.427v6.483a5.951 5.951 0 0 1 3.4-1h3.37a6.815 6.815 0 0 1 5.027 1.856 7.177 7.177 0 0 1 1.828 5.169v9.427h-3.427V3.516a4.708 4.708 0 0 0-.8-3 3.587 3.587 0 0 0-2.885-1.228zm24.334 5.569h-5.427c-1.771 0-2.628.743-2.628 2.228v.543c0 1.485.857 2.2 2.628 2.2h5.427c1.771 0 2.685-.714 2.685-2.2v-.543c0-1.486-.914-2.228-2.685-2.228zm-6.255 7.911a5.149 5.149 0 0 1-3.8-1.342 4.423 4.423 0 0 1-1.425-3.456V6.8a4.526 4.526 0 0 1 1.428-3.484 5.164 5.164 0 0 1 3.8-1.371h8.939v-.086c0-1.742-.971-2.628-2.885-2.628h-9.939v-2.912h9.882a6.606 6.606 0 0 1 4.712 1.571 5.769 5.769 0 0 1 1.657 4.4v5.8a4.395 4.395 0 0 1-1.514 3.513 5.661 5.661 0 0 1-3.856 1.171zm36.815-10.71c2.171 0 3.256-.8 3.256-2.456v-3.284c0-1.628-1.085-2.456-3.256-2.456h-9.368v8.2zm6.683-2.313a4.875 4.875 0 0 1-1.685 3.854 7.128 7.128 0 0 1-4.8 1.4h-9.568v7.77h-3.427V-9.108h12.967a7.162 7.162 0 0 1 4.827 1.428 4.957 4.957 0 0 1 1.685 3.856zm9.939-.457a3.567 3.567 0 0 0-2.856 1.228 4.73 4.73 0 0 0-.743 3v9.253h-3.427V-9.165h3.427v6.483a5.951 5.951 0 0 1 3.4-1h3.37a6.815 6.815 0 0 1 5.027 1.856 7.177 7.177 0 0 1 1.828 5.169v9.427h-3.427V3.516a4.707 4.707 0 0 0-.8-3 3.587 3.587 0 0 0-2.885-1.228zM195.9 4.858h-5.427c-1.771 0-2.628.743-2.628 2.228v.543c0 1.485.857 2.2 2.628 2.2h5.427c1.771 0 2.685-.714 2.685-2.2v-.543c-.005-1.486-.919-2.228-2.685-2.228zm-6.255 7.911a5.149 5.149 0 0 1-3.8-1.342 4.424 4.424 0 0 1-1.428-3.456V6.8a4.526 4.526 0 0 1 1.428-3.484 5.164 5.164 0 0 1 3.8-1.371h8.939v-.086c0-1.742-.971-2.628-2.885-2.628h-9.939v-2.912h9.882a6.606 6.606 0 0 1 4.712 1.571 5.769 5.769 0 0 1 1.657 4.4v5.8a4.394 4.394 0 0 1-1.514 3.513 5.66 5.66 0 0 1-3.856 1.171zm26.647-9.682a7.518 7.518 0 0 1 4.056.857 3.815 3.815 0 0 1 1.628 3.4v1.227a3.733 3.733 0 0 1-1.628 3.37 7.6 7.6 0 0 1-4.084.828h-10.91V9.8h10.91c1.485 0 2.256-.514 2.256-1.542V7.6c0-1.028-.771-1.571-2.256-1.571H210.6a7.436 7.436 0 0 1-4.027-.828 3.714 3.714 0 0 1-1.6-3.37V.574a3.764 3.764 0 0 1 1.6-3.4 7.406 7.406 0 0 1 4.027-.857h10.453v2.97h-10.4c-1.485 0-2.228.543-2.228 1.571v.685c0 1.028.714 1.542 2.2 1.542zM236.08 9.8a3.2 3.2 0 0 0 2.685-1.114 4.653 4.653 0 0 0 .714-2.77V3.23a4.75 4.75 0 0 0-.714-2.8 3.213 3.213 0 0 0-2.685-1.141h-4.57a3.155 3.155 0 0 0-2.656 1.142 4.761 4.761 0 0 0-.685 2.8v2.684a4.662 4.662 0 0 0 .685 2.77 3.139 3.139 0 0 0 2.657 1.115zm.257 2.97h-5.055a6.4 6.4 0 0 1-4.8-1.771 6.532 6.532 0 0 1-1.742-4.912V3.03a6.6 6.6 0 0 1 1.742-4.941 6.632 6.632 0 0 1 4.8-1.771h5.055a6.751 6.751 0 0 1 4.827 1.771 6.715 6.715 0 0 1 1.742 4.941v3.056A6.645 6.645 0 0 1 241.164 11a6.515 6.515 0 0 1-4.827 1.77zm9.539-11.31a4.873 4.873 0 0 1 1.571-3.827 6.517 6.517 0 0 1 4.484-1.314h6.34v2.97h-6.111c-1.885 0-2.827.885-2.827 2.6V12.77h-3.456z" transform="translate(71.514 30.772)" style="fill:#fff"/>
</svg>
