<svg xmlns="http://www.w3.org/2000/svg" xmlns:xlink="http://www.w3.org/1999/xlink" width="1920" height="948" viewBox="0 0 1920 948">
  <defs>
    <clipPath id="clip-path">
      <rect id="bg" width="1920" height="948" transform="translate(-0.001 5549)" fill="#fff" stroke="#707070" stroke-width="1"/>
    </clipPath>
    <radialGradient id="radial-gradient" cx="0.5" cy="0" r="0.82" gradientTransform="translate(0.5 -0.5) rotate(90) scale(1 0.848)" gradientUnits="objectBoundingBox">
      <stop offset="0" stop-color="#fff" stop-opacity="0"/>
      <stop offset="0.626" stop-color="#fff" stop-opacity="0"/>
      <stop offset="1" stop-color="#fff"/>
    </radialGradient>
  </defs>
  <g id="planet1_line" transform="translate(0.001 -5549)" clip-path="url(#clip-path)">
    <path id="planet1_line-2" data-name="planet1_line" d="M219.27.69c-14.864,0-29.718.433-44.15,1.288C161.056,2.81,147.223,4.052,134,5.67c-12.976,1.588-25.492,3.553-37.2,5.841-11.591,2.265-22.489,4.867-32.392,7.732a232.628,232.628,0,0,0-26.7,9.36,118.561,118.561,0,0,0-20.1,10.711A49.472,49.472,0,0,0,5.018,51.05,21.383,21.383,0,0,0,.69,63.437,21.383,21.383,0,0,0,5.018,75.823a49.473,49.473,0,0,0,12.6,11.737,118.56,118.56,0,0,0,20.1,10.711,232.629,232.629,0,0,0,26.7,9.36c9.9,2.865,20.8,5.466,32.392,7.732,11.706,2.288,24.221,4.253,37.2,5.841,13.219,1.618,27.052,2.86,41.116,3.692,14.432.854,29.286,1.288,44.15,1.288s29.718-.433,44.15-1.288c14.064-.833,27.9-2.075,41.116-3.692,12.976-1.588,25.491-3.553,37.2-5.841,11.591-2.265,22.489-4.867,32.392-7.732a232.633,232.633,0,0,0,26.7-9.36,118.559,118.559,0,0,0,20.1-10.711,49.472,49.472,0,0,0,12.6-11.737,21.383,21.383,0,0,0,4.328-12.387,21.383,21.383,0,0,0-4.328-12.387,49.472,49.472,0,0,0-12.6-11.737,118.56,118.56,0,0,0-20.1-10.711,232.631,232.631,0,0,0-26.7-9.36c-9.9-2.865-20.8-5.466-32.392-7.732-11.706-2.288-24.221-4.253-37.2-5.841-13.219-1.618-27.052-2.86-41.116-3.692C248.988,1.123,234.134.69,219.27.69m0-.69c121.1,0,219.27,28.4,219.27,63.437s-98.171,64.126-219.27,64.126S0,98.472,0,63.437,98.171,0,219.27,0Z" transform="matrix(0.966, -0.259, 0.259, 0.966, 734.918, 5852.969)" opacity="0.2" fill="url(#radial-gradient)"/>
  </g>
</svg>
