<svg xmlns="http://www.w3.org/2000/svg" xmlns:xlink="http://www.w3.org/1999/xlink" width="1920" height="948" viewBox="0 0 1920 948">
  <defs>
    <clipPath id="clip-path">
      <rect id="bg" width="1920" height="948" transform="translate(-0.001 5549)" fill="#fff" stroke="#707070" stroke-width="1"/>
    </clipPath>
    <radialGradient id="radial-gradient" cx="0.5" cy="0" r="0.489" gradientTransform="translate(0.5 -0.5) rotate(90) scale(1 0.465)" gradientUnits="objectBoundingBox">
      <stop offset="0" stop-color="#fff" stop-opacity="0"/>
      <stop offset="1" stop-color="#fff"/>
    </radialGradient>
  </defs>
  <g id="planet5_line" transform="translate(0.001 -5549)" clip-path="url(#clip-path)">
    <path id="line_05" d="M827,1C770.91,1,714.856,2.776,660.395,6.28,607.319,9.695,555.113,14.79,505.226,21.423,456.248,27.936,409.01,36,364.824,45.382c-43.76,9.295-84.908,19.968-122.3,31.724s-71.317,24.683-100.862,38.432c-14.819,6.9-28.73,14.095-41.345,21.4A364.736,364.736,0,0,0,65.586,159.6a242.79,242.79,0,0,0-27.7,23.788A158.727,158.727,0,0,0,17.64,208.146,108.068,108.068,0,0,0,5.221,233.724a83.892,83.892,0,0,0,0,52.552A108.069,108.069,0,0,0,17.64,311.854a158.727,158.727,0,0,0,20.251,24.759,242.794,242.794,0,0,0,27.7,23.788,364.736,364.736,0,0,0,34.729,22.665c12.615,7.3,26.526,14.5,41.345,21.4,29.545,13.749,63.48,26.679,100.862,38.432s78.542,22.43,122.3,31.724c44.186,9.385,91.424,17.446,140.4,23.959,49.887,6.634,102.093,11.729,155.169,15.143C714.856,517.224,770.91,519,827,519s112.144-1.776,166.605-5.28c53.076-3.415,105.282-8.509,155.169-15.143,48.978-6.513,96.216-14.574,140.4-23.959,43.76-9.295,84.908-19.968,122.3-31.724s71.317-24.683,100.862-38.432c14.819-6.9,28.73-14.095,41.345-21.4a364.736,364.736,0,0,0,34.729-22.665,242.794,242.794,0,0,0,27.7-23.788,158.727,158.727,0,0,0,20.251-24.759,108.069,108.069,0,0,0,12.419-25.577,83.892,83.892,0,0,0,0-52.552,108.068,108.068,0,0,0-12.419-25.578,158.727,158.727,0,0,0-20.251-24.759,242.79,242.79,0,0,0-27.7-23.788,364.736,364.736,0,0,0-34.729-22.665c-12.615-7.3-26.526-14.5-41.345-21.4-29.545-13.749-63.48-26.679-100.862-38.432s-78.542-22.43-122.3-31.724c-44.186-9.385-91.424-17.446-140.4-23.959C1098.887,14.79,1046.681,9.695,993.605,6.28,939.144,2.776,883.09,1,827,1m0-1c456.739,0,827,116.406,827,260S1283.739,524,827,524,0,403.594,0,260,370.26,0,827,0Z" transform="matrix(0.966, -0.259, 0.259, 0.966, 121.275, 5916.178)" opacity="0.12" fill="url(#radial-gradient)"/>
  </g>
</svg>
