<svg xmlns="http://www.w3.org/2000/svg" xmlns:xlink="http://www.w3.org/1999/xlink" width="1920" height="948" viewBox="0 0 1920 948">
  <defs>
    <clipPath id="clip-path">
      <rect id="bg" width="1920" height="948" transform="translate(-0.001 5549)" fill="#fff" stroke="#707070" stroke-width="1"/>
    </clipPath>
    <radialGradient id="radial-gradient" cx="0.5" cy="0" r="0.584" gradientTransform="translate(0.5 -0.5) rotate(90) scale(1 0.626)" gradientUnits="objectBoundingBox">
      <stop offset="0" stop-color="#fff" stop-opacity="0"/>
      <stop offset="0.468" stop-color="#fff" stop-opacity="0"/>
      <stop offset="1" stop-color="#fff"/>
    </radialGradient>
  </defs>
  <g id="planet3_line" transform="translate(0.001 -5549)" clip-path="url(#clip-path)">
    <path id="line_03" d="M436,1c-29.562,0-59.1.891-87.808,2.649-27.972,1.713-55.486,4.27-81.777,7.6-25.811,3.268-50.7,7.312-73.988,12.02-23.057,4.662-44.737,10.016-64.438,15.913a452.66,452.66,0,0,0-53.121,19.27C59.181,65.4,45.714,72.825,34.841,80.52c-11.032,7.807-19.5,15.964-25.157,24.244A52.674,52.674,0,0,0,3.2,117.478a39.671,39.671,0,0,0,0,26.043,52.674,52.674,0,0,0,6.485,12.714c5.661,8.281,14.125,16.437,25.157,24.244,10.873,7.694,24.34,15.12,40.026,22.069a452.663,452.663,0,0,0,53.121,19.27c19.7,5.9,41.381,11.251,64.438,15.913,23.284,4.708,48.178,8.753,73.988,12.02,26.291,3.328,53.8,5.885,81.777,7.6C376.9,259.109,406.438,260,436,260s59.1-.891,87.808-2.649c27.972-1.713,55.486-4.27,81.777-7.6,25.811-3.268,50.7-7.312,73.988-12.02,23.057-4.662,44.737-10.016,64.438-15.913a452.663,452.663,0,0,0,53.121-19.27c15.686-6.95,29.153-14.375,40.026-22.069,11.032-7.807,19.5-15.964,25.157-24.244a52.672,52.672,0,0,0,6.485-12.714,39.671,39.671,0,0,0,0-26.043,52.672,52.672,0,0,0-6.485-12.714c-5.661-8.281-14.125-16.437-25.157-24.244-10.873-7.694-24.34-15.12-40.026-22.069a452.66,452.66,0,0,0-53.121-19.27c-19.7-5.9-41.381-11.251-64.438-15.913-23.284-4.708-48.178-8.753-73.988-12.02-26.291-3.328-53.8-5.885-81.777-7.6C495.1,1.891,465.562,1,436,1m0-1C676.8,0,872,58.427,872,130.5S676.8,263,436,263,0,202.573,0,130.5,195.2,0,436,0Z" transform="matrix(0.966, -0.259, 0.259, 0.966, 512.41, 5865.207)" opacity="0.2" fill="url(#radial-gradient)"/>
  </g>
</svg>
