<svg xmlns="http://www.w3.org/2000/svg" xmlns:xlink="http://www.w3.org/1999/xlink" width="1920" height="948" viewBox="0 0 1920 948">
  <defs>
    <clipPath id="clip-path">
      <rect id="bg" width="1920" height="948" transform="translate(-0.001 5549)" fill="#fff" stroke="#707070" stroke-width="1"/>
    </clipPath>
    <radialGradient id="radial-gradient" cx="0.5" cy="0" r="0.489" gradientTransform="translate(0.5 -0.5) rotate(90) scale(1 0.465)" gradientUnits="objectBoundingBox">
      <stop offset="0" stop-color="#fff" stop-opacity="0"/>
      <stop offset="1" stop-color="#fff"/>
    </radialGradient>
  </defs>
  <g id="planet6_line" transform="translate(0.001 -5549)" clip-path="url(#clip-path)">
    <path id="line_06" d="M1144,1c-39.012,0-78.354.636-116.935,1.892C989.043,4.129,950.838,6,913.509,8.444c-73.428,4.814-145.654,12-214.672,21.348C631.077,38.974,565.723,50.339,504.59,63.57c-60.546,13.1-117.478,28.153-169.215,44.728-25.77,8.256-50.593,17.006-73.779,26.007-23.239,9.021-45.374,18.5-65.79,28.186-20.51,9.726-39.762,19.879-57.223,30.176A504.121,504.121,0,0,0,90.5,224.639a338.161,338.161,0,0,0-38.355,33.572,223.358,223.358,0,0,0-28.065,34.965,167.326,167.326,0,0,0-10,17.94A142.553,142.553,0,0,0,6.86,329.33,127.027,127.027,0,0,0,2.476,347.8a119.219,119.219,0,0,0,0,37.408A127.022,127.022,0,0,0,6.86,403.67a142.569,142.569,0,0,0,7.225,18.214,167.352,167.352,0,0,0,10,17.94,223.342,223.342,0,0,0,28.065,34.965A338.1,338.1,0,0,0,90.5,508.361a504.069,504.069,0,0,0,48.078,31.973c17.461,10.3,36.714,20.45,57.223,30.176,20.416,9.681,42.551,19.164,65.79,28.186,23.186,9,48.009,17.751,73.779,26.006,51.738,16.575,108.67,31.624,169.215,44.728,61.132,13.231,126.487,24.6,194.247,33.777,69.017,9.352,141.243,16.535,214.672,21.348,37.328,2.447,75.534,4.315,113.556,5.552C1065.646,731.364,1104.988,732,1144,732s78.354-.636,116.935-1.892c38.022-1.237,76.228-3.1,113.556-5.552,73.428-4.814,145.654-12,214.672-21.348,67.761-9.182,133.115-20.546,194.247-33.777,60.545-13.1,117.478-28.153,169.215-44.728,25.77-8.256,50.593-17.006,73.779-26.006,23.239-9.022,45.374-18.5,65.79-28.186,20.51-9.726,39.762-19.878,57.223-30.176a504.1,504.1,0,0,0,48.078-31.973,338.1,338.1,0,0,0,38.355-33.572,223.342,223.342,0,0,0,28.065-34.965,167.352,167.352,0,0,0,10-17.94,142.569,142.569,0,0,0,7.225-18.214,127.022,127.022,0,0,0,4.383-18.467,119.219,119.219,0,0,0,0-37.408,127.027,127.027,0,0,0-4.383-18.466,142.553,142.553,0,0,0-7.225-18.214,167.326,167.326,0,0,0-10-17.94,223.358,223.358,0,0,0-28.065-34.965,338.161,338.161,0,0,0-38.355-33.572,504.152,504.152,0,0,0-48.078-31.973c-17.461-10.3-36.714-20.45-57.223-30.176-20.416-9.681-42.551-19.164-65.79-28.186-23.187-9-48.009-17.751-73.779-26.007-51.738-16.575-108.67-31.624-169.215-44.728-61.132-13.231-126.487-24.6-194.247-33.777-69.017-9.352-141.243-16.535-214.672-21.348C1337.162,6,1298.957,4.129,1260.935,2.892,1222.354,1.636,1183.012,1,1144,1m0-1c631.814,0,1144,164.088,1144,366.5S1775.814,743,1144,743,0,568.912,0,366.5,512.186,0,1144,0Z" transform="matrix(0.966, -0.259, 0.259, 0.966, -192.171, 5971.178)" opacity="0.1" fill="url(#radial-gradient)"/>
  </g>
</svg>
