<svg xmlns="http://www.w3.org/2000/svg" xmlns:xlink="http://www.w3.org/1999/xlink" width="1920" height="948" viewBox="0 0 1920 948">
  <defs>
    <clipPath id="clip-path">
      <rect id="bg" width="1920" height="948" transform="translate(-0.001 5549)" fill="#fff" stroke="#707070" stroke-width="1"/>
    </clipPath>
    <radialGradient id="radial-gradient" cx="0.5" cy="0" r="0.435" gradientTransform="translate(0.5 -0.5) rotate(90) scale(1 1.409)" gradientUnits="objectBoundingBox">
      <stop offset="0" stop-color="#fff" stop-opacity="0"/>
      <stop offset="0.404" stop-color="#fff" stop-opacity="0"/>
      <stop offset="1" stop-color="#fff"/>
    </radialGradient>
  </defs>
  <g id="planet2_line" transform="translate(0.001 -5549)" clip-path="url(#clip-path)">
    <path id="line_02" d="M318,1c-21.556,0-43.1.628-64.029,1.867-20.4,1.207-40.459,3.009-59.63,5.355-18.819,2.3-36.969,5.153-53.947,8.471-16.81,3.285-32.615,7.058-46.977,11.213A337.372,337.372,0,0,0,54.7,41.481,171.945,171.945,0,0,0,25.555,57.015C17.536,62.5,11.386,68.227,7.277,74.036,3.112,79.925,1,85.969,1,92s2.112,12.075,6.277,17.964c4.109,5.81,10.259,11.536,18.277,17.021A171.944,171.944,0,0,0,54.7,142.519a337.372,337.372,0,0,0,38.715,13.574c14.362,4.155,30.167,7.928,46.977,11.213,16.977,3.318,35.127,6.168,53.947,8.471,19.171,2.346,39.233,4.148,59.63,5.355C274.9,182.372,296.444,183,318,183s43.1-.628,64.029-1.867c20.4-1.207,40.459-3.009,59.63-5.355,18.819-2.3,36.969-5.153,53.946-8.471,16.81-3.285,32.615-7.058,46.977-11.213A337.375,337.375,0,0,0,581.3,142.519a171.944,171.944,0,0,0,29.148-15.534c8.019-5.485,14.168-11.212,18.277-17.021C632.888,104.075,635,98.031,635,92s-2.112-12.075-6.277-17.964c-4.109-5.81-10.259-11.536-18.277-17.021A171.945,171.945,0,0,0,581.3,41.481a337.375,337.375,0,0,0-38.715-13.574c-14.362-4.155-30.167-7.928-46.977-11.213-16.977-3.318-35.127-6.168-53.946-8.471-19.171-2.346-39.233-4.148-59.63-5.355C361.1,1.628,339.556,1,318,1m0-1C493.626,0,636,41.19,636,92s-142.374,93-318,93S0,142.81,0,92,142.374,0,318,0Z" transform="matrix(0.966, -0.259, 0.259, 0.966, 633.119, 5859.781)" opacity="0.2" fill="url(#radial-gradient)"/>
  </g>
</svg>
