<svg xmlns="http://www.w3.org/2000/svg" xmlns:xlink="http://www.w3.org/1999/xlink" width="1920" height="948" viewBox="0 0 1920 948">
  <defs>
    <clipPath id="clip-path">
      <rect id="bg" width="1920" height="948" transform="translate(-0.001 5549)" fill="#fff" stroke="#707070" stroke-width="1"/>
    </clipPath>
    <radialGradient id="radial-gradient" cx="0.5" cy="0" r="0.314" gradientTransform="translate(0.5 -0.5) rotate(90) scale(1 1.224)" gradientUnits="objectBoundingBox">
      <stop offset="0" stop-color="#fff" stop-opacity="0"/>
      <stop offset="1" stop-color="#fff"/>
    </radialGradient>
  </defs>
  <g id="planet4_line" transform="translate(0.001 -5549)" clip-path="url(#clip-path)">
    <path id="line_04" d="M591,1c-40.078,0-80.13,1.257-119.044,3.736-37.923,2.416-75.225,6.021-110.87,10.715C326.093,20.059,292.342,25.763,260.772,32.4,229.508,38.979,200.111,46.53,173.4,54.847a598.724,598.724,0,0,0-72.045,27.185c-21.284,9.808-39.558,20.29-54.316,31.152a172.761,172.761,0,0,0-19.759,16.807,112.265,112.265,0,0,0-14.435,17.476A75.878,75.878,0,0,0,4,165.5,58.523,58.523,0,0,0,4,202.5a75.878,75.878,0,0,0,8.841,18.03,112.265,112.265,0,0,0,14.435,17.476,172.762,172.762,0,0,0,19.759,16.807c14.757,10.863,33.032,21.344,54.316,31.152A598.729,598.729,0,0,0,173.4,313.153c26.714,8.317,56.111,15.868,87.375,22.444,31.57,6.64,65.32,12.344,100.314,16.952,35.645,4.694,72.947,8.3,110.87,10.715C510.87,365.743,550.922,367,591,367s80.13-1.257,119.044-3.736c37.923-2.416,75.225-6.021,110.87-10.715,34.994-4.608,68.745-10.312,100.314-16.952,31.264-6.576,60.661-14.127,87.375-22.444a598.729,598.729,0,0,0,72.045-27.185c21.284-9.808,39.558-20.29,54.316-31.152a172.762,172.762,0,0,0,19.759-16.807,112.265,112.265,0,0,0,14.435-17.476A75.878,75.878,0,0,0,1178,202.5a58.523,58.523,0,0,0,0-37.006,75.878,75.878,0,0,0-8.841-18.03,112.265,112.265,0,0,0-14.435-17.476,172.761,172.761,0,0,0-19.759-16.807c-14.757-10.863-33.032-21.344-54.316-31.152A598.724,598.724,0,0,0,1008.6,54.847C981.889,46.53,952.492,38.979,921.228,32.4c-31.57-6.64-65.32-12.344-100.314-16.952-35.645-4.694-72.947-8.3-110.87-10.715C671.13,2.257,631.078,1,591,1m0-1c326.4,0,591,82.38,591,184S917.4,370,591,370,0,285.62,0,184,264.6,0,591,0Z" transform="matrix(0.966, -0.259, 0.259, 0.966, 355.704, 5879.244)" opacity="0.16" fill="url(#radial-gradient)"/>
  </g>
</svg>
