<svg xmlns="http://www.w3.org/2000/svg" width="512" height="182" viewBox="0 0 512 182">
    <g data-name="그룹 631178">
        <g data-name="그룹 631176">
            <path data-name="패스 1509345" d="M21.188.034V23.1h-4.342V11.243H4.341V23.1H0V.034h4.341v7.544h12.5V.034z" transform="translate(9.869 14.684)" style="fill:#fff"/>
            <path data-name="패스 1509346" d="M19.023 20.7a5.673 5.673 0 0 1-4.107-1.5 4.921 4.921 0 0 1-1.555-3.7v-1.253a5.013 5.013 0 0 1 1.555-3.727 5.409 5.409 0 0 1 3.96-1.525h9.042v-.06q0-2.143-2.966-2.141H14.736V3.211h10.627a7.1 7.1 0 0 1 5.1 1.732 6.091 6.091 0 0 1 1.792 4.639v6.073a4.723 4.723 0 0 1-1.643 3.728 6.166 6.166 0 0 1-4.169 1.32zm6.34-8.131H20.2q-2.493 0-2.493 1.968v.616c0 1.29.83 1.94 2.493 1.94h5.166c1.7 0 2.554-.649 2.554-1.94v-.616q0-1.969-2.554-1.968" transform="translate(19.96 17.084)" style="fill:#fff"/>
            <path data-name="패스 1509347" d="M32.867 3.211h3.611a7.34 7.34 0 0 1 5.429 2 7.571 7.571 0 0 1 1.966 5.515V20.7h-4.342v-9.68a4.779 4.779 0 0 0-.764-3.052 3.3 3.3 0 0 0-2.728-1.118H33.25a3.282 3.282 0 0 0-2.67 1.118 5.053 5.053 0 0 0-.706 3.052v9.68h-4.342v-9.976A7.564 7.564 0 0 1 27.5 5.209a7.258 7.258 0 0 1 5.369-2" transform="translate(29.154 17.084)" style="fill:#fff"/>
            <path data-name="패스 1509348" d="M50.827 18.59a5.76 5.76 0 0 1-4.606 2.11h-2.29a6.54 6.54 0 0 1-4.959-1.966 7.145 7.145 0 0 1-1.7-5.078V3.212h4.311v10.362a3.835 3.835 0 0 0 .734 2.638 2.751 2.751 0 0 0 2.115.851h1.352a2.78 2.78 0 0 0 2.14-.851 3.725 3.725 0 0 0 .764-2.638V3.212h4.286v10.362a3.808 3.808 0 0 0 .734 2.638 2.733 2.733 0 0 0 2.112.851h1.348a2.775 2.775 0 0 0 2.143-.851 3.734 3.734 0 0 0 .764-2.638V3.212h4.313V13.66a7 7 0 0 1-1.759 5.078A6.641 6.641 0 0 1 57.64 20.7h-2.293a5.665 5.665 0 0 1-4.52-2.113" transform="translate(38.02 17.085)" style="fill:#fff"/>
            <path data-name="패스 1509349" d="M61.741 9.275a3.3 3.3 0 0 0-2.671 1.115 5.091 5.091 0 0 0-.7 3.054v9.686h-4.347V0h4.343v6.431a5.6 5.6 0 0 1 2.995-.8h3.611a7.336 7.336 0 0 1 5.427 2 7.572 7.572 0 0 1 1.968 5.517v9.982h-4.345v-9.686a4.8 4.8 0 0 0-.762-3.054 3.319 3.319 0 0 0-2.73-1.115z" transform="translate(50.673 14.659)" style="fill:#fff"/>
            <path data-name="패스 1509350" d="M71.326 20.7a5.675 5.675 0 0 1-4.109-1.5 4.922 4.922 0 0 1-1.557-3.7v-1.253a5.015 5.015 0 0 1 1.557-3.727 5.415 5.415 0 0 1 3.96-1.525h9.042v-.06c0-1.429-.992-2.141-2.965-2.141H67.038V3.211h10.627a7.122 7.122 0 0 1 5.11 1.732 6.1 6.1 0 0 1 1.785 4.639v6.073a4.721 4.721 0 0 1-1.641 3.728 6.161 6.161 0 0 1-4.167 1.32zm6.338-8.131H72.5q-2.5 0-2.5 1.968v.616c0 1.29.832 1.94 2.5 1.94h5.164c1.7 0 2.554-.649 2.554-1.94v-.616q0-1.969-2.554-1.968" transform="translate(59.463 17.084)" style="fill:#fff"/>
            <path data-name="패스 1509351" d="M102.488.034v3.641h-12.12q-3.349 0-3.347 2.291v1.405q0 2.262 3.256 2.261h6.43a7.191 7.191 0 0 1 4.99 1.587 5.153 5.153 0 0 1 1.847 4.106v2.143a5.122 5.122 0 0 1-1.847 4.079 7.674 7.674 0 0 1-5.226 1.553H83.5v-3.636h12.327q3.344 0 3.344-2.289v-1.614q0-2.317-3.288-2.319h-6.428a7.291 7.291 0 0 1-4.987-1.555 5.166 5.166 0 0 1-1.82-4.081v-1.88a5.2 5.2 0 0 1 1.82-4.107A7.536 7.536 0 0 1 89.662.034z" transform="translate(72.294 14.684)" style="fill:#fff"/>
            <path data-name="패스 1509352" d="M95.857 10.374a6.994 6.994 0 0 1 1.878-5.224 7.2 7.2 0 0 1 5.252-1.938h4.613a7.2 7.2 0 0 1 5.25 1.938 6.933 6.933 0 0 1 1.906 5.224v3.2a6.894 6.894 0 0 1-1.906 5.194 7.166 7.166 0 0 1-5.226 1.936H100.2v5.812h-4.343zm4.343.233v6.458h7.044a3.038 3.038 0 0 0 2.526-1 4.655 4.655 0 0 0 .644-2.728v-2.7a4.744 4.744 0 0 0-.644-2.761 3 3 0 0 0-2.526-1.027h-3.9a2.907 2.907 0 0 0-2.494 1.027 4.648 4.648 0 0 0-.648 2.73" transform="translate(82.271 17.085)" style="fill:#fff"/>
            <path data-name="패스 1509353" d="M113.46 20.7a5.677 5.677 0 0 1-4.109-1.5 4.933 4.933 0 0 1-1.555-3.7v-1.253a5.027 5.027 0 0 1 1.555-3.727 5.419 5.419 0 0 1 3.962-1.525h9.04v-.06c0-1.429-.992-2.141-2.965-2.141h-10.212V3.211H119.8a7.113 7.113 0 0 1 5.106 1.732 6.1 6.1 0 0 1 1.794 4.64v6.073a4.717 4.717 0 0 1-1.643 3.728 6.164 6.164 0 0 1-4.167 1.32zm6.34-8.131h-5.168q-2.493 0-2.494 1.968v.616c0 1.29.832 1.94 2.494 1.94h5.168c1.7 0 2.552-.649 2.552-1.94v-.616q0-1.969-2.552-1.968" transform="translate(91.288 17.084)" style="fill:#fff"/>
            <path data-name="패스 1509354" d="M138.751 20.7H127.1a7.206 7.206 0 0 1-5.257-1.936 6.972 6.972 0 0 1-1.876-5.2V10.4a7 7 0 0 1 1.876-5.22 7.3 7.3 0 0 1 5.257-1.969h11.65V6.85h-11.091a3.209 3.209 0 0 0-2.7 1.029 4.9 4.9 0 0 0-.616 2.761v2.7a4.835 4.835 0 0 0 .616 2.73 3.262 3.262 0 0 0 2.7 1h11.092z" transform="translate(100.481 17.084)" style="fill:#fff"/>
            <path data-name="패스 1509355" d="M150.906 8.468V9.7a4.879 4.879 0 0 1-1.585 3.7 5.647 5.647 0 0 1-3.99 1.5h-8.981v.09q0 2.112 2.965 2.115h10.8V20.7h-11.239a7.2 7.2 0 0 1-5.108-1.7 6.053 6.053 0 0 1-1.761-4.611V8.433a4.925 4.925 0 0 1 1.555-3.7 5.72 5.72 0 0 1 4.138-1.522h7.485a5.712 5.712 0 0 1 4.137 1.525 4.981 4.981 0 0 1 1.585 3.732m-12.061 2.844h5.2q2.522 0 2.521-1.938V8.76q0-1.969-2.521-1.968h-5.2q-2.5 0-2.5 1.968v.614q0 1.938 2.5 1.938" transform="translate(109.575 17.084)" style="fill:#fff"/>
            <path data-name="패스 1509356" d="M170.134.034V23.1h-4.344V11.243h-12.5V23.1h-4.344V.034h4.344v7.544h12.5V.034z" transform="translate(122.367 14.684)" style="fill:#fff"/>
            <path data-name="패스 1509357" d="M169.773 20.7a7.18 7.18 0 0 1-5.37-2.026 7.318 7.318 0 0 1-1.966-5.426V3.211h4.343v9.714a5.057 5.057 0 0 0 .7 3.052 3.343 3.343 0 0 0 2.67 1.087h2.789a3.36 3.36 0 0 0 2.73-1.087 4.784 4.784 0 0 0 .762-3.052V3.211h4.344v10.04a7.319 7.319 0 0 1-1.968 5.426 7.26 7.26 0 0 1-5.427 2.026z" transform="translate(132.56 17.084)" style="fill:#fff"/>
            <path data-name="패스 1509358" d="M174.175 16V0h4.344v5.637h7.425a7.263 7.263 0 0 1 5.224 1.963 6.942 6.942 0 0 1 1.906 5.224V16a6.9 6.9 0 0 1-1.906 5.194 7.2 7.2 0 0 1-5.254 1.936h-4.609a7.2 7.2 0 0 1-5.252-1.936A6.952 6.952 0 0 1 174.175 16m4.344-.207a4.568 4.568 0 0 0 .644 2.7 2.944 2.944 0 0 0 2.5 1h3.9a3.034 3.034 0 0 0 2.526-1 4.629 4.629 0 0 0 .644-2.728v-2.7a4.717 4.717 0 0 0-.644-2.761 3 3 0 0 0-2.526-1.027h-7.042z" transform="translate(141.425 14.658)" style="fill:#fff"/>
            <path data-name="패스 1509359" d="M213.567 21.727h-2.877l-5.213-7.648-5.157 7.648h-2.875l6.428-9.609-6.119-9.447h2.873l4.767 7.3 4.987-7.3h2.877l-6.2 9.366z" transform="translate(159.001 16.676)" style="fill:#fff"/>
            <path data-name="사각형 462690" transform="translate(440.982 15.67)" style="fill:#fff" d="M0 0h5.47v20.579H0z"/>
            <path data-name="패스 1509360" d="M262.259.576v4.287h6.879v16.292h5.469V4.863h6.879V.576z" transform="translate(207.956 15.094)" style="fill:#fff"/>
            <path data-name="패스 1509361" d="M263.212 8.722h-4.572c-1.213 0-2.2-.5-2.2-1.931s.986-1.929 2.2-1.929h9.83V.577h-10.476c-3.916 0-7.083 2.256-7.083 6.214s3.167 6.216 7.083 6.216h4.7c1.209 0 2.194.5 2.194 1.931s-.985 1.931-2.194 1.931h-11.026v4.286h11.545c3.911 0 7.083-2.252 7.083-6.212s-3.172-6.221-7.083-6.221" transform="translate(199.384 15.095)" style="fill:#fff"/>
            <path data-name="패스 1509362" d="m247.454.576-7.734 18.517-7.374-8.227 9.218-10.29h-6.245l-8.738 9.768V.576h-5.468v20.579h5.468v-9.77l8.738 9.77h9.1l6.265-15.519 4.546 11.41H248l1.713 4.109H262.5L253.908.576z" transform="translate(176.878 15.094)" style="fill:#fff"/>
            <path data-name="패스 1509363" d="M213.884 18.995a414.98 414.98 0 0 0 58.416 4.118 414.971 414.971 0 0 0 58.417-4.118 416.379 416.379 0 0 0-116.83 0" transform="translate(171.417 25.895)" style="fill:#fff"/>
        </g>
        <g data-name="그룹 631173">
            <path data-name="패스 1509364" d="M51.894 71.161a1.034 1.034 0 0 0 .1 0c11.125-.542 20.174-4.585 25.371-11.241 5.133 6.417 13.99 10.326 24.866 10.862a2.208 2.208 0 0 0 1.6-.6 2.183 2.183 0 0 0 .669-1.56v-6.84a2.159 2.159 0 0 0-2.038-2.156c-12.008-.686-18.719-6.435-18.963-16.21h17.413a2.159 2.159 0 0 0 2.156-2.159v-7.026a2.156 2.156 0 0 0-2.156-2.157h-47.6a2.154 2.154 0 0 0-2.152 2.157v7.026a2.157 2.157 0 0 0 2.152 2.159h17.796c-.246 9.9-7.086 15.715-19.335 16.4a2.157 2.157 0 0 0-2.038 2.157V69a2.142 2.142 0 0 0 .671 1.562 2.175 2.175 0 0 0 1.488.6" transform="translate(47.434 38.885)" style="fill:#fff"/>
            <path data-name="패스 1509365" d="M153.331 67.86h.1c11.106-.535 20.153-4.616 25.38-11.332 5.161 6.472 14.009 10.414 24.866 10.948a2.161 2.161 0 0 0 1.6-.593 2.186 2.186 0 0 0 .671-1.56v-6.84a2.157 2.157 0 0 0-2.038-2.154c-11.973-.686-18.678-6.435-18.959-16.216h17.411a2.156 2.156 0 0 0 2.157-2.156v-7.029a2.161 2.161 0 0 0-2.157-2.157h-47.6a2.157 2.157 0 0 0-2.155 2.157v7.028a2.153 2.153 0 0 0 2.155 2.156h17.783c-.283 9.9-7.12 15.719-19.331 16.4a2.163 2.163 0 0 0-2.031 2.157V65.7a2.148 2.148 0 0 0 .665 1.562 2.18 2.18 0 0 0 1.485.6" transform="translate(124.057 36.39)" style="fill:#fff"/>
            <path data-name="패스 1509366" d="M273.037 60.242c0-12.15-9.013-20.972-21.443-20.972s-21.436 8.822-21.436 20.972a14.608 14.608 0 0 0 2.038 7.8 2.166 2.166 0 0 0 1.831 1.008h7.873a2.159 2.159 0 0 0 1.81-3.333 9.466 9.466 0 0 1-1.457-5.475c0-5.67 3.844-9.621 9.338-9.621s9.342 3.951 9.342 9.621-3.834 9.621-9.342 9.621H191.91V57.678a2.157 2.157 0 0 0-2.156-2.159h-7.788a2.161 2.161 0 0 0-2.159 2.159v12.185h-35.692a2.158 2.158 0 0 0-2.161 2.159v7.034a2.157 2.157 0 0 0 2.161 2.156h107.479c12.429 0 21.443-8.82 21.443-20.969" transform="translate(117.088 44.32)" style="fill:#fff"/>
            <path data-name="패스 1509367" d="M242.8 65.74h-34.584a2.158 2.158 0 0 0-2.159 2.156v7.03a2.161 2.161 0 0 0 2.159 2.159h28.91v24.064a2.151 2.151 0 0 0 2.156 2.152h7.792a2.155 2.155 0 0 0 2.159-2.152V72.166c0-3.964-2.466-6.426-6.433-6.426" transform="translate(165.506 64.313)" style="fill:#fff"/>
            <path data-name="패스 1509368" d="M287.587 94.891h-31.409v-5.029h30.177A1.86 1.86 0 0 0 288.209 88V71.254a5.132 5.132 0 0 0-5.528-5.533h-35.059a1.853 1.853 0 0 0-1.855 1.854v6.049a1.858 1.858 0 0 0 1.855 1.859H277.8v4.706h-30.178a1.854 1.854 0 0 0-1.855 1.855v17.075a5.135 5.135 0 0 0 5.531 5.531h36.289a1.856 1.856 0 0 0 1.848-1.855v-6.047a1.859 1.859 0 0 0-1.848-1.857" transform="translate(195.499 64.299)" style="fill:#fff"/>
            <path data-name="패스 1509369" d="M14.728 71.181a33.964 33.964 0 0 0 9.8-1.789 21.538 21.538 0 0 0 4.953 1.973 21.4 21.4 0 0 0 26.1-15.327 21.584 21.584 0 0 0 .669-5.257c9-8.555 8.847-13.877 7.1-16.851-1.845-3.131-6.765-5.933-19.738-1.5q-2.707.932-5.529 2.163a3.46 3.46 0 0 0 .376-.843l-.026-2a3.493 3.493 0 0 0-3.284-2.487h-.3A21.33 21.33 0 0 0 14.163 45.27a20.664 20.664 0 0 0-.678 5.275c-8.994 8.55-8.84 13.869-7.1 16.844 1.018 1.729 3.293 3.791 8.339 3.791m42.54-33.68c-.037.558-.535 2.2-2.689 4.846a21.408 21.408 0 0 0-2.85-4.846c3.36-.593 5.038-.24 5.54.005m-22.793-1.246c-2.043 1.009-4.1 2.115-6.121 3.3s-3.985 2.447-5.87 3.755a14.383 14.383 0 0 1 11.991-7.056m-15.1 18.369A79.418 79.418 0 0 1 31.89 45.6a81.28 81.28 0 0 1 12.245-5.9 14.37 14.37 0 0 1-12.889 24.89 14.5 14.5 0 0 1-4.85-2.336 3.668 3.668 0 0 1-.527-.377 9.541 9.541 0 0 1-.509-.449 50.322 50.322 0 0 1-4.989-5.452l-4.831 4.446 2.008 2.791.007-.044c.158.216.291.439.449.644-3.365.6-5.045.24-5.536-.009.037-.85 1.155-4 6.9-9.179" transform="translate(13.986 36.756)" style="fill:#fff"/>
            <path data-name="패스 1509370" d="M114.12 71.591c12.542 0 21.632-8.454 21.632-20.111a13.443 13.443 0 0 0-1.926-6.919 2.15 2.15 0 0 0-1.838-1.036h-7.7a2.155 2.155 0 0 0-1.864 3.24 8.715 8.715 0 0 1 1.232 4.715c0 5.166-3.914 8.773-9.537 8.773-5.6 0-9.528-3.607-9.528-8.773s3.923-8.766 9.528-8.766H131.7a2.156 2.156 0 0 0 2.156-2.157v-7.032a2.157 2.157 0 0 0-2.156-2.157h-17.58c-12.538 0-21.634 8.457-21.634 20.112s9.1 20.111 21.634 20.111" transform="translate(79.724 38.351)" style="fill:#fff"/>
            <path data-name="패스 1509371" d="M226.357 26.711h-7.03a2.152 2.152 0 0 0-2.156 2.157v31.7a18.808 18.808 0 0 1-18.785 18.784H195l-.023-.005H2.156A2.159 2.159 0 0 0 0 81.508v7.027a2.157 2.157 0 0 0 2.156 2.157h31.567v23.5a2.162 2.162 0 0 0 2.159 2.159h7.8a2.158 2.158 0 0 0 2.152-2.159v-23.5h62.938v24.448a2.157 2.157 0 0 0 2.156 2.156h7.8a2.152 2.152 0 0 0 2.156-2.156V90.694h51.181c.014 0 .026.009.04.009h26.289a29.96 29.96 0 0 0 18.785-6.614v4.523a2.153 2.153 0 0 0 2.156 2.156h7.03a2.156 2.156 0 0 0 2.156-2.156V28.868a2.155 2.155 0 0 0-2.156-2.157" transform="translate(9.869 34.834)" style="fill:#fff"/>
            <path data-name="패스 1509372" d="M321.064 79.269H288.97v-8.2h13.844a1.946 1.946 0 0 0 1.947-1.95V62.77a1.949 1.949 0 0 0-1.947-1.948H273.27V46.878h29.544a1.947 1.947 0 0 0 1.947-1.947v-6.35a1.945 1.945 0 0 0-1.947-1.945h-38.52a1.949 1.949 0 0 0-1.948 1.945v26.68c0 3.579 2.227 5.8 5.808 5.8h9.886v8.2h-34.397c-4.769 0-7.73-1.848-7.73-11.05V68h11.15a2.159 2.159 0 0 0 2.157-2.159v-7.025a2.162 2.162 0 0 0-2.157-2.163h-11.15v-5.471h11.15a2.155 2.155 0 0 0 2.157-2.156V41.9a2.156 2.156 0 0 0-2.157-2.156h-11.15V29.076a2.155 2.155 0 0 0-2.131-2.156l-7.79-.1a2.073 2.073 0 0 0-1.543.625 2.162 2.162 0 0 0-.637 1.534V68.5c0 14.257 7 22.112 19.735 22.112h77.518a2.159 2.159 0 0 0 2.152-2.157v-7.029a2.157 2.157 0 0 0-2.152-2.157" transform="translate(178.915 34.916)" style="fill:#fff"/>
        </g>
    </g>
    <path data-name="사각형 462691" style="fill:none" d="M0 0h512v182H0z"/>
</svg>
