<svg xmlns="http://www.w3.org/2000/svg" width="316.5" height="312.284" viewBox="0 0 316.5 312.284">
    <g data-name="그룹 629367">
        <path data-name="패스 1507436" d="m-14453.719 8760.884 7.266-1.143 7.092 1.143v14.822l-7.092.3-7.69-.3z" transform="translate(14472.581 -8669.671)" style="stroke-width:.5px;stroke:#fff;fill:none"/>
        <path data-name="패스 1507437" d="m-14429.015 8759.741-.108 16.3" transform="translate(14455.192 -8669.671)" style="stroke-width:.5px;stroke:#fff;fill:none"/>
        <path data-name="패스 1507438" d="m-14452.838 8764.4.593-.053.043-1-.573.087z" transform="translate(14471.675 -8672.176)" style="fill:#fff;stroke-width:.5px;stroke:#fff"/>
        <path data-name="패스 1507439" d="M-14431.92 8760.067v1.2l.981-.2.861.2v-1.2l-.927-.145z" transform="translate(14457.136 -8669.798)" style="fill:#fff;stroke-width:.5px;stroke:#fff"/>
        <path data-name="패스 1507440" d="M-14408.206 8763.2v.875l.779.138v-.9z" transform="translate(14440.655 -8672.08)" style="fill:#fff;stroke-width:.5px;stroke:#fff"/>
        <path data-name="패스 1507441" d="M-14428.765 8787.054c.1-.006 3.347.13 3.347.13" transform="translate(14454.941 -8688.677)" style="stroke-width:.5px;stroke:#fff;fill:none"/>
        <path data-name="패스 1507442" d="m-14428.211 8787.231 2.606.1" transform="translate(14458.829 -8688.666)" style="stroke-width:.5px;stroke:#fff;fill:none"/>
        <g data-name="타원 4792" transform="translate(29.462 97.905)" style="stroke-width:.5px;stroke:#fff;fill:none">
            <ellipse cx=".61" cy=".608" rx=".61" ry=".608" style="stroke:none"/>
            <ellipse cx=".61" cy=".608" rx=".36" ry=".358" style="fill:none"/>
        </g>
        <path data-name="패스 1507443" d="m-14410.541 8778.412 6.914-3.417 27.822-2.161v.4l-6.269 3.892-28.468 1.6z" transform="translate(14442.28 -8678.783)" style="fill:#fff;stroke-width:.5px;stroke:#fff"/>
        <path data-name="패스 1507444" d="M-14513.775 8789.709v-.381l6.558-2.551 11.847-.775v.775l-4.8 2.188z" transform="translate(14514.025 -8687.945)" style="fill:#fff;stroke-width:.5px;stroke:#fff"/>
        <path data-name="패스 1507445" d="m-14464.656 8792.226 3.331-.683z" transform="translate(14479.886 -8691.801)" style="stroke-width:.5px;stroke:#fff;fill:none"/>
        <path data-name="패스 1507446" d="m-14407.476 8781.725-7.042 1.561" transform="translate(14445.042 -8684.969)" style="stroke-width:.5px;stroke:#fff;fill:none"/>
        <path data-name="패스 1507447" d="m-14458.3 8747.536-1.707-1.5v-1.665l-.713-.475v-1.696l1.151-.916 2.755-.838h6.033l.282.25 8.182 1.181v3.71l-1.649 2.062" transform="translate(14477.154 -8656.243)" style="stroke-width:.5px;stroke:#fff;fill:none"/>
        <path data-name="패스 1507448" d="m-14458.032 8754.872 9.172-1.836 8.387 1.344" transform="translate(14475.283 -8665.004)" style="opacity:.3;stroke-width:.5px;stroke:#fff;fill:none"/>
        <path data-name="패스 1507449" d="M-14460.336 8744.488c.051-.052.949-.717.949-.717l3.033-.783h5.593l.429.4.114-2.045" transform="translate(14476.885 -8656.868)" style="stroke-width:.5px;stroke:#fff;fill:none"/>
        <path data-name="패스 1507450" d="m-14428.942 8742.588.109-1.828" transform="translate(14455.066 -8656.463)" style="opacity:.3;stroke-width:.5px;stroke:#fff;fill:none"/>
        <path data-name="패스 1507451" d="m-14447.658 8742.356-.066-1.818" transform="translate(14468.119 -8656.307)" style="opacity:.3;stroke-width:.5px;stroke:#fff;fill:none"/>
        <path data-name="패스 1507452" d="M-14457.05 8743.526v1.768" transform="translate(14474.6 -8658.389)" style="opacity:.3;stroke-width:.5px;stroke:#fff;fill:none"/>
        <path data-name="패스 1507453" d="m-14457.544 8749.96 2.476 2.2" transform="translate(14474.946 -8662.865)" style="opacity:.3;stroke-width:.5px;stroke:#fff;fill:none"/>
        <path data-name="패스 1507454" d="m-14449.456 8750.6-3.023-2.382" transform="translate(14471.426 -8661.65)" style="opacity:.3;stroke-width:.5px;stroke:#fff;fill:none"/>
        <path data-name="패스 1507455" d="M-14440.718 8747.034c.041.053 2.065 2.14 2.065 2.14" transform="translate(14463.25 -8660.83)" style="opacity:.3;stroke-width:.5px;stroke:#fff;fill:none"/>
        <path data-name="패스 1507456" d="m-14456.795 8810.335-1.144.248v1.176l.867.659 8 .393 7.719-.482.766-.569v-1.324l-1.432-.218" transform="translate(14475.218 -8704.796)" style="stroke-width:.5px;stroke:#fff;fill:none"/>
        <path data-name="패스 1507457" d="m-14459.163 8676.69 7.958-3.464 4.722 1.718-8.066 3.262z" transform="translate(14476.069 -8609.472)" style="stroke-width:.5px;stroke:#fff;fill:none"/>
        <path data-name="패스 1507458" d="m-14442.233 8660.184-1.854-.433.123-6.295 1.954.74.1 5.762" transform="translate(14465.593 -8595.715)" style="stroke-width:.5px;stroke:#fff;fill:none"/>
        <path data-name="패스 1507459" d="m-14454.387 8676.191-1.377-.379 3.6-1.729" transform="translate(14473.707 -8610.066)" style="stroke-width:.5px;stroke:#fff;fill:none"/>
        <path data-name="패스 1507460" d="m-14452.692 8653.456-3.668 1.951-.166 6.1" transform="translate(14474.237 -8595.715)" style="stroke-width:.5px;stroke:#fff;fill:none"/>
        <path data-name="패스 1507461" d="m-14460.809 8665.949.063-1.642-.549-1.127.134-4.567 1.693-.832.611.18" transform="translate(14477.553 -8598.724)" style="stroke-width:.5px;stroke:#fff;fill:none"/>
        <path data-name="패스 1507462" d="m-14461.295 8673.911 1.455-.629" transform="translate(14477.553 -8609.51)" style="stroke-width:.5px;stroke:#fff;fill:none"/>
        <path data-name="패스 1507463" d="m-14459.462 8678.649.867-.352" transform="translate(14476.277 -8613.001)" style="stroke-width:.5px;stroke:#fff;fill:none"/>
        <path data-name="패스 1507464" d="m-14440.936 8652.407 2.454-.836-.1 6.571" transform="translate(14463.401 -8594.404)" style="stroke-width:.5px;stroke:#fff;fill:none"/>
        <path data-name="패스 1507465" d="m-14432.889 8651.571 4.858 1.789v6.512" transform="translate(14457.81 -8594.404)" style="stroke-width:.5px;stroke:#fff;fill:none"/>
        <path data-name="패스 1507466" d="M-14448.776 8639.98v-5.586l-5.508-.087v.359l-2.07.909-1.142 1.239-.1 3.165.553.342.692-.124.856.961" transform="translate(14474.983 -8582.39)" style="stroke-width:.5px;stroke:#fff;fill:none"/>
        <path data-name="패스 1507467" d="m-14457.6 8650.39 1.3-.871 1.023.144-1.325 1" transform="translate(14474.985 -8592.806)" style="stroke-width:.5px;stroke:#fff;fill:none"/>
        <path data-name="패스 1507468" d="M-14449.582 8640.653v-3.688l1.784-.592 1.313 1.794-.061 2.711-1.382.72" transform="translate(14469.41 -8583.827)" style="stroke-width:.5px;stroke:#fff;fill:none"/>
        <path data-name="패스 1507469" d="M-14416.968 8641.946s.969-.027 1.088 0 22.539-7.783 22.539-7.783v-.249l-6.15.985-17.477 6.159" transform="translate(14446.744 -8582.117)" style="fill:#fff;stroke-width:.5px;stroke:#fff"/>
        <path data-name="패스 1507470" d="M-14427.528 8664.515v.521l.938.269v-.521z" transform="translate(14454.084 -8603.408)" style="opacity:.3;stroke-width:.5px;stroke:#fff;fill:none"/>
        <g data-name="타원 4793" transform="translate(20.312 65.815)" style="fill:#fff;stroke-width:.5px;stroke:#fff">
            <ellipse cx="2.745" cy=".912" rx="2.745" ry=".912" style="stroke:none"/>
            <ellipse cx="2.745" cy=".912" rx="2.495" ry=".662" style="fill:none"/>
        </g>
        <path data-name="패스 1507471" d="M-14417.524 8733.738v-3.12l-1.188-.092v-.792l3.589.369v.756l-1.39-.1.068 3.1" transform="translate(14447.957 -8648.791)" style="stroke-width:.5px;stroke:#fff;fill:none"/>
        <path data-name="패스 1507472" d="m-14440.366 8733.138.066-1.834 1.9-1.361 2.277.124 1.233 1.237v2.273" transform="translate(14463.007 -8648.935)" style="stroke-width:.5px;stroke:#fff;fill:none"/>
        <path data-name="패스 1507473" d="m-14436.286 8724.576-.8-2.266-1.124-.08.956 2.512" transform="translate(14461.506 -8643.568)" style="stroke-width:.5px;stroke:#fff;fill:none"/>
        <path data-name="패스 1507474" d="M-14440.013 8719.371h.431l-.729-1.518-2.359-.107.46 1.468.881.069" transform="translate(14464.606 -8640.449)" style="stroke-width:.5px;stroke:#fff;fill:none"/>
        <path data-name="패스 1507475" d="m-14442.482 8703.366 1.346-3.753-1.256.208-.281-2.5 1.144-.1.26 1.385.991-.148.137 1.291-1.5 3.746" transform="translate(14464.61 -8626.169)" style="stroke-width:.5px;stroke:#fff;fill:none"/>
        <path data-name="패스 1507476" d="M-14464.468 8725.79v-.33a2.035 2.035 0 0 0-.84-.988c-.605-.33-3.259-1.867-3.259-1.867a5.323 5.323 0 0 1 .658-.684c.092 0 2.3-.228 2.3-.228l.991-.379v-.662l.448-.129.343.406.595-.2-.595-1.576-1.888.9v.872l-3.187.218-1.347 1.323 3.883 2.989v1.1" transform="translate(14483.77 -8641.432)" style="stroke-width:.5px;stroke:#fff;fill:none"/>
        <g data-name="패스 1507927">
            <path d="M.611.359A.764.764 0 0 1 .307.304a.762.762 0 0 1 .3-.054c.14 0 .241.028.303.055a.762.762 0 0 1-.3.054z" style="stroke:none" transform="rotate(-28 204.883 31.367)"/>
            <path d="M.608 0c.337 0 .611.137.611.305C1.22.473.947.61.61.61.273.609 0 .472 0 .304 0 .136.272 0 .608 0z" style="fill:#000;stroke:none" transform="rotate(-28 204.883 31.367)"/>
        </g>
        <g data-name="패스 1507928">
            <path d="M.611.359A.764.764 0 0 1 .307.304a.762.762 0 0 1 .3-.054c.14 0 .241.028.303.055a.762.762 0 0 1-.3.054z" style="stroke:none" transform="rotate(-28 218.284 -45.933)"/>
            <path d="M.608 0c.337 0 .611.137.611.305C1.22.473.947.61.61.61.273.609 0 .472 0 .304 0 .136.272 0 .608 0z" style="fill:#000;stroke:none" transform="rotate(-28 218.284 -45.933)"/>
        </g>
    </g>
    <g data-name="그룹 629369">
        <g data-name="그룹 629368">
            <path data-name="패스 1507477" d="m-13102.135 8414.546 6.52-22.475h6.188l-6.725 22.475z" transform="translate(13147.406 -8144.097)" style="fill:#fff;stroke-width:.5px;stroke:#fff"/>
            <path data-name="패스 1507478" d="m-13059.669 8462.067 2.41 3.055 5.424-14.338-2.956-3.381z" transform="translate(13120.329 -8179.434)" style="fill:#fff;stroke-width:.5px;stroke:#fff"/>
            <path data-name="패스 1507479" d="M-13131.541 8451.153v1.3l8.833-2.38v-.681z" transform="translate(13166.156 -8180.705)" style="fill:#fff;stroke-width:.5px;stroke:#fff"/>
            <path data-name="패스 1507480" d="M-13104.6 8463.161c.068-.155 8.54-9.471 8.54-9.471" transform="translate(13148.979 -8183.449)" style="stroke-width:.5px;stroke:#fff;fill:none"/>
            <g data-name="타원 4796" transform="translate(76.88 268.756)" style="fill:#fff;stroke-width:.5px;stroke:#fff">
                <ellipse cx="1.31" cy="1.567" rx="1.31" ry="1.567" style="stroke:none"/>
                <ellipse cx="1.31" cy="1.567" rx="1.06" ry="1.317" style="fill:none"/>
            </g>
            <g data-name="타원 4797" transform="translate(53.305 274.503)" style="fill:#fff;stroke-width:.5px;stroke:#fff">
                <ellipse cx=".786" cy=".784" rx=".786" ry=".784" style="stroke:none"/>
                <ellipse cx=".786" cy=".784" rx=".536" ry=".534" style="fill:none"/>
            </g>
            <g data-name="타원 4798" transform="translate(86.006 254.472)" style="fill:#fff;stroke-width:.5px;stroke:#fff">
                <ellipse cx=".319" cy=".318" rx=".319" ry=".318" style="stroke:none"/>
                <ellipse cx=".319" cy=".318" rx=".069" ry=".068" style="fill:none"/>
            </g>
            <g data-name="패스 1507929" style="fill:#fff">
                <path d="M.318.831A.523.523 0 0 1 .25.551c0-.14.038-.233.067-.278.03.045.069.14.069.28S.348.786.318.83z" style="stroke:none" transform="rotate(-74 207.619 69.722)"/>
                <path d="M.317 0c.176 0 .318.247.319.552 0 .305-.142.552-.318.552C.143 1.104 0 .857 0 .552 0 .247.142 0 .317 0z" style="fill:#fff;stroke:none" transform="rotate(-74 207.619 69.722)"/>
            </g>
            <g data-name="패스 1507930" style="fill:#fff">
                <path d="M.25.835V.251h.95v.583L.25.835z" style="stroke:none" transform="rotate(14.98 -988.01 345.893)"/>
                <path d="M1.45 0v1.084L0 1.085V.001L1.45 0z" style="fill:#fff;stroke:none" transform="rotate(14.98 -988.01 345.893)"/>
            </g>
            <g data-name="패스 1507931" style="fill:#fff">
                <path d="M.838.835H.25V.25h.586v.585z" style="stroke:none" transform="rotate(-14.98 1050.007 -94.408)"/>
                <path d="M0 0h1.087v1.085H.002L0 0z" style="fill:#fff;stroke:none" transform="rotate(-14.98 1050.007 -94.408)"/>
            </g>
            <g data-name="패스 1507932" style="fill:none">
                <path d="M1.295 0a1.476 1.476 0 0 1 1.291 1.612 1.485 1.485 0 0 1-1.295 1.616A1.476 1.476 0 0 1 0 1.615 1.485 1.485 0 0 1 1.295 0z" style="stroke:none" transform="rotate(29 -519.448 219.707)"/>
                <path d="M1.295.5C.865.5.501 1.012.5 1.616c0 .355.125.693.337.905a.65.65 0 0 0 .453.207c.43 0 .795-.512.796-1.116 0-.355-.126-.694-.337-.905A.65.65 0 0 0 1.296.5m0-.5c.714 0 1.291.721 1.29 1.612-.001.892-.582 1.616-1.296 1.616-.714 0-1.291-.722-1.29-1.613C.001.724.582 0 1.296 0z" style="fill:#fff;stroke:none" transform="rotate(29 -519.448 219.707)"/>
            </g>
            <path data-name="패스 1507481" d="m-13159.646 8510.749.335 1.645 7.862-2.211-.329-1.622z" transform="translate(13184.076 -8218.488)" style="fill:#fff;stroke-width:.5px;stroke:#fff"/>
            <path data-name="패스 1507482" d="m-13064.433 8390.012-1.619-5.539 19.018-14.708.482.585 1.705 5.181-19.257 14.88z" transform="translate(13124.398 -8129.85)" style="fill:#fff;stroke-width:.5px;stroke:#fff"/>
            <path data-name="패스 1507483" d="M-13097.051 8414.432c.039-.09 6.636-22.39 6.636-22.39" transform="translate(13144.164 -8144.077)" style="stroke:#000;opacity:.3;stroke-width:.5px;fill:none"/>
            <path data-name="패스 1507484" d="m-13091.912 8414.744 6.816-22.361" transform="translate(13140.887 -8144.295)" style="stroke:#000;opacity:.3;stroke-width:.5px;fill:none"/>
            <path data-name="패스 1507485" d="m-13064.652 8389.054 19.255-14.891" transform="translate(13123.507 -8132.658)" style="stroke:#000;opacity:.3;stroke-width:.5px;fill:none"/>
            <path data-name="패스 1507486" d="m-13062.782 8394.629 19.295-14.728" transform="translate(13122.316 -8136.322)" style="stroke:#000;opacity:.3;stroke-width:.5px;fill:none"/>
            <path data-name="패스 1507487" d="M-13086.327 8399.438h6.018" transform="translate(13137.327 -8148.8)" style="stroke:#000;opacity:.3;stroke-width:.5px;fill:none"/>
            <path data-name="패스 1507488" d="M-13086.327 8399.438h6.018" transform="translate(13136.759 -8146.27)" style="stroke:#000;opacity:.3;stroke-width:.5px;fill:none"/>
            <path data-name="패스 1507489" d="M-13086.327 8399.438h6.018" transform="translate(13136.023 -8143.741)" style="stroke:#000;opacity:.3;stroke-width:.5px;fill:none"/>
            <path data-name="패스 1507490" d="M-13086.327 8399.438h6.018" transform="translate(13135.297 -8141.214)" style="stroke:#000;opacity:.3;stroke-width:.5px;fill:none"/>
            <path data-name="패스 1507491" d="M-13086.327 8399.438h6.018" transform="translate(13134.32 -8138.681)" style="stroke:#000;opacity:.3;stroke-width:.5px;fill:none"/>
            <path data-name="패스 1507492" d="M-13086.327 8399.438h6.018" transform="translate(13133.594 -8136.153)" style="stroke:#000;opacity:.3;stroke-width:.5px;fill:none"/>
            <path data-name="패스 1507493" d="M-13086.327 8399.438h6.018" transform="translate(13133.012 -8133.622)" style="stroke:#000;opacity:.3;stroke-width:.5px;fill:none"/>
            <path data-name="패스 1507494" d="M-13086.327 8399.438h6.018" transform="translate(13132.328 -8131.094)" style="stroke:#000;opacity:.3;stroke-width:.5px;fill:none"/>
            <path data-name="패스 1507495" d="M-13059.564 8405.8c.059.226 1.774 5.854 1.774 5.854" transform="translate(13120.264 -8152.862)" style="stroke:#000;opacity:.3;stroke-width:.5px;fill:none"/>
            <path data-name="패스 1507496" d="M-13059.564 8405.8c.059.226 1.774 5.854 1.774 5.854" transform="translate(13122.799 -8154.855)" style="stroke:#000;opacity:.3;stroke-width:.5px;fill:none"/>
            <path data-name="패스 1507497" d="M-13059.564 8405.8c.059.226 1.774 5.854 1.774 5.854" transform="translate(13125.337 -8156.846)" style="stroke:#000;opacity:.3;stroke-width:.5px;fill:none"/>
            <path data-name="패스 1507498" d="M-13059.564 8405.8c.059.226 1.774 5.854 1.774 5.854" transform="translate(13127.858 -8158.715)" style="stroke:#000;opacity:.3;stroke-width:.5px;fill:none"/>
            <path data-name="패스 1507499" d="M-13059.564 8405.8c.059.226 1.774 5.854 1.774 5.854" transform="translate(13130.392 -8160.707)" style="stroke:#000;opacity:.3;stroke-width:.5px;fill:none"/>
            <path data-name="패스 1507500" d="M-13059.564 8405.8c.059.226 1.774 5.854 1.774 5.854" transform="translate(13132.914 -8162.7)" style="stroke:#000;opacity:.3;stroke-width:.5px;fill:none"/>
            <path data-name="패스 1507501" d="M-13059.564 8405.8c.059.226 1.774 5.854 1.774 5.854" transform="translate(13135.089 -8164.506)" style="stroke:#000;opacity:.3;stroke-width:.5px;fill:none"/>
            <path data-name="패스 1507502" d="m-13043.116 8400.406.194-1.412 10.351.46-.117 1.256z" transform="translate(13109.776 -8148.516)" style="fill:#fff;stroke-width:.5px;stroke:#fff"/>
        </g>
        <path data-name="패스 1507933" d="M2.567 0h4.671a2.562 2.562 0 1 1 0 5.125H2.567a2.562 2.562 0 1 1 0-5.125z" transform="rotate(-13 1170.763 -224.482)" style="fill:#fff"/>
        <path data-name="패스 1507503" d="m-13147.123 8781.544 1.48.341" transform="translate(13226.15 -8527.175)" style="opacity:.3;stroke:#fff;fill:none"/>
        <path data-name="패스 1507504" d="m-13131.322 8773.869.7-.842" transform="translate(13217.734 -8522.626)" style="opacity:.3;stroke:#fff;fill:none"/>
        <path data-name="패스 1507505" d="m-13117.785 8782.271 1.631.521" transform="translate(13210.519 -8527.564)" style="stroke:#fff;fill:none"/>
        <path data-name="패스 1507506" d="m-13159.007 8800.046.472-1.1h.711l-.28 1.1z" transform="translate(13232.484 -8536.473)" style="fill:#fff"/>
        <path data-name="패스 1507507" d="M0 1.1.47 0h.711L.9 1.1z" transform="rotate(85 -100.372 170.156)" style="fill:#fff"/>
        <path data-name="패스 1507508" d="m-13123.262 8793.4 1.491-3.287.719 1.2-1.312 3.072z" transform="translate(13212.972 -8529.647)" style="fill:#fff"/>
    </g>
    <g data-name="그룹 629370">
        <g data-name="타원 4801" transform="translate(9.215 13.746)" style="opacity:.4;stroke:#fff;fill:none">
            <ellipse cx="142.132" cy="141.734" rx="142.132" ry="141.734" style="stroke:none"/>
            <ellipse cx="142.132" cy="141.734" rx="141.632" ry="141.234" style="fill:none"/>
        </g>
        <g data-name="타원 4802" transform="translate(9.215 118.182)" style="opacity:.4;stroke:#fff;fill:none">
            <ellipse cx="142.132" cy="36.801" rx="142.132" ry="36.801" style="stroke:none"/>
            <ellipse cx="142.132" cy="36.801" rx="141.632" ry="36.301" style="fill:none"/>
        </g>
        <g data-name="패스 1507934" style="stroke-dasharray:2 3;opacity:.4;fill:none">
            <path d="M98.29 0c54.267-.066 98.245 11.469 98.227 25.763s-44.023 25.936-98.29 26S-.017 40.3 0 26 44.023.066 98.29 0z" style="stroke:none" transform="rotate(60 98.287 186.455)"/>
            <path d="M98.753 0h.269c.581 0 1.154.002 1.732.005l-.005 1C100.087 1.002 99.415 1 98.753 1V0zm5 .033c.67.009 1.333.02 2 .032l-.018 1c-.661-.013-1.333-.024-1.995-.032l.013-1zm5 .1.684.018h.007l.08.003h.012l1.216.037-.033 1c-.66-.022-1.331-.041-1.994-.059l.027-1zM113.75.3c.667.027 1.334.056 1.997.086l-.046.999c-.66-.03-1.33-.06-1.992-.086l.04-1zm4.995.237.029.001c.659.036 1.313.074 1.967.113l-.06.999c-.66-.04-1.329-.079-1.99-.115l.054-.998zm4.991.308c.667.047 1.333.095 1.994.145l-.075.997c-.657-.05-1.326-.098-1.988-.144l.069-.998zm4.986.383a305.627 305.627 0 0 1 1.34.117h.003l.068.006h.002l.579.052-.09.996c-.657-.06-1.325-.118-1.987-.174l.085-.997zm4.977.46.74.076.014.001.046.005.022.002.04.005c.011 0 .018.001.03.003l.013.001 1.085.115-.106.994c-.656-.07-1.323-.14-1.984-.206l.1-.995zm4.97.543.683.08.005.001.05.006.014.002.043.005.025.003.038.005.027.003.025.003.043.005.01.002.056.006.008.001.06.008h.006l.057.007.01.002.061.007h.004l.034.005.034.004.027.003.04.005.02.002.048.006.005.001.552.068-.124.993c-.653-.082-1.318-.163-1.978-.24l.117-.993zm4.963.629a266.9 266.9 0 0 1 1.98.277l-.142.99c-.65-.094-1.315-.187-1.973-.276l.135-.991zm4.945.721a242.12 242.12 0 0 1 1.975.317l-.162.986c-.648-.106-1.31-.212-1.967-.315l.154-.988zm4.934.824a218.348 218.348 0 0 1 1.968.36l-.185.982c-.644-.12-1.303-.241-1.958-.358l.175-.984zm4.909.934a193.253 193.253 0 0 1 1.18.243l.008.002.02.004.01.002.018.004c.005 0 .01.002.014.003.005 0 .01.002.014.003l.019.004.01.002.025.005h.003l.027.006.004.001.273.058.029.006h.004a62.394 62.394 0 0 0 .033.008l.016.003.017.004.01.002.02.004.005.001.2.043-.21.978c-.64-.137-1.295-.274-1.948-.406l.199-.98zm4.888 1.06a180.444 180.444 0 0 1 1.945.462l-.238.972c-.633-.155-1.283-.31-1.932-.46l.225-.974zm4.854 1.203c.326.086.649.173.97.261h.003l.117.033.006.002.023.006.006.001.023.007.006.001.117.033h.002c.22.06.438.121.655.182l-.27.963c-.626-.176-1.27-.351-1.914-.522l.256-.967zm4.808 1.371c.647.199 1.28.399 1.904.603l-.31.95c-.615-.2-1.25-.401-1.887-.597l.293-.956zm4.742 1.575c.32.115.636.231.95.348 0 0-.002 0 0 0l.028.01.001.001.029.01.002.002.024.008.007.003.02.008.008.003.023.008.012.005.013.005.014.005.01.004c.247.093.493.186.737.28l-.36.933a86.115 86.115 0 0 0-1.857-.692l.339-.94zm4.654 1.836.21.092a65.109 65.109 0 0 1 .077.033l.036.016.004.002.015.006a.64.64 0 0 1 .003.002l.016.007h.002c.006.003.011.006.018.008l.002.002a8.097 8.097 0 0 1 .02.008l.013.006.004.002.017.008h.003l.015.007.004.002.013.006a2.489 2.489 0 0 1 .023.01l.015.007.008.003.01.005c.003 0 .005.002.007.003l.01.004.01.005.013.005.007.003.01.005.008.004.006.002.035.016.007.003.01.004a1.886 1.886 0 0 0 .04.018l.007.003.009.004.006.003.01.005.006.002.019.009.006.003.01.004.006.003.01.004.006.003.01.005.015.006a3.2 3.2 0 0 1 .009.004l.007.003.01.005.007.003.009.004.015.007.007.003.008.004.01.004.007.003.009.004.01.005.01.004.011.006c.003 0 .005.002.008.003l.009.004.008.004.012.005.004.002.016.007.006.003.011.005.006.003.013.006.003.001.017.008.004.001.013.006a1.6 1.6 0 0 0 .006.003l.013.006.003.001.036.017.018.008.037.017.018.008c.21.096.416.192.62.289l-.427.904a61.56 61.56 0 0 0-1.792-.81l.398-.918zm4.497 2.181c.48.263.944.528 1.392.795l.002.001.01.007.004.002.009.005.007.004.007.005.007.004.007.004a4.135 4.135 0 0 0 .042.026l.003.001.012.008h.002l.013.009h.002l.213.13-.522.853a39.73 39.73 0 0 0-1.69-.976l.48-.878zm4.215 2.683a23.837 23.837 0 0 1 .606.472l.002.002.01.008.002.002.01.008.002.001.01.01h.002l.01.009.002.001.048.04c.002 0 .004.002.006.004l.006.005.007.006c.002 0 .003.002.005.003l.007.006.005.004.008.007.003.002.009.007.003.003.008.007.003.002.01.008.002.002a8.024 8.024 0 0 0 .01.009l.011.008.001.001.01.009h.001l.011.01a21.504 21.504 0 0 1 .566.483l.005.005.006.006.005.004.006.006.004.003.008.007.003.003.008.007.003.002.008.008.003.002.01.008v.001l.078.07-.67.742a21.733 21.733 0 0 0-1.476-1.215l.603-.798zm3.576 3.467.128.174.014.02.015.02.014.02.014.019.014.02.014.02a6.673 6.673 0 0 1 .027.039l.001.001.013.019h.001l.013.02.014.02.007.01.006.009.001.001.013.019v.001l.007.01.006.008.001.002.006.01h.001l.005.008.002.002.005.008.002.003.005.007.001.002.006.009.006.009.002.002.005.009h.001l.006.009v.002a2.992 2.992 0 0 1 .007.01l.006.008.001.001.006.01.006.008a.13.13 0 0 0 .007.011l.006.01.001.001.006.009v.001l.006.008.001.002.006.009.006.01h.001a2.94 2.94 0 0 1 .007.011l.005.008.001.002.006.009.006.008.001.003.006.008v.002l.006.008.001.002.006.008v.002l.005.007.002.003.005.008.002.002.004.007.002.002.005.01.006.009.001.001.006.01.006.008v.002l.006.009.001.001.005.008.001.002.006.009.001.002.004.007.002.002.005.009.001.001.005.008.001.002.006.009.006.01.006.01.006.01.006.01.001.001.005.008.001.002.006.009v.001l.005.008.001.002.006.008v.002l.005.008.001.002.006.009v.001l.005.008.001.002.006.008.001.002.004.008.001.002.006.008v.002a2.29 2.29 0 0 1 .012.019l.006.01.006.01.005.009.001.001.005.01h.001l.005.01.012.02.006.01.006.01.006.01.005.01c.003.003.004.006.006.01l.006.01.006.01.006.01.005.01c.103.18.198.36.287.54l-.898.44a9.672 9.672 0 0 0-.954-1.538l.8-.6zm1.848 4.57a6.832 6.832 0 0 1 .005.093v.01l.001.01V25.41a1 1 0 0 0 .001.007v.015l.001.005v.017l.001.005V25.474l.001.006V25.505l.001.006v.024l.001.008v.022c.003.063.003.125.003.187V25.823c-.005.487-.06.97-.166 1.45l-.977-.214a6.094 6.094 0 0 0 .13-1.706l.998-.067zm-2.159 4.204.847.533c-.339.538-.74 1.07-1.202 1.597l-.752-.66c.427-.486.8-.981 1.107-1.47zm-3.154 3.426.634.773c-.448.369-.927.733-1.436 1.094l-.004.003-.009.006-.008.006-.004.003-.01.007a.517.517 0 0 0-.003.003l-.012.008h-.001l-.108.076-.573-.819a25.21 25.21 0 0 0 1.534-1.16zm-3.994 2.72.5.866-.423.241-.003.002-.012.007c-.001 0 0 0 0 0l-.014.007-.052.03-.003.001a4.928 4.928 0 0 1-.01.006l-.004.002-.01.006a3.66 3.66 0 0 0-.015.008l-.037.02-.005.004a4.143 4.143 0 0 1-.01.005l-.004.002a5.859 5.859 0 0 1-.015.009l-.01.005-.005.003-.008.005-.01.005-.011.006-.009.005a6.377 6.377 0 0 1-.007.004l-.007.004-.008.004-.007.004-.008.004a2.829 2.829 0 0 1-.007.004l-.008.005a2.917 2.917 0 0 0-.021.012l-.007.004-.009.004-.006.004-.008.004-.007.004-.008.005-.007.003-.007.004-.007.004-.036.02a5.477 5.477 0 0 1-.01.005l-.006.004-.01.005-.003.002-.012.006-.003.002a8.144 8.144 0 0 1-.011.006h-.002l-.053.03h-.001l-.012.007-.003.002c-.257.14-.518.279-.785.417l-.461-.887c.594-.31 1.172-.626 1.717-.941zm-4.365 2.226.413.911-.334.15-.002.002a2.807 2.807 0 0 0-.009.003l-.008.004-.007.003c-.48.214-.975.428-1.477.638l-.386-.922a66.728 66.728 0 0 0 1.81-.789zm-4.562 1.878.351.937a87.82 87.82 0 0 1-.433.16c-.001.001.002 0 0 .001l-.029.01a48.47 48.47 0 0 1-.026.01l-.008.003-.018.007-.01.004-.015.005-.025.01-.007.002-.017.006a93.907 93.907 0 0 1-1.29.463l-.331-.944c.63-.221 1.255-.448 1.858-.674zm-4.677 1.615.304.953a115.313 115.313 0 0 1-.687.216l-.047.015-.018.006a10.87 10.87 0 0 0-.01.003l-.015.004-.013.004-.014.005a6.052 6.052 0 0 1-.012.004l-.02.006-.02.006-.009.003-.02.006-.008.002-.021.007-.007.002-.027.008-.059.019h-.003l-.028.01-.875.265-.287-.958c.64-.192 1.278-.389 1.896-.586zm-4.756 1.408.265.964-.418.115-.03.008-.025.007-.023.006-.008.002-.023.007h-.003l-.022.006-.005.002c-.455.123-.912.244-1.376.365l-.252-.968a144.3 144.3 0 0 0 1.92-.514zM164.025 44l.233.973c-.643.154-1.289.305-1.948.456l-.222-.975c.65-.148 1.301-.301 1.936-.454zm-4.852 1.093.207.978c-.647.136-1.3.27-1.96.403l-.196-.98c.653-.132 1.309-.266 1.95-.401zm-4.883.966.182.983-.213.04h-.003l-.024.004-.03.006-.019.003-.009.002-.021.004-.01.002-.025.004a185942835.194 185942835.194 0 0 1-.21.039l-.01.001-.019.004-.01.002-.019.003-.028.005-.018.004-.01.001c-.427.078-.857.155-1.29.231l-.174-.984a222.02 222.02 0 0 0 1.96-.354zm-4.902.852.16.987c-.652.106-1.312.21-1.974.313l-.153-.988c.657-.102 1.319-.207 1.967-.312zm-4.925.75.14.99-.666.095-.025.003-.023.004h-.005c-.42.059-.838.116-1.261.173l-.134-.99c.659-.09 1.323-.181 1.974-.274zm-4.937.657.123.993-.366.045-.012.001-.041.005-.027.004-.03.003c-.503.062-1.003.122-1.51.18l-.116-.992c.66-.078 1.325-.158 1.979-.239zm-4.95.57.106.994c-.66.07-1.321.139-1.99.206l-.099-.995c.66-.066 1.328-.135 1.983-.205zm-4.961.488.09.995a331.227 331.227 0 0 1-.31.028c-.412.037-.824.073-1.238.108l-.04.004-.404.034-.084-.997c.661-.055 1.33-.113 1.986-.172zm-4.97.41.075.996c-.484.037-.97.072-1.456.106h-.004l-.065.005a6.416 6.416 0 0 0-.127.009l-.057.004h-.01l-.275.02-.068-.998c.661-.046 1.33-.094 1.988-.143zm-4.972.334.06.998-.994.059h-.013l-.038.002-.043.003h-.017c-.3.018-.593.034-.893.05l-.055-.998a349.87 349.87 0 0 0 1.993-.114zm-4.979.263.046 1c-.33.014-.662.03-.995.043h-.006l-.055.003h-.014l-.084.004-.051.002h-.002a355.084 355.084 0 0 1-.743.031l-.047.002h-.002l-.04-.999c.663-.027 1.333-.056 1.993-.086zm-4.982.194.032 1a370.817 370.817 0 0 1-1.67.049h-.026l-.304.009-.026-1c.662-.017 1.333-.037 1.994-.058zm-4.985.125.019 1a380.787 380.787 0 0 1-1.226.02l-.112.003h-.012l-.65.009-.014-1c.663-.009 1.334-.02 1.995-.032zm-4.986.06.005 1a383.483 383.483 0 0 1-1.981.004h-.02v-1h.02a404.69 404.69 0 0 0 1.976-.005zm-6.984-.029c.661.01 1.332.016 1.994.021l-.008 1a366.638 366.638 0 0 1-1.999-.02l.013-1zm-4.986-.1c.66.018 1.331.034 1.993.049l-.02 1-.595-.014-.069-.001-.041-.001a292.898 292.898 0 0 1-.095-.003h-.023a217.92 217.92 0 0 1-.15-.004h-.01l-1.016-.026.026-1zm-4.984-.167c.66.027 1.33.052 1.993.076l-.035.999c-.669-.023-1.334-.049-1.998-.075l.04-1zm-4.98-.236c.659.036 1.329.07 1.99.103l-.048.999c-.466-.023-.938-.047-1.402-.072l-.043-.002-.06-.003-.492-.027.055-.998zm-4.977-.308c.658.045 1.328.09 1.99.132l-.064.998a339.06 339.06 0 0 1-1.584-.104l-.045-.003-.052-.004h-.006a343.41 343.41 0 0 1-.308-.022l.069-.997zm-4.97-.382c.657.055 1.326.11 1.987.162l-.078.997-.771-.062-.02-.001a109.535 109.535 0 0 1-.07-.006l-.021-.002-.05-.004h-.01l-.056-.005h-.003l-.993-.083.085-.996zm-4.962-.46c.656.067 1.324.132 1.985.194l-.094.995a302.837 302.837 0 0 1-.342-.032h-.01l-1.64-.161.1-.995zm-4.953-.54c.653.077 1.32.153 1.98.226l-.11.994c-.664-.073-1.332-.15-1.987-.227l.117-.993zM53 47.912c.652.089 1.317.177 1.976.261l-.128.992a270.57 270.57 0 0 1-1.983-.262l.135-.991zm-4.926-.72c.65.102 1.312.203 1.97.3l-.146.99c-.663-.099-1.325-.2-1.978-.301l.154-.988zm-4.912-.82c.645.116 1.305.23 1.961.341l-.166.986-.475-.08h-.001l-.028-.006-.026-.004-.023-.004-.007-.001-1.373-.24-.01-.002-.028-.005.176-.984zm-4.886-.93c.642.13 1.299.26 1.953.387l-.19.982a207.297 207.297 0 0 1-.346-.067l-.017-.004-.022-.004-.005-.001c-.423-.082-.841-.165-1.259-.25h-.001c-.007 0-.015-.003-.023-.004l-.01-.002-.015-.003-.016-.003-.01-.002-.238-.048.2-.98zm-4.861-1.054c.636.147 1.288.294 1.939.437l-.215.977a179.01 179.01 0 0 1-.888-.198l-.007-.001-.021-.005-.015-.003-.013-.003-.024-.006c-.33-.074-.656-.149-.982-.224l.226-.974zm-4.823-1.197c.63.167 1.276.335 1.923.497l-.244.97-.396-.1h-.002l-.025-.007-.01-.002-.014-.004-.016-.004-.005-.001a148.363 148.363 0 0 1-1.468-.382l.257-.967zm-4.77-1.361c.62.19 1.258.38 1.9.566l-.278.96a126.721 126.721 0 0 1-.6-.174l-.01-.003c-.44-.13-.875-.261-1.306-.393l.293-.956zm-4.697-1.56c.606.218 1.234.436 1.866.65l-.32.947c-.41-.138-.815-.278-1.215-.418l-.004-.002-.023-.008-.006-.002-.052-.018-.012-.005a37.31 37.31 0 0 1-.033-.011l-.54-.193.339-.94zm-4.594-1.814c.587.255 1.2.51 1.821.76l-.372.928a70.694 70.694 0 0 1-1.818-.758l-.003-.001a28.304 28.304 0 0 1-.026-.012l.398-.917zm-4.415-2.143c.555.303 1.14.608 1.742.905l-.444.897c-.29-.144-.576-.289-.855-.434l-.015-.007-.004-.002a6.69 6.69 0 0 1-.013-.007l-.003-.002a23.151 23.151 0 0 1-.039-.02l-.006-.003-.011-.006-.003-.001-.012-.007a46.63 46.63 0 0 1-.817-.436l.48-.877zm-4.09-2.606c.49.371 1.022.744 1.581 1.11l-.547.837a29.227 29.227 0 0 1-1.637-1.15l.604-.797zm-3.374-3.273c.35.468.759.94 1.218 1.405l-.711.703a16.65 16.65 0 0 1-.062-.064h-.001l-.009-.01a25.027 25.027 0 0 1-.025-.025l-.004-.004-.006-.006-.005-.005-.005-.006-.006-.006a4.59 4.59 0 0 1-.012-.012l-.002-.003-.01-.01-.002-.002-.01-.01-.002-.002a22.625 22.625 0 0 0-.009-.01l-.001-.001-.01-.01v-.001c-.355-.37-.68-.743-.973-1.12l-.009-.011-.019-.024-.008-.01-.002-.004-.006-.008-.003-.004-.006-.007a.763.763 0 0 0-.003-.004l-.005-.007-.008-.01a.588.588 0 0 1-.003-.004l-.006-.008-.002-.002-.006-.008-.002-.002-.006-.01a13.34 13.34 0 0 1-.06-.079l.8-.599zm-1.64-4.04c.036.56.154 1.128.35 1.687l-.945.33v-.001l-.002-.007a5.545 5.545 0 0 1-.008-.021v-.002l-.01-.029-.001-.001a7.614 7.614 0 0 1-.222-.788 6.573 6.573 0 0 1-.007-.03v-.002a6.703 6.703 0 0 1-.007-.029l-.005-.023-.001-.007v-.002l-.005-.02v-.002l-.002-.006v-.003l-.004-.02v-.002L.14 27.41v-.002l-.003-.014-.001-.006v-.003l-.002-.006v-.002l-.003-.012v-.002l-.001-.006v-.003l-.002-.005v-.004l-.003-.01v-.003l-.001-.005v-.004l-.002-.005a.462.462 0 0 0-.002-.013l-.001-.004v-.005l-.002-.004v-.005l-.002-.008v-.004l-.002-.005v-.004l-.001-.005a.32.32 0 0 1-.001-.004c0-.004 0-.005-.002-.008a.37.37 0 0 1 0-.004l-.001-.006v-.004l-.002-.006v-.003l-.002-.009a.226.226 0 0 1-.002-.009v-.003L.1 27.196a1.979 1.979 0 0 1-.002-.012l-.001-.007v-.003l-.002-.009a1.994 1.994 0 0 0-.007-.04v-.002l-.001-.01-.004-.02-.001-.01-.003-.021a7 7 0 0 1-.066-.603l.998-.064zm.327-4.668.845.534a8.332 8.332 0 0 0-.793 1.594l-.94-.341a8.85 8.85 0 0 1 .53-1.177l.012-.02v-.001l.011-.02.015-.028c0-.001 0 0 0 0l.012-.021.011-.02.001-.002a5.404 5.404 0 0 1 .012-.021l.003-.006.001-.002.006-.01.001-.003.003-.005.003-.004.003-.007.003-.004c0-.002.002-.004.003-.005l.002-.004.005-.009.002-.003.003-.005.001-.003a.942.942 0 0 0 .003-.005l.004-.007.003-.005.002-.004.003-.005.003-.005.004-.006.002-.005.002-.004.004-.005a1.184 1.184 0 0 0 .006-.011l.002-.004a.87.87 0 0 1 .003-.005l.003-.005.004-.007.002-.003.003-.006.002-.003.005-.008a.21.21 0 0 0 .005-.01l.002-.002.005-.009v-.001L1.173 22v-.002l.011-.019.002-.001.01-.02h.001l.012-.02.13-.212zm3.371-3.662.634.773c-.512.42-.987.848-1.41 1.272l-.708-.706c.204-.204.417-.408.64-.61l.01-.01.001-.001.011-.01h.001l.07-.063.01-.01h.001l.01-.01.003-.002.01-.009.001-.002.01-.008.002-.002.009-.008.003-.002.008-.008.003-.003a21.5 21.5 0 0 0 .01-.009h.001l.047-.042.011-.01.003-.002a5.94 5.94 0 0 0 .012-.01l.008-.008a.945.945 0 0 0 .004-.004l.007-.006.004-.004.008-.006.004-.004a3.425 3.425 0 0 1 .011-.01l.008-.006.004-.004.008-.007.003-.003.01-.008.003-.003.01-.01.004-.002.008-.007.005-.005.006-.005.006-.004.006-.006.005-.004.007-.006.005-.005a1.8 1.8 0 0 0 .012-.01l.005-.004.007-.006.004-.004.007-.006.004-.004.008-.006.002-.002.042-.036.01-.009.002-.001.009-.008.003-.002a2.931 2.931 0 0 1 .02-.018l.002-.002.01-.007.002-.002.01-.008v-.002l.01-.008.002-.001c.092-.078.188-.158.282-.235zm4.13-2.81.5.866c-.58.335-1.137.677-1.659 1.017l-.546-.837c.54-.352 1.109-.701 1.705-1.046zm4.453-2.27.413.912c-.609.275-1.205.558-1.773.84l-.444-.897a55.566 55.566 0 0 1 .852-.413l.015-.007.002-.001.016-.007.002-.001.015-.008.01-.004.005-.002c.29-.138.586-.275.887-.411zm4.624-1.902.351.937c-.626.234-1.246.475-1.841.715l-.374-.928c.255-.103.513-.205.774-.307l.003-.001.026-.01h.002l.028-.012h.003l.023-.01.006-.002.027-.01.026-.01.007-.003.022-.01h.004l.026-.01.006-.003.022-.009c.002 0 .004 0 .005-.002l.056-.021.002-.001.028-.01.029-.012h.002l.025-.01.004-.002.056-.021.003-.001c.214-.083.431-.165.65-.247zm4.725-1.63.304.953c-.637.202-1.27.41-1.882.618l-.321-.947.466-.157.006-.002.022-.007.007-.002.02-.007.008-.003.026-.008.01-.004.015-.005.014-.005c.004 0 .008-.002.012-.004l.015-.005a3.144 3.144 0 0 0 .07-.023 107.982 107.982 0 0 1 .745-.243l.019-.007.009-.002.019-.007.022-.007.008-.002.022-.007.006-.002.358-.115zm4.795-1.419.265.965c-.643.177-1.286.359-1.91.54l-.28-.96a133.88 133.88 0 0 1 1.802-.51l.004-.002.023-.006.009-.003.017-.004.015-.005h.004l.051-.015zm4.842-1.244.234.972c-.649.156-1.298.316-1.93.476l-.246-.97.089-.022h.002l.023-.006.009-.002.015-.004a157.259 157.259 0 0 1 .604-.151l.023-.006.007-.002.018-.004.014-.004c.005 0 .01-.002.014-.003l.018-.005.01-.002c.341-.085.686-.169 1.032-.252l.064-.015zm4.879-1.098.206.978c-.652.138-1.306.28-1.944.42l-.217-.975c.645-.144 1.296-.284 1.955-.423zm4.907-.97.183.983c-.655.121-1.313.246-1.956.372l-.192-.982c.65-.126 1.304-.25 1.965-.373zm4.924-.856.16.987c-.656.107-1.317.217-1.964.328l-.17-.985c.653-.112 1.31-.222 1.974-.33zm4.945-.754.141.99c-.658.094-1.321.191-1.97.289l-.15-.99c.062-.008.123-.017.184-.027h.001c.008 0 .015-.002.023-.003l.016-.003h.008c.58-.087 1.16-.172 1.747-.256zm4.955-.658.123.992c-.66.082-1.325.167-1.978.252l-.13-.991a6.337 6.337 0 0 0 .054-.007l.017-.003.048-.006.012-.001.052-.007.007-.001.18-.024.062-.008c.516-.066 1.033-.132 1.553-.196zm4.967-.571.106.994c-.66.07-1.327.144-1.982.218l-.112-.994c.535-.06 1.072-.12 1.612-.178h.003l.06-.007h.001l.312-.033zm4.977-.49.09.997c-.66.06-1.329.122-1.984.185l-.096-.995a314.03 314.03 0 0 1 1.99-.186zm4.985-.41.074.998c-.662.049-1.331.101-1.989.154l-.08-.997c.545-.044 1.087-.086 1.637-.128h.015l.046-.004.05-.004.058-.005h.001l.188-.014zm4.987-.335.06.998c-.662.04-1.332.082-1.991.125l-.066-.998c.662-.043 1.33-.085 1.997-.125zm4.993-.264.045.999c-.662.03-1.333.063-1.992.097L79.799.48c.663-.034 1.332-.066 1.999-.097zM86.794.19l.032 1c-.663.02-1.334.044-1.994.069l-.037-1 .826-.03c.024 0 .044 0 .067-.002h.023l.031-.002.062-.002.047-.001h.014l.043-.002h.015l.052-.003h.013l.05-.002h.006l.065-.002.056-.002h.008l.056-.002h.002l.066-.003.12-.003h.002l.06-.003h.002l.313-.01zm4.998-.125.019 1c-.663.012-1.334.026-1.995.042l-.024-1c.665-.016 1.332-.03 2-.042zm5-.06.005 1c-.662.004-1.333.01-1.995.016l-.01-1 .426-.004h.043l1.003-.008h.092c.145-.002.29-.002.436-.003z" style="fill:#fff;stroke:none" transform="rotate(60 98.287 186.455)"/>
        </g>
        <g data-name="패스 1507935" style="stroke-dasharray:2 3;opacity:.4;fill:none">
            <path d="M123.8 0c68.357-.083 123.75 14.441 123.729 32.44S192.078 65.1 123.725 65.181-.022 50.74 0 32.741 55.451.083 123.8 0z" style="stroke:none" transform="rotate(60 -26.872 84.115)"/>
            <path d="M124.387 0h.158c.561 0 1.124.001 1.683.003h.16l-.003 1c-.663-.002-1.335-.003-1.998-.003V0zm5.002.026c.667.007 1.336.015 2 .025l-.015 1c-.662-.01-1.333-.018-1.995-.025l.01-1zm4.999.079c.667.014 1.334.03 1.999.046l-.026 1c-.66-.017-1.332-.033-1.994-.047l.02-1zm4.998.132c.668.021 1.335.044 2 .068l-.036 1c-.662-.025-1.333-.047-1.996-.069l.032-.999zm4.998.187c.667.028 1.333.058 1.996.09l-.047.999c-.66-.032-1.33-.062-1.992-.09l.043-1zm4.993.242c.665.036 1.335.073 1.996.112l-.058.998c-.66-.038-1.33-.076-1.992-.112l.054-.998zm4.99.298.236.016.034.002c.57.038 1.132.076 1.699.116l.029.002-.07.998c-.66-.047-1.33-.092-1.993-.136l.065-.998zm4.99.358h.001l.048.003c.652.051 1.296.103 1.944.156l-.083.997c-.657-.055-1.326-.108-1.988-.16l.077-.996zm4.982.417a467.584 467.584 0 0 1 1.989.184l-.095.996a394.1 394.1 0 0 0-1.984-.184l.09-.996zm4.975.48c.668.069 1.328.138 1.99.21l-.108.994-1.984-.21.102-.994zm4.97.545c.613.072 1.223.144 1.831.218l.015.002.028.004.114.014-.121.992c-.656-.08-1.323-.16-1.984-.237l.116-.993zm4.963.614c.665.087 1.326.176 1.984.266l-.135.99c-.654-.089-1.32-.178-1.979-.264l.13-.992zm4.954.687c.664.097 1.323.195 1.979.295l-.151.989c-.651-.1-1.315-.199-1.973-.295l.145-.99zm4.942.763c.664.108 1.318.217 1.973.328l-.167.986c-.649-.11-1.31-.22-1.967-.327l.16-.987zm4.928.846c.661.12 1.315.24 1.967.363l-.185.983c-.646-.122-1.305-.244-1.96-.362l.178-.984zm4.91.935.647.13h.001l.028.007c.006 0 .016.003.022.004l.01.002 1.253.259-.204.978c-.643-.134-1.3-.268-1.953-.4l.197-.98zm4.89 1.033.427.096h.005l.024.006.012.003.015.003.022.005.011.003.028.006h.004c.471.107.94.214 1.405.322l-.226.974c-.64-.148-1.293-.297-1.944-.442l.218-.976zm4.87 1.143c.653.162 1.298.325 1.938.49l-.25.968a192.94 192.94 0 0 0-1.928-.487l.24-.97zm4.84 1.266a166.81 166.81 0 0 1 1.924.544l-.278.96c-.627-.18-1.27-.363-1.913-.54l.267-.964zm4.793 1.404c.577.18 1.15.36 1.712.543l.003.001.023.008.013.004.011.004.025.008h.002l.117.038-.31.951a140.45 140.45 0 0 0-1.893-.602l.297-.955zm4.752 1.572a118.991 118.991 0 0 1 .123.043l.021.008.012.004.015.005.016.006a7.375 7.375 0 0 1 .033.011c.563.2 1.114.4 1.66.604l-.35.937c-.607-.226-1.234-.453-1.863-.675l.333-.943zm4.676 1.768.602.247.005.002.018.008.01.004.016.007.011.004.016.007.01.004.016.007.006.002.03.013.017.007.011.004.015.007.013.005.014.006.013.006a8.26 8.26 0 0 0 .027.01l.015.007.012.005.012.005.031.013.008.003.016.007.012.005.015.006.01.005.017.007.009.003.018.008.005.002.092.039.003.001.022.01h.003c.234.1.465.198.695.298l-.397.917a88.906 88.906 0 0 0-1.824-.764l.376-.927zm4.575 2.016a64.071 64.071 0 0 1 1.79.89l-.46.889a65.811 65.811 0 0 0-1.762-.877l.432-.902zm4.417 2.336a46.732 46.732 0 0 1 1.206.732l.016.01.002.002.017.01.001.001.016.01.003.002.033.02a1.037 1.037 0 0 0 .017.011l.004.003.015.01.006.003.01.007.007.004.009.006.011.007.01.006.007.005.01.006.006.004.014.01.006.002.01.007.006.004.013.008.003.002.016.01.003.002.015.01h.002l.034.023.002.001.174.112-.544.84c-.53-.344-1.09-.69-1.667-1.028l.507-.862zm4.155 2.779a28.376 28.376 0 0 1 1.508 1.246l.007.006.007.006.005.005.013.012-.665.746c-.46-.41-.96-.824-1.486-1.23l.611-.791zm3.639 3.412a15.86 15.86 0 0 1 1.017 1.339l.002.002c.059.088.117.175.174.263l-.84.542c-.323-.5-.699-1.004-1.118-1.5l.765-.646zm2.492 4.299.023.07v.002l.003.01.002.004.003.009.001.006.003.007.002.007.002.007.004.012.002.006.003.01.001.005.003.01.001.004.003.01.002.005.003.01v.003a8 8 0 0 1 .014.045v.001l.004.014v.001l.005.014c.106.364.189.73.249 1.097v.002l.002.012v.003l.002.012v.003l.003.014.003.016.002.014v.004l.002.01a.803.803 0 0 1 .002.014l.001.006.001.008.001.007.001.008.002.011.001.008.001.009.001.005.001.009.001.005.002.01v.003l.002.01v.003c.017.125.032.252.044.377l-.995.096a8.262 8.262 0 0 0-.364-1.741l.951-.307zm-.784 4.69.971.24a10.134 10.134 0 0 1-.607 1.744l-.005.013a10.559 10.559 0 0 1-.035.077l-.005.01c0 .002-.001.003-.002.003l-.005.011v.003l-.006.01-.001.003-.004.008-.906-.423a9.259 9.259 0 0 0 .605-1.698zm-2.066 4.053.79.613c-.393.507-.831 1.01-1.313 1.51l-.719-.696c.456-.471.874-.952 1.242-1.427zm-3.366 3.362.63.777-.01.007a1.507 1.507 0 0 1-.003.003l-.008.007-.006.004-.008.007a.758.758 0 0 1-.037.03l-.009.007a1.049 1.049 0 0 1-.013.01l-.004.004-.03.023-.003.003-.009.007-.005.004-.008.007-.003.003-.02.016h-.002l-.007.007-.007.005a9.753 9.753 0 0 0-.007.006l-.005.004a4.29 4.29 0 0 0-.009.007l-.003.002-.031.025-.003.002-.01.008-.004.003-.009.007-.004.003-.03.024-.004.003a4.528 4.528 0 0 1-.008.007l-.005.004-.008.006-.005.004-.029.023-.005.004-.008.006a8.509 8.509 0 0 1-.006.005l-.008.006a1.705 1.705 0 0 0-.006.005l-.028.021-.005.004-.008.007-.005.004-.009.006-.004.004-.03.024-.004.002a4.472 4.472 0 0 1-.009.007l-.005.004-.008.007c-.002 0-.004.002-.005.003a47.373 47.373 0 0 1-.035.027l-.007.006-.007.005-.007.005a2.936 2.936 0 0 0-.008.007l-.017.013h-.001l-.009.007-.005.005-.008.006-.006.004-.008.006-.006.005-.014.011-.006.004-.007.006a4.71 4.71 0 0 1-.007.005l-.007.006-.007.005-.007.005-.007.006-.014.01-.006.005-.008.006a1.462 1.462 0 0 1-.005.004l-.009.006-.006.005-.007.006-.009.006-.005.004a9.991 9.991 0 0 1-.013.01l-.007.006-.007.005a2.405 2.405 0 0 1-.007.005l-.007.005-.007.006-.008.005a33.682 33.682 0 0 1-.04.032l-.007.004-.008.007a1.24 1.24 0 0 0-.005.003l-.031.023-.004.004-.01.007-.003.002-.011.008-.002.002-.036.027-.012.009-.002.001-.011.009a30.58 30.58 0 0 1-.05.037h-.002c-.173.13-.349.258-.528.386l-.581-.814c.541-.387 1.06-.782 1.543-1.173zm-3.987 2.782.52.854c-.295.18-.597.36-.904.538h-.001l-.054.032-.027.015-.054.032h-.002l-.136.079c-.183.104-.368.209-.555.313l-.487-.874a50.256 50.256 0 0 0 1.7-.989zm-4.313 2.36.443.896a68.455 68.455 0 0 1-.351.172l-.014.007a73.334 73.334 0 0 1-1.436.68l-.418-.909a71.776 71.776 0 0 0 1.776-.847zm-4.494 2.038.386.922c-.604.253-1.222.503-1.851.751l-.366-.93c.62-.245 1.237-.495 1.831-.743zm-4.614 1.793.34.94c-.386.14-.776.279-1.17.417l-.004.001-.027.01h-.002l-.026.01h-.004l-.025.01-.005.001-.022.008-.009.003-.021.007-.007.003-.02.007a5.66 5.66 0 0 1-.01.004c-.004 0-.007.002-.01.003l-.526.182-.324-.946c.631-.217 1.261-.44 1.872-.66zm-4.694 1.593.303.953-.596.189-.03.01h-.003l-.025.008-.012.004-.018.005-.012.004-.017.006-.016.005-.013.004-.024.007-.004.001-.026.008-.004.002a55.65 55.65 0 0 1-.026.008h-.003l-.028.01h-.002l-.357.111h-.002l-.028.01h-.002l-.026.008c-.003 0-.003 0-.005.002l-.021.006a12.119 12.119 0 0 0-.028.009l-.016.004-.01.004-.02.006a8.813 8.813 0 0 0-.01.003l-.024.007h-.002l-.5.154-.29-.957c.638-.194 1.276-.393 1.897-.59zm-4.763 1.432.273.962-.022.006-.859.24-.002.002-.029.007-.004.002-.025.007-.008.002-.025.007-.006.001-.023.007-.01.003-.019.005-.013.004-.014.003-.018.005-.01.003-.233.064-.03.008h-.001l-.028.008-.003.001-.026.008-.006.001-.023.006-.01.003-.023.006-.006.002-.022.006-.013.004-.018.005-.02.005-.01.003-.024.006-.007.002-.337.092-.262-.965c.643-.174 1.288-.353 1.916-.531zm-4.798 1.287.246.97-.59.148h-.001l-.165.042-.013.003-.019.005-.017.004-.014.004-.018.004-.012.003-.024.006-.004.001-.027.007h-.003c-.343.086-.688.17-1.034.255l-.237-.971c.648-.158 1.298-.32 1.932-.48zm-4.837 1.166.222.975-.067.015-.005.001-.024.006-.018.004-.01.002c-.362.083-.725.164-1.09.246h-.003l-.028.007h-.003l-.027.006-.018.004-.013.003-.645.143-.214-.977c.65-.143 1.304-.29 1.943-.435zm-4.867 1.057.202.979c-.506.104-1.015.208-1.528.31l-.059.012-.01.002-.043.008-.025.005-.03.006-.264.053-.194-.981c.652-.13 1.308-.262 1.951-.394zm-4.889.958.183.983-1.162.214h-.002l-.05.01-.024.003-.023.004-.704.127-.176-.984c.654-.117 1.313-.237 1.958-.357zm-4.906.868.166.986-1.168.194a118.587 118.587 0 0 1-.075.012l-.013.002-.716.116-.16-.987c.657-.106 1.318-.214 1.966-.323zm-4.921.785.15.988c-.657.1-1.314.197-1.977.293l-.144-.99c.657-.095 1.32-.193 1.97-.291zm-4.934.707.135.991c-.657.09-1.318.177-1.982.263l-.129-.991c.659-.086 1.324-.174 1.976-.263zm-4.944.636.12.992-.648.078-.019.002-.026.004-.04.004-.012.002-.059.007h-.002l-1.18.139-.115-.994c.66-.076 1.326-.155 1.98-.234zm-4.954.566.107.994-.743.08h-.004l-1.244.13-.102-.996c.66-.067 1.329-.137 1.986-.208zm-4.964.501.095.996c-.663.062-1.326.124-1.993.183l-.09-.996c.662-.059 1.33-.12 1.988-.183zm-4.97.439.082.997-.466.038c-.017 0-.03.002-.047.003l-.032.003-.017.001c-.475.039-.952.076-1.43.113l-.076-.997c.66-.051 1.329-.104 1.986-.158zm-4.971.378.07.997c-.66.046-1.332.092-1.996.135l-.065-.998c.662-.043 1.332-.088 1.99-.134zm-4.978.32.058.998-1.06.06c-.004 0 .003 0 0 0a318.597 318.597 0 0 1-.178.01l-.017.001-.054.003h-.002l-.062.004-.626.034-.054-.999c.663-.035 1.334-.073 1.995-.112zm-4.984.262.047 1-1.361.061-.046.002-.59.026-.042-1c.662-.028 1.332-.058 1.992-.089zm-4.983.207.036 1c-.416.015-.832.03-1.248.043l-.059.002h-.006l-.057.002h-.009a111.6 111.6 0 0 1-.62.02l-.032-.999c.663-.02 1.334-.044 1.995-.068zm-4.987.153.025 1c-.664.017-1.334.032-2.002.046l-.02-1c.663-.013 1.335-.029 1.997-.046zm-4.99.1.014 1c-.663.01-1.332.018-1.998.025l-.01-1c.662-.007 1.333-.015 1.994-.025zm-4.988.047.004 1a477.675 477.675 0 0 1-1.996.004l-.006-1h.006a510.057 510.057 0 0 0 1.992-.004zm-6.99-.022c.663.007 1.335.012 1.998.017l-.006 1-.11-.001a477.12 477.12 0 0 1-1.892-.016l.01-1zm-4.988-.079c.661.014 1.332.027 1.995.038l-.017 1c-.67-.011-1.331-.024-1.999-.038l.021-1zm-4.987-.132c.66.021 1.332.041 1.994.06l-.027.999c-.667-.018-1.335-.038-1.999-.06l.032-.999zm-4.987-.186c.66.028 1.332.055 1.995.08l-.038 1a460.006 460.006 0 0 1-1.892-.076l-.037-.002h-.018l-.053-.003.043-1zm-4.982-.242c.66.036 1.33.07 1.992.104l-.05.998a446.98 446.98 0 0 1-1.996-.103l.054-.999zm-4.979-.298c.66.044 1.329.086 1.99.126l-.06.998a430.948 430.948 0 0 1-1.988-.125h-.008l.066-.999zm-4.977-.356 1.992.15-.073.997a390.453 390.453 0 0 1-1.997-.15l.078-.997zm-4.97-.417c.657.06 1.326.118 1.987.174l-.085.997a465.256 465.256 0 0 1-1.992-.175l.09-.996zm-4.963-.479c.656.068 1.323.135 1.983.2l-.097.995c-.666-.065-1.329-.132-1.989-.2l.103-.995zm-4.956-.543c.655.076 1.32.152 1.98.225l-.11.994c-.666-.074-1.326-.15-1.985-.226l.115-.993zm-4.95-.613c.654.086 1.32.171 1.98.254l-.124.992-.114-.014-.051-.007c-.612-.076-1.215-.154-1.82-.233l.13-.992zm-4.938-.684c.652.095 1.317.19 1.976.283l-.138.99-.124-.017-.007-.001-.04-.006c-.606-.085-1.212-.172-1.812-.26l.145-.99zm-4.926-.761c.65.106 1.313.212 1.97.314l-.154.988c-.662-.103-1.322-.208-1.977-.315l.16-.987zm-4.91-.843c.647.117 1.308.234 1.964.348l-.171.985c-.665-.115-1.316-.23-1.972-.35l.178-.983zm-4.893-.932c.644.13 1.303.258 1.957.384l-.189.982-1.076-.21-.01-.001-.062-.012-.01-.002a48.124 48.124 0 0 1-.05-.01l-.045-.009-.024-.005-.025-.005-.044-.008-.019-.004a93.22 93.22 0 0 1-.043-.009c-.006 0-.01-.001-.015-.003l-.043-.008-.018-.004-.05-.01-.01-.002a258.01 258.01 0 0 1-.053-.01h-.002l-.057-.012-.006-.001-.056-.011-.007-.002-.115-.023h-.005l-.12-.025.197-.98zm-4.87-1.029c.64.142 1.295.285 1.946.424l-.209.978-.173-.037-.014-.003-.008-.002c-.376-.08-.758-.163-1.13-.245l-.012-.003a224.768 224.768 0 0 1-.616-.136l.217-.976zm-4.846-1.138c.635.158 1.286.315 1.933.469l-.23.973c-.655-.155-1.301-.312-1.943-.47l.24-.972zm-4.813-1.258c.63.174 1.275.348 1.92.519l-.256.966-.21-.055-.016-.005-.01-.002c-.571-.152-1.135-.305-1.695-.46l.267-.963zm-4.763-1.396c.622.194 1.262.388 1.901.577l-.284.959-.275-.082-.022-.007a150.385 150.385 0 0 1-1.616-.492l.296-.955zm-4.716-1.56a124.1 124.1 0 0 0 1.876.645l-.317.948c-.305-.102-.608-.205-.908-.308h-.002l-.025-.009-.004-.001-.023-.008-.009-.003-.018-.007-.012-.003-.017-.006-.012-.005-.017-.005-.01-.004-.018-.006-.016-.006a12.942 12.942 0 0 1-.012-.004l-.023-.008-.005-.001-.117-.04-.001-.001a60.9 60.9 0 0 0-.029-.01l-.027-.01-.008-.002-.022-.008-.006-.002-.023-.008a2.468 2.468 0 0 1-.034-.012l-.023-.008-.009-.003-.02-.007-.008-.003-.02-.007-.01-.003a15.341 15.341 0 0 0-.019-.007l-.01-.003a32.585 32.585 0 0 1-.017-.006l-.013-.005-.016-.005-.012-.005-.015-.005-.015-.005-.012-.004-.016-.006-.01-.003-.248-.088.332-.943zm-4.632-1.752c.598.243 1.218.488 1.842.727l-.357.934-.148-.057h-.001l-.025-.01-.01-.004-.014-.005-.019-.008h-.003a98.75 98.75 0 0 1-1.642-.65l.377-.927zm-4.52-1.992c.58.278 1.182.557 1.793.83l-.408.913a75.073 75.073 0 0 1-1.817-.84l.432-.903zm-4.342-2.296c.547.32 1.122.644 1.71.96l-.475.88c-.39-.21-.771-.42-1.144-.633l-.006-.003-.014-.008-.01-.006-.012-.007-.021-.012-.01-.005-.016-.01-.007-.004-.022-.012-.002-.001-.026-.015h-.001a50.787 50.787 0 0 1-.45-.262l.506-.862zm-4.05-2.709a33.94 33.94 0 0 0 1.575 1.143l-.564.825c-.57-.389-1.109-.78-1.622-1.176l.611-.792zm-3.484-3.267c.389.462.825.928 1.297 1.385l-.696.718c-.482-.467-.926-.94-1.33-1.415v-.001l-.01-.011-.001-.002a4.192 4.192 0 0 1-.009-.01l-.002-.003-.008-.01-.002-.002-.004-.004.765-.645zm-2.304-3.96c.178.552.42 1.113.718 1.665l-.88.475a11.951 11.951 0 0 1-.153-.292l-.006-.012-.006-.012v-.001l-.023-.046-.003-.005-.003-.007a1.426 1.426 0 0 1-.007-.013l-.004-.008-.002-.006-.004-.008-.003-.005-.004-.01-.003-.004-.006-.012a12.757 12.757 0 0 1-.02-.043l-.007-.014v-.001a5.656 5.656 0 0 1-.007-.013v-.002l-.007-.013a11.114 11.114 0 0 1-.194-.43 4.878 4.878 0 0 1-.005-.013l-.001-.002-.005-.012-.001-.002-.005-.012-.001-.002-.006-.013v-.001a9.51 9.51 0 0 1-.018-.042v-.003a1.723 1.723 0 0 1-.005-.01l-.002-.005-.004-.01-.002-.004-.003-.01-.002-.004-.004-.009-.002-.005a1.835 1.835 0 0 1-.003-.008l-.003-.006-.002-.007-.012-.028-.002-.005a2.11 2.11 0 0 1-.003-.009L.68 36.19a2.17 2.17 0 0 1-.004-.01l-.001-.004-.004-.009-.002-.004-.003-.01-.002-.003c0-.003-.003-.007-.004-.01v-.002c-.08-.2-.15-.398-.215-.6l.952-.306zM.263 30.608l.97.239a7.99 7.99 0 0 0-.232 1.757l-1-.019c.004-.163.011-.326.023-.49l.001-.013.006-.064v-.017l.002-.01v-.003l.001-.01v-.001l.003-.036v-.004l.002-.01V31.916l.001-.006.001-.008v-.006l.002-.009v-.003l.002-.018v-.006l.001-.008v-.006l.002-.008v-.007l.001-.007v-.007l.002-.007v-.01l.002-.007v-.011l.001-.007.001-.008.001-.006.001-.008v-.007l.002-.008v-.006l.001-.008.001-.006.002-.014v-.005l.001-.01.001-.005.001-.009.001-.006.001-.008v-.007l.002-.008v-.006l.002-.01v-.005l.002-.013.001-.006.001-.009a.81.81 0 0 1 .002-.014v-.006l.002-.01a.673.673 0 0 1 .002-.015v-.004l.003-.014v-.004l.002-.01v-.006l.002-.01v-.005l.002-.01v-.004l.002-.01a.429.429 0 0 0 .003-.018v-.001l.002-.015v-.003l.002-.011.001-.005.002-.01v-.005l.002-.01v-.004l.002-.012v-.003c.002-.004.002-.01.003-.014v-.002l.002-.013.001-.004.002-.01v-.005l.002-.01.001-.005.002-.01V31.3l.005-.03v-.001l.003-.013v-.004l.002-.01.001-.005.002-.01v-.005l.003-.012v-.002l.005-.03.001-.003.002-.011v-.004l.003-.011v-.004l.003-.012v-.002l.006-.03v-.002l.003-.013a.19.19 0 0 1 0-.003l.002-.012.001-.003.002-.012v-.002l.01-.045v-.002l.003-.013v-.003l.003-.012v-.003l.003-.014.01-.046v-.001l.003-.014V30.9l.003-.014v-.001l.014-.06v-.002c0-.005.002-.01.003-.014.015-.067.03-.134.047-.2zm2.249-4.426.79.613a13.42 13.42 0 0 0-1.039 1.54l-.868-.497c.32-.557.692-1.108 1.117-1.656zm3.527-3.525.63.777c-.514.417-1 .842-1.445 1.263l-.687-.727c.188-.177.382-.356.581-.532l.013-.012h.001l.027-.024.001-.001.012-.01.003-.003.01-.008c0-.002.002-.003.004-.005a3.778 3.778 0 0 0 .013-.011l.008-.007.005-.004.007-.007.015-.013.002-.002.01-.008.002-.002.01-.008.003-.003.01-.009c.001-.001 0 0 0 0 .247-.216.502-.43.765-.644zm4.097-2.858.52.854c-.568.347-1.12.7-1.641 1.052l-.56-.83a41.9 41.9 0 0 1 .249-.165l.032-.022.007-.004.008-.006a1.93 1.93 0 0 0 .014-.009c.441-.292.899-.582 1.371-.87zm4.39-2.401.444.896c-.601.297-1.192.6-1.756.902l-.471-.882.08-.043c.002 0 .003-.002.005-.003l.018-.01.011-.005.011-.006c.326-.173.653-.343.99-.514l.002-.001a74.432 74.432 0 0 1 .064-.033l.017-.008.007-.004.018-.009a69.322 69.322 0 0 1 .068-.034l.018-.01c.001 0 .003 0 .004-.002l.059-.029.005-.002.018-.01.005-.002.019-.01h.002a79.144 79.144 0 0 1 .065-.033l.02-.01.278-.138zm4.552-2.065.385.923a85.74 85.74 0 0 0-1.816.783l-.406-.914c.538-.24 1.087-.477 1.647-.712l.01-.004.011-.005.02-.008.005-.002.144-.06zm4.66-1.81.34.94c-.628.227-1.254.46-1.859.692l-.357-.934c.615-.235 1.238-.468 1.876-.698zm4.73-1.606.304.953c-.635.202-1.27.41-1.887.616l-.317-.948.41-.137h.003l.026-.01h.004l.023-.009.01-.002.02-.008.007-.002.023-.007a2.498 2.498 0 0 1 .039-.013l.017-.006.013-.004.018-.006.01-.003.018-.006.013-.004.017-.006.013-.004.014-.005.017-.006c.004 0 .009-.002.013-.004l.015-.005a13.363 13.363 0 0 0 .042-.014l.02-.006.006-.002.025-.008.004-.001.026-.01h.002c.343-.112.684-.222 1.033-.333zm4.794-1.44.273.961c-.642.182-1.284.369-1.91.554l-.284-.958c.552-.164 1.11-.326 1.674-.487l.006-.002.019-.005.013-.004.013-.004.022-.006h.003l.171-.05zm4.825-1.295.246.97c-.646.163-1.294.331-1.926.499l-.256-.967a199.449 199.449 0 0 1 1.936-.502zm4.86-1.171.224.975c-.65.148-1.301.3-1.938.452L41 8.466c.643-.153 1.292-.305 1.947-.454zm4.888-1.061.202.98c-.65.133-1.306.271-1.947.409l-.21-.978c.646-.139 1.298-.276 1.955-.411zm4.908-.962.183.983c-.653.122-1.311.247-1.956.372l-.19-.982.385-.074.018-.004.036-.007.044-.008.008-.002c.488-.094.979-.186 1.472-.278zm4.924-.871.165.986c-.655.11-1.316.223-1.963.337l-.173-.985c.655-.115 1.308-.227 1.97-.338zm4.937-.788.15.99c-.657.099-1.32.2-1.97.303l-.155-.987.588-.093.01-.001.032-.005.033-.005.02-.003.049-.008.01-.002.489-.075.058-.009.014-.002.035-.005.637-.098zm4.949-.71.134.992c-.657.089-1.32.18-1.972.273l-.14-.99a371.514 371.514 0 0 1 1.477-.206l.01-.001.05-.007.008-.001.048-.007.03-.004.018-.002.337-.046zm4.958-.636.12.993c-.658.08-1.323.162-1.977.245l-.126-.992c.658-.084 1.319-.166 1.983-.246zm4.968-.568.107.994c-.66.071-1.327.145-1.982.219l-.113-.994c.658-.074 1.324-.148 1.988-.22zm4.976-.503.094.996c-.661.062-1.33.127-1.987.193l-.1-.995.49-.049.016-.001.038-.004.033-.003.034-.004c.011 0 .021-.002.032-.003l.017-.001c.44-.044.89-.087 1.333-.129zm4.982-.44.082.997c-.662.055-1.332.111-1.99.169l-.087-.997c.663-.057 1.328-.114 1.995-.168zm4.984-.378.07.998c-.661.046-1.33.094-1.988.143l-.074-.997.181-.013.04-.003h.006c.587-.044 1.175-.087 1.765-.128zm4.99-.32.058.998c-.662.039-1.332.08-1.992.121l-.063-.998c.662-.042 1.33-.082 1.996-.121zm4.995-.264.047 1c-.663.03-1.335.064-1.996.098l-.051-.999c.665-.034 1.331-.067 2-.099zM107.4.304l.036 1c-.662.023-1.333.049-1.993.075l-.04-.999a456.37 456.37 0 0 1 1.96-.075l.037-.001zm4.997-.154.025 1c-.662.017-1.333.035-1.994.055l-.03-1 .37-.01.046-.002a460.477 460.477 0 0 1 1.583-.042zm5.001-.1.015 1c-.663.01-1.335.022-1.997.034l-.02-1c.666-.012 1.334-.023 2.002-.033zm4.998-.046.004 1c-.662.003-1.333.007-1.994.012l-.008-1a479.302 479.302 0 0 1 1.704-.01h.02l.026-.001.248-.001z" style="fill:#fff;stroke:none" transform="rotate(60 -26.872 84.115)"/>
        </g>
        <g data-name="타원 4805" transform="translate(11.209 14.74)" style="opacity:.12;stroke:#fff;fill:none">
            <ellipse cx="140.636" cy="140.242" rx="140.636" ry="140.242" style="stroke:none"/>
            <ellipse cx="140.636" cy="140.242" rx="140.136" ry="139.742" style="fill:none"/>
        </g>
    </g>
    <g data-name="그룹 629371">
        <g data-name="타원 4806" transform="translate(280.512 139.068)" style="fill:#201e24;stroke:#fff">
            <ellipse cx="1.496" cy="1.492" rx="1.496" ry="1.492" style="stroke:none"/>
            <ellipse cx="1.496" cy="1.492" rx=".996" ry=".992" style="fill:none"/>
        </g>
        <g data-name="타원 4807" transform="translate(85.018 121.165)" style="fill:#0c0c0e;stroke:#fff">
            <ellipse cx="1.496" cy="1.492" rx="1.496" ry="1.492" style="stroke:none"/>
            <ellipse cx="1.496" cy="1.492" rx=".996" ry=".992" style="fill:none"/>
        </g>
        <g data-name="타원 4808" transform="translate(258.569 176.859)" style="fill:#201c1e;stroke:#fff">
            <circle cx="1.5" cy="1.5" r="1.5" style="stroke:none"/>
            <circle cx="1.5" cy="1.5" r="1" style="fill:none"/>
        </g>
        <g data-name="타원 4809" transform="translate(50.106 179.284)" style="fill:#110f11;stroke:#fff">
            <circle cx="1.5" cy="1.5" r="1.5" style="stroke:none"/>
            <circle cx="1.5" cy="1.5" r="1" style="fill:none"/>
        </g>
    </g>
    <g data-name="그룹 629372">
        <path data-name="패스 1507509" d="m-14199.439 8897.95 10.025-4.418h1.25l4.773-2.512h.351l4.831-2.269 9.047 3.581-4.308 2.729-.434-.129-12.891 8.558z" transform="translate(14450.762 -8800.333)" style="fill:#fff;stroke-width:.5px;stroke:#fff"/>
        <path data-name="패스 1507510" d="m-14068.136 8921.311-1.443 3.812.415.214-4.621 12.491 15.218 6.228.256-9.732-.464-.286v-3.042h.744v-5.872z" transform="translate(14374.281 -8820.187)" style="fill:#fff;stroke-width:.5px;stroke:#fff"/>
        <path data-name="패스 1507511" d="m-14108.577 8926.6-.152.8 1.576.627.15-.754" transform="translate(14395.549 -8823.414)" style="opacity:.3;stroke-width:.5px;stroke:#fff;fill:none"/>
        <path data-name="패스 1507512" d="m-14054.387 8951.3-12.724-4.926" transform="translate(14370.218 -8835.47)" style="stroke:#000;opacity:.3;stroke-width:.5px;fill:none"/>
        <path data-name="패스 1507513" d="m-14061.975 8931.621 10.976 4.276" transform="translate(14367.091 -8826.47)" style="stroke:#000;opacity:.3;stroke-width:.5px;fill:none"/>
        <path data-name="패스 1507514" d="m-14158.062 8894.735 9.269 3.841" transform="translate(14425.578 -8803.981)" style="stroke:#000;opacity:.3;stroke-width:.5px;fill:none"/>
        <path data-name="패스 1507515" d="m-14166.255 8907.222-11.378-4.207" transform="translate(14437.49 -8809.031)" style="stroke:#000;opacity:.3;stroke-width:.5px;fill:none"/>
        <g data-name="패스 1507936" style="fill:#fff">
            <path d="M9.561 6.776c-2.527 0-4.898-.36-6.676-1.011C1.21 5.151.249 4.333.25 3.521c0-.814.965-1.635 2.646-2.252C4.68.614 7.056.252 9.588.25h.02c2.528 0 4.9.359 6.678 1.01 1.675.615 2.635 1.433 2.634 2.245 0 .814-.965 1.635-2.645 2.252-1.784.655-4.161 1.017-6.693 1.019h-.02z" style="stroke:none" transform="rotate(17 -169.821 988.257)"/>
            <path d="M9.609.5h-.02c-2.504.002-4.85.358-6.607 1.004C1.428 2.074.5 2.828.5 3.52c0 .69.923 1.442 2.47 2.01 1.752.641 4.093.995 6.591.995h.02c2.504-.002 4.85-.359 6.607-1.004 1.554-.57 2.482-1.324 2.482-2.017 0-.691-.923-1.442-2.47-2.01C14.448.855 12.107.5 9.609.5m0-.5c5.284 0 9.563 1.568 9.561 3.505-.001 1.94-4.294 3.517-9.588 3.52C4.29 7.03-.002 5.46 0 3.52.002 1.58 4.294.004 9.588 0h.02z" style="fill:#fff;stroke:none" transform="rotate(17 -169.821 988.257)"/>
        </g>
        <g data-name="패스 1507937" style="fill:none">
            <path d="M6.457 0c3.565 0 6.455.869 6.454 1.947S10.019 3.9 6.454 3.9 0 3.034 0 1.957 2.892 0 6.457 0z" style="stroke:none" transform="rotate(17 -179.222 997.556)"/>
            <path d="M6.466.5h-.009c-1.676.001-3.246.198-4.42.554C.783 1.434.5 1.844.5 1.957c0 .113.28.52 1.529.898 1.17.353 2.735.548 4.408.548h.016c1.677-.001 3.247-.198 4.42-.553 1.255-.38 1.537-.79 1.537-.904 0-.113-.28-.52-1.528-.898C9.712.695 8.147.5 6.474.5h-.008m.008-.5c3.557 0 6.437.87 6.436 1.947 0 1.077-2.891 1.953-6.456 1.956C2.889 3.906-.001 3.034 0 1.957 0 .879 2.892.003 6.457 0h.017z" style="fill:#000;stroke:none" transform="rotate(17 -179.222 997.556)"/>
        </g>
        <path data-name="패스 1507516" d="m-14127 8918.3-1.635.959-.712 2.361-.739.666-1.115 4.7.478.156-.255 1.147-1.232.777-.757 3.438 10.289 4.184 4.715-6.818 2.605-8.248" transform="translate(14410.302 -8818.352)" style="stroke-width:.5px;stroke:#fff;fill:none"/>
        <path data-name="패스 1507517" d="m-14123.841 8926.81 10.619 4.2-3.929 10.818" transform="translate(14404.749 -8823.539)" style="stroke-width:.5px;stroke:#fff;fill:none"/>
        <path data-name="패스 1507518" d="m-14096.7 8931.107 3.116-4.118" transform="translate(14388.228 -8823.651)" style="stroke-width:.5px;stroke:#fff;fill:none"/>
        <path data-name="패스 1507519" d="m-14121.7 8920.968 10.157 4.129-.476 2.337" transform="translate(14403.445 -8819.974)" style="stroke-width:.5px;stroke:#fff;fill:none"/>
        <path data-name="패스 1507520" d="m-14095.75 8928.561 1.6-1.958" transform="translate(14387.647 -8823.414)" style="stroke-width:.5px;stroke:#fff;fill:none"/>
        <path data-name="패스 1507521" d="m-14122.255 8946.646 2.513-7.7-8.2-3.272-2.088 7.843" transform="translate(14408.514 -8828.942)" style="stroke-width:.5px;stroke:#fff;fill:none"/>
        <path data-name="패스 1507522" d="m-14124.63 8933.811 1.033-1.192 8.2 3.447-2.538 7.42-1.037 1.338" transform="translate(14405.228 -8827.079)" style="stroke-width:.5px;stroke:#fff;fill:none"/>
        <g data-name="타원 4812" transform="translate(280.844 108.808)" style="stroke-width:.5px;stroke:#fff;fill:none">
            <ellipse cx="1.174" cy="1.171" rx="1.174" ry="1.171" style="stroke:none"/>
            <ellipse cx="1.174" cy="1.171" rx=".924" ry=".921" style="fill:none"/>
        </g>
        <g data-name="타원 4813" transform="translate(284.366 110.368)" style="stroke-width:.5px;stroke:#fff;fill:none">
            <ellipse cx="1.174" cy="1.171" rx="1.174" ry="1.171" style="stroke:none"/>
            <ellipse cx="1.174" cy="1.171" rx=".924" ry=".921" style="fill:none"/>
        </g>
        <g data-name="타원 4814" transform="translate(279.67 112.321)" style="stroke-width:.5px;stroke:#fff;fill:none">
            <ellipse cx="1.174" cy="1.171" rx="1.174" ry="1.171" style="stroke:none"/>
            <ellipse cx="1.174" cy="1.171" rx=".924" ry=".921" style="fill:none"/>
        </g>
        <g data-name="타원 4815" transform="translate(283.192 113.881)" style="stroke-width:.5px;stroke:#fff;fill:none">
            <ellipse cx="1.174" cy="1.171" rx="1.174" ry="1.171" style="stroke:none"/>
            <ellipse cx="1.174" cy="1.171" rx=".924" ry=".921" style="fill:none"/>
        </g>
        <path data-name="패스 1507523" d="m-14124.241 8947.563.542-1.711" transform="translate(14404.989 -8835.15)" style="opacity:.3;stroke-width:.5px;stroke:#fff;fill:none"/>
        <path data-name="패스 1507524" d="m-14118.3 8944 1.911.72" transform="translate(14401.374 -8834.022)" style="opacity:.3;stroke-width:.5px;stroke:#fff;fill:none"/>
        <path data-name="패스 1507525" d="m-14112.9 8950.571-.544 1.773" transform="translate(14398.417 -8838.029)" style="opacity:.3;stroke-width:.5px;stroke:#fff;fill:none"/>
        <path data-name="패스 1507526" d="m-14121.976 8954.889 1.693.614" transform="translate(14403.611 -8840.66)" style="opacity:.3;stroke-width:.5px;stroke:#fff;fill:none"/>
        <g data-name="합치기 34" style="fill:#121212">
            <path d="m9.741 9.795-.318-.034-.386-.042-.193-.02-.027-.193L7.786 2.2 6.146 8.88l-.06.247-.247-.065-.374-.1-.243-.065.066-.242c.011-.043 1.089-4.04 1.756-7.002L.513 6.743l-.146.114-.152-.106-.359-.252-.275-.194.265-.207C-.03 6 5.724 1.542 7.336.295L7.38.08l.184.036.137-.107.27-.208.34-.264.06.428.046.335 1.279 9.177.044.317z" style="stroke:none" transform="translate(283.549 93.522)"/>
            <path d="M9.45 9.512 8.123 0l-.268.207-.228.177-.054-.01a1.32 1.32 0 0 0-.012.062A22884.04 22884.04 0 0 0 0 6.294l.359.252s5.25-4.093 7.079-5.517c-.65 3.026-1.909 7.69-1.909 7.69l.375.1L7.852.881l1.212 8.59.385.041m.584.566-1.41-.152L7.72 3.52 6.39 8.938l-.123.496-1.351-.361.13-.484c.011-.04.932-3.457 1.597-6.307L.666 6.94l-.292.227-1.213-.852.53-.415L7.11.153l.078-.364.313.06 1-.772.165 1.19 1.367 9.81z" style="fill:#fff;stroke:none" transform="translate(283.549 93.522)"/>
        </g>
        <g data-name="패스 1507938" style="fill:#121212">
            <path d="M.25.922v-.67L1.708.25v.671L.25.922z" style="stroke:none" transform="rotate(17 -164.678 1019.102)"/>
            <path d="M1.457.5.5.501v.171h.956V.5m.5-.5v1.171L0 1.172V.002L1.958 0z" style="fill:#fff;stroke:none" transform="rotate(17 -164.678 1019.102)"/>
        </g>
        <path data-name="패스 1507527" d="M-14089.332 8932.618c.184.093 9.164 3.455 9.164 3.455" transform="translate(14383.744 -8827.079)" style="stroke-width:.5px;stroke:#fff;fill:none"/>
        <path data-name="패스 1507528" d="M-14084.824 8926.6c.164.012 8.38 3.056 8.38 3.056" transform="translate(14381 -8823.414)" style="stroke-width:.5px;stroke:#fff;fill:none"/>
        <path data-name="패스 1507529" d="M-14075.039 8933.955c.1-.306 1.249-2.609 1.249-2.609" transform="translate(14375.043 -8826.306)" style="stroke-width:.5px;stroke:#fff;fill:none"/>
        <path data-name="패스 1507530" d="M-14143.844 8911.267c.118.024 8.717 3.538 8.717 3.538" transform="translate(14416.923 -8814.06)" style="stroke-width:.5px;stroke:#fff;fill:none"/>
        <path data-name="패스 1507531" d="m-14136.395 8906.291 4.685 1.951" transform="translate(14412.388 -8811.026)" style="stroke-width:.5px;stroke:#fff;fill:none"/>
        <path data-name="패스 1507532" d="m-14136.395 8911.4 2.984-1.914" transform="translate(14412.388 -8812.977)" style="stroke-width:.5px;stroke:#fff;fill:none"/>
        <path data-name="패스 1507533" d="m-14411.8 6945.467.983-1.055" transform="translate(14700.539 -6835.443)" style="stroke-width:.5px;stroke:#fff;fill:none"/>
    </g>
    <g data-name="그룹 629373">
        <path data-name="패스 1507534" d="M16.43 30.53 0 30.525l.869-2.764 9.565-8.995.8-2.634.148-.9L13.54 0h8.383l2.162 15.234.149.9.8 2.634 9.571 9 .87 2.764z" transform="scale(-1) rotate(-83.98 -151.18 -25.144)" style="stroke-width:.5px;stroke:#fff;fill:none"/>
        <path data-name="합치기 35" d="M.008 38.811 0 11.871h8.359l.008 26.94zM0 11.871A43.553 43.553 0 0 1 3.348.7c.252-.508.514-.7.817-.7s.543.112.821.669a43.18 43.18 0 0 1 3.372 11.2z" transform="scale(-1) rotate(-83.98 -164.56 -26.725)" style="fill:#121212;stroke-width:.5px;stroke:#fff"/>
        <path data-name="패스 1507536" d="M1.937 0A6.908 6.908 0 0 0 .242 2.294 61.953 61.953 0 0 0 0 8.579h5.171V.11" transform="scale(-1) rotate(-83.98 -142.29 -45.273)" style="stroke-width:.5px;stroke:#fff;fill:none"/>
        <path data-name="패스 1507537" d="M3.232 0a6.918 6.918 0 0 1 1.7 2.295 61.956 61.956 0 0 1 .241 6.285L0 8.578V.109" transform="scale(-1) rotate(-83.98 -145.273 -48.59)" style="stroke-width:.5px;stroke:#fff;fill:none"/>
        <path data-name="패스 1507538" d="M0 0v2.377L.749 4.9h7.977l.833-2.525V0" transform="scale(-1) rotate(-83.98 -137.934 -50.017)" style="fill:#fff;stroke-width:.5px;stroke:#fff"/>
        <path data-name="패스 1507539" d="M.651 0H0v2.491l12.437 2.467" transform="scale(-1) rotate(-83.98 -133.994 -40.153)" style="stroke-width:.5px;stroke:#fff;fill:none"/>
        <path data-name="패스 1507540" d="M0 4.918c.12 0 12.7-2.257 12.7-2.257V0h-1.467" transform="scale(-1) rotate(-83.98 -145.925 -53.405)" style="stroke-width:.5px;stroke:#fff;fill:none"/>
        <path data-name="패스 1507541" d="m0 3.115.825-.455v-.681l.791-.794c-.006.006 2.482 0 2.482 0l.792.794v.681l.8.517V1.78L4.366.476 2.868 0l-1.7.6L0 1.778z" transform="scale(-1) rotate(-83.98 -161.985 -30.383)" style="fill:#fff"/>
        <g data-name="사각형 461628" style="opacity:.3;stroke-width:.5px;stroke:#fff;fill:none">
            <path style="stroke:none" d="M0 0h1.194v1.198H0z" transform="scale(-1) rotate(-83.98 -160.621 -33.27)"/>
            <path style="fill:none" d="M.25.25h.694v.698H.25z" transform="scale(-1) rotate(-83.98 -160.621 -33.27)"/>
        </g>
        <g data-name="패스 1507542" style="opacity:.3;fill:none">
            <path d="M0 0h1.194v1.2H0z" style="stroke:none" transform="scale(-1) rotate(-83.98 -161.335 -34.074)"/>
            <path d="M0 0h1.194v1.198H0V0z" style="fill:#fff;stroke:none" transform="scale(-1) rotate(-83.98 -161.335 -34.074)"/>
        </g>
        <path data-name="패스 1507543" d="m0 0 .008 26.762" transform="scale(-1) rotate(-83.98 -160.043 -34.992)" style="opacity:.3;stroke-width:.5px;stroke:#fff;fill:none"/>
        <path data-name="패스 1507544" d="M0 0h8.359" transform="scale(-1) rotate(-83.98 -146.547 -42.943)" style="opacity:.3;stroke-width:.5px;stroke:#fff;fill:none"/>
        <path data-name="패스 1507545" d="M0 0h8.359" transform="scale(-1) rotate(-83.98 -150.537 -39.35)" style="opacity:.3;stroke-width:.5px;stroke:#fff;fill:none"/>
        <path data-name="패스 1507546" d="M0 0h8.359" transform="scale(-1) rotate(-83.98 -154.527 -35.757)" style="opacity:.3;stroke-width:.5px;stroke:#fff;fill:none"/>
        <path data-name="패스 1507547" d="M0 0h12.433" transform="scale(-1) rotate(-83.98 -133.32 -40.76)" style="stroke-width:.5px;stroke:#fff;fill:none"/>
        <path data-name="패스 1507548" d="M0 0h12.61" transform="scale(-1) rotate(-83.98 -145.185 -53.952)" style="stroke-width:.5px;stroke:#fff;fill:none"/>
        <path data-name="패스 1507549" d="M0 0h4.422" transform="scale(-1) rotate(-83.98 -163.462 -29.834)" style="stroke-width:.5px;stroke:#fff;fill:none"/>
    </g>
    <g data-name="그룹 629376">
        <path data-name="패스 1507550" d="M-12349-1629.76c-.145.065-15.924 8.926-15.924 8.926l.135.519 38.06-9.073 9.605-8.811-.155-.69z" transform="translate(12543.44 1745.034)" style="stroke-width:.5px;stroke:#fff;fill:none"/>
        <path data-name="패스 1507551" d="m-12343.718-1622.444-.444 5.408 16.366 4.5 27.3-4.993.241-10.877-3.012-8.624-2.044-1.807" transform="translate(12531.467 1745.005)" style="stroke-width:.5px;stroke:#fff;fill:none"/>
        <path data-name="패스 1507552" d="m-12298-1598.689.269.446 28.773-3.793-4.607-12.062" transform="translate(12504.846 1730.708)" style="stroke-width:.5px;stroke:#fff;fill:none"/>
        <g data-name="타원 4816" transform="rotate(-11 697.297 -1108.405)" style="stroke-width:2px;stroke:#fff;fill:none">
            <ellipse cx="2.755" cy="6.967" rx="2.755" ry="6.967" style="stroke:none"/>
            <ellipse cx="2.755" cy="6.967" rx="1.755" ry="5.967" style="fill:none"/>
        </g>
        <path data-name="패스 1507553" d="m-12343.381-1595.166 32.658-5.87 10.553 5.21" transform="translate(12531.016 1723.159)" style="stroke-width:.5px;stroke:#fff;fill:none"/>
        <path data-name="패스 1507554" d="m-12267.558-1613.143 1.535-8.845-2.984.265" transform="translate(12488.128 1735.267)" style="stroke-width:.5px;stroke:#fff;fill:none"/>
        <path data-name="패스 1507555" d="m-12261.954-1621.988 3.267 2.272-1.2 8.435" transform="translate(12484.06 1735.267)" style="stroke-width:.5px;stroke:#fff;fill:none"/>
        <g data-name="합치기 36" style="fill:none">
            <path d="M0 4.222V1.689C0 .756 2.654 0 5.927 0s5.926.756 5.926 1.689v2.533z" style="stroke:none" transform="translate(198.38 127.204)"/>
            <path d="M11.353 3.722V1.69c-.009-.07-.295-.419-1.443-.734C8.84.662 7.427.5 5.927.5S3.014.662 1.945.955C.795 1.271.51 1.62.5 1.69v2.033h10.853m.5.5H0V1.69C0 .756 2.654 0 5.927 0c3.274 0 5.926.756 5.926 1.689v2.533z" style="fill:#fff;stroke:none" transform="translate(198.38 127.204)"/>
        </g>
        <g data-name="타원 4818" transform="translate(198.381 129.737)" style="fill:#fff;stroke-width:.5px;stroke:#fff">
            <ellipse cx="5.927" cy="1.689" rx="5.927" ry="1.689" style="stroke:none"/>
            <ellipse cx="5.927" cy="1.689" rx="5.677" ry="1.439" style="fill:none"/>
        </g>
        <path data-name="패스 1507556" d="m-12312.748-1580.531 3.591 3.056 4.334-3.269" transform="translate(12513.353 1711.433)" style="stroke-width:.5px;stroke:#fff;fill:none"/>
        <path data-name="패스 1507557" d="m-12304.786-1578.358-.433-4.042" transform="translate(12509.009 1712.391)" style="stroke-width:.5px;stroke:#fff;fill:none"/>
        <g data-name="패스 1507558" style="fill:#fff">
            <path d="M1.164.538h-.77v-.766h.77v.766z" style="stroke:none" transform="translate(203.378 134.235)"/>
            <path d="M.144-.478h1.27V.788H.144V-.478z" style="fill:#fff;stroke:none" transform="translate(203.378 134.235)"/>
        </g>
        <path data-name="패스 1507559" d="m-12316.635-1605.909 4.36 5.02" transform="translate(12515.595 1725.976)" style="stroke-width:.5px;stroke:#fff;fill:none"/>
        <path data-name="패스 1507560" d="M-12337.852-1588.167v.517l.874-.119.6-.708" transform="translate(12527.83 1715.902)" style="stroke-width:.5px;stroke:#fff;fill:none"/>
        <path data-name="패스 1507561" d="m-12309.054-1593.831.047.69 2.289-.06 1.438-.964-1.271-.255" transform="translate(12511.221 1719.337)" style="stroke-width:.5px;stroke:#fff;fill:none"/>
        <path data-name="패스 1507562" d="M-12280.566-1598.737v.554l1.379-.185 1.605-.33-1.271-.5" transform="translate(12494.793 1722.096)" style="stroke-width:.5px;stroke:#fff;fill:none"/>
        <path data-name="패스 1507563" d="m-12609.674-1468 34.928-8.893" transform="translate(12797.151 1587.255)" style="opacity:.3;stroke-width:.5px;stroke:#fff;fill:none"/>
        <g data-name="그룹 629374">
            <path data-name="패스 1507564" d="m-12691.4-1482.952 1.222-.215h.528v1.8l-.3 2.261h-.9l-.493-2.366z" transform="translate(12910.773 1608.891)" style="stroke-width:.5px;stroke:#fff"/>
            <path data-name="패스 1507565" d="m-12689.2-1470.592.185 1.624h.288l.066-1.624z" transform="translate(12909.295 1600.431)" style="fill:#fff"/>
        </g>
        <g data-name="그룹 629375">
            <path data-name="패스 1507566" d="m-12691.4-1482.952 1.222-.215h.528v1.8l-.3 2.261h-.9l-.493-2.366z" transform="translate(12917.407 1610.545)" style="stroke-width:.5px;stroke:#fff"/>
            <path data-name="패스 1507567" d="m-12689.2-1470.592.185 1.624h.288l.066-1.624z" transform="translate(12915.929 1602.085)" style="fill:#fff"/>
        </g>
    </g>
    <g data-name="그룹 629379">
        <g data-name="그룹 629377">
            <path data-name="패스 1507568" d="m415.374 462.8 1.816-.79h1.015l3.219.976 8.329-5.561.989.345 9.937-6.31-7.761-3.6-9.986 6.359.741.345-10.629 7.1" transform="translate(-215.755 -447.58)" style="stroke-miterlimit:10;fill:#fff;stroke-width:.5px;stroke:#fff"/>
            <path data-name="패스 1507569" d="m407.337 471.591-14.584 9.416.939.345-12.359 8.036-8.305-3.7 12.013-7.986 1.137.394 14.757-9.589" transform="translate(-211.432 -449.862)" style="stroke-miterlimit:10;fill:#fff;stroke-width:.5px;stroke:#fff"/>
            <path data-name="선 340" transform="translate(214.74 1.715)" style="stroke-miterlimit:10;stroke:#000;opacity:.3;stroke-width:.5px;fill:none" d="m0 0 7.91 3.599"/>
            <path data-name="선 341" transform="translate(212.268 3.539)" style="stroke-miterlimit:10;stroke:#000;opacity:.3;stroke-width:.5px;fill:none" d="m0 0 7.564 3.402"/>
            <path data-name="선 342" transform="translate(209.599 5.116)" style="stroke-miterlimit:10;stroke:#000;opacity:.3;stroke-width:.5px;fill:none" d="m0 0 7.712 3.549"/>
            <path data-name="선 343" transform="translate(207.918 6.99)" style="stroke-miterlimit:10;stroke:#000;opacity:.3;stroke-width:.5px;fill:none" d="m0 0 7.069 3.204"/>
            <path data-name="선 344" transform="translate(205.347 8.666)" style="stroke-miterlimit:10;stroke:#000;opacity:.3;stroke-width:.5px;fill:none" d="m0 0 6.13 3.056"/>
            <path data-name="선 345" transform="translate(202.529 10.588)" style="stroke-miterlimit:10;stroke:#000;opacity:.3;stroke-width:.5px;fill:none" d="m0 0 5.982 3.056"/>
            <path data-name="선 346" transform="translate(199.539 12.411)" style="stroke-miterlimit:10;stroke:#000;opacity:.3;stroke-width:.5px;fill:none" d="m0 0 5.982 3.056"/>
            <path data-name="패스 1507570" d="m393.341 454.854 1.8-1.234.112-.617 2.612-1.426 2.225 1.173-2.812 1.71h-.872l-1.434.869z" transform="translate(-213.626 -447.99)" style="stroke-miterlimit:10;stroke-width:.5px;stroke:#fff;fill:none"/>
            <path data-name="패스 1507571" d="m385.535 458.645-4.659 2.958-.643-.407-3.893 2.366 2.466 1.719 3.837-2.5-.111-.333 4.653-2.958z" transform="translate(-211.79 -448.771)" style="stroke-miterlimit:10;stroke-width:.5px;stroke:#fff;fill:none"/>
            <path data-name="선 347" transform="translate(164.513 33.758)" style="stroke-miterlimit:10;stroke:#000;opacity:.3;stroke-width:.5px;fill:none" d="m0 0 8.305 3.993"/>
            <path data-name="선 348" transform="translate(167.825 31.688)" style="stroke-miterlimit:10;stroke:#000;opacity:.3;stroke-width:.5px;fill:none" d="m0 0 8.033 3.919"/>
            <path data-name="선 349" transform="translate(170.89 29.617)" style="stroke-miterlimit:10;stroke:#000;opacity:.3;stroke-width:.5px;fill:none" d="m0 0 8.355 3.747"/>
            <path data-name="선 350" transform="translate(174.746 28.237)" style="stroke-miterlimit:10;stroke:#000;opacity:.3;stroke-width:.5px;fill:none" d="m0 0 6.575 2.909"/>
            <path data-name="선 351" transform="translate(178.256 25.871)" style="stroke-miterlimit:10;stroke:#000;opacity:.3;stroke-width:.5px;fill:none" d="m0 0 6.278 3.056"/>
            <path data-name="선 352" transform="translate(182.112 23.406)" style="stroke-miterlimit:10;stroke:#000;opacity:.3;stroke-width:.5px;fill:none" d="m0 0 6.328 3.007"/>
            <path data-name="선 353" transform="translate(186.067 20.892)" style="stroke-miterlimit:10;stroke:#000;opacity:.3;stroke-width:.5px;fill:none" d="m0 0 6.377 3.106"/>
            <path data-name="패스 1507939" d="M5.764 0c3.186 0 5.769 1.409 5.771 3.139S8.957 6.27 5.771 6.266 0 4.857 0 3.127 2.579 0 5.764 0z" transform="rotate(-63.448 127.103 -153.006)" style="stroke-width:.5px;stroke:#fff;fill:none"/>
            <path data-name="패스 1507940" d="M1.134 0c.627 0 1.136.733 1.137 1.637s-.508 1.636-1.135 1.636S0 2.539 0 1.636.507 0 1.134 0z" transform="rotate(-77 101.278 -110.897)" style="fill:#fff"/>
            <path data-name="패스 1507572" d="m423 479.406-12.069-5.083-2.423-4.043-6.4-2.92-.124-.555a6.05 6.05 0 0 1-3.51-.567c-1.606-.888-1.557-1.923-1.557-1.923l-4.245-1.861-4.68-2.454" transform="translate(-213.048 -448.922)" style="stroke-miterlimit:10;stroke-width:.5px;stroke:#fff;fill:none"/>
            <path data-name="선 354" transform="translate(183.051 4.229)" style="stroke-miterlimit:10;opacity:.3;stroke-width:.5px;stroke:#fff;fill:none" d="m0 0 2.299 1.134"/>
            <path data-name="선 355" transform="translate(181.976 4.882)" style="stroke-miterlimit:10;opacity:.3;stroke-width:.5px;stroke:#fff;fill:none" d="m0 0 2.336 1.183"/>
            <path data-name="선 356" transform="translate(165.922 14.039)" style="stroke-miterlimit:10;opacity:.3;stroke-width:.5px;stroke:#fff;fill:none" d="m0 0 2.274 1.602"/>
            <path data-name="선 357" transform="translate(167.306 13.176)" style="stroke-miterlimit:10;opacity:.3;stroke-width:.5px;stroke:#fff;fill:none" d="m0 0 2.274 1.602"/>
            <path data-name="선 358" transform="translate(168.851 12.72)" style="stroke-miterlimit:10;opacity:.3;stroke-width:.5px;stroke:#fff;fill:none" d="m0 0 2.002 1.294"/>
            <path data-name="패스 1507573" d="m385.482 458.344-2.429-.857-.494-.912s-.42-3.525 2.546-4.165l1.137.2 1.854 1.331s4.178 1.208 5.636 1.75 5.561 2.81 5.561 2.81 3.386-.419 4.721 1.751a1.974 1.974 0 0 1 1.532 0c.84.345 6.624 3.2 6.624 3.2a3.95 3.95 0 0 1 3.535-.715l11.887 5.524" transform="translate(-212.459 -448.082)" style="stroke-miterlimit:10;stroke-width:.5px;stroke:#fff;fill:none"/>
            <path data-name="패스 1507574" d="M421.251 477.99a8.989 8.989 0 0 1 .489-6.9 6.3 6.3 0 0 1 4.866-3.54" transform="translate(-216.59 -449.756)" style="opacity:.2;stroke-miterlimit:10;stroke-width:.5px;stroke:#fff;fill:none"/>
            <path data-name="패스 1507575" d="M413.667 474.768s-2.374-9.145 5.363-10.747" transform="translate(-215.785 -449.365)" style="stroke-miterlimit:10;stroke-width:.5px;stroke:#fff;fill:none"/>
            <path data-name="선 359" transform="translate(197.981 19.363)" style="opacity:.2;stroke-miterlimit:10;stroke-width:.5px;stroke:#fff;fill:none" d="m0 0 6.624 3.056"/>
            <path data-name="선 360" transform="translate(197.783 24.441)" style="opacity:.2;stroke-miterlimit:10;stroke-width:.5px;stroke:#fff;fill:none" d="m0 0 6.563 2.826"/>
            <path data-name="선 361" transform="translate(197.633 23.495)" style="opacity:.2;stroke-miterlimit:10;stroke-width:.5px;stroke:#fff;fill:none" d="m0 0 6.588 2.84"/>
            <path data-name="패스 1507578" d="M388.469 454.128a4.158 4.158 0 0 0-2.447 4.258" transform="translate(-212.833 -448.272)" style="stroke-miterlimit:10;stroke-width:.5px;stroke:#fff;fill:none"/>
            <path data-name="패스 1507579" d="M390.8 460.727s-.186-4.554 3.547-4.825" transform="translate(-213.352 -448.468)" style="stroke-miterlimit:10;stroke-width:.5px;stroke:#fff;fill:none"/>
            <path data-name="패스 1507580" d="M396 463.193s-.186-4.03 3.189-4.881" transform="translate(-213.913 -448.735)" style="stroke-miterlimit:10;stroke-width:.5px;stroke:#fff;fill:none"/>
            <path data-name="패스 1507581" d="M398 464.233a5.744 5.744 0 0 1 2.967-4.979" transform="translate(-214.129 -448.839)" style="stroke-miterlimit:10;stroke-width:.5px;stroke:#fff;fill:none"/>
            <path data-name="패스 1507582" d="M403.818 467.432s-.865-3.34 2.62-6.335" transform="translate(-214.748 -449.042)" style="stroke-miterlimit:10;stroke-width:.5px;stroke:#fff;fill:none"/>
            <path data-name="패스 1507583" d="M430.485 478.287a1.813 1.813 0 0 1-1.718.535c-.69-.343-.635-1.846.121-3.356s1.929-2.455 2.619-2.112c.471.235.7 1.088.312 2.16" transform="translate(-217.401 -450.389)" style="stroke-miterlimit:10;opacity:.3;stroke-width:.5px;stroke:#fff;fill:none"/>
            <path data-name="패스 1507584" d="m0 0 1.292.677" transform="translate(181.247 5.905)" style="opacity:.3;stroke-width:.5px;stroke:#fff;fill:none"/>
            <path data-name="선 362" transform="translate(170.396 12.043)" style="stroke-miterlimit:10;opacity:.3;stroke-width:.5px;stroke:#fff;fill:none" d="m0 0 1.31.912"/>
            <path data-name="선 363" transform="translate(171.557 11.328)" style="stroke-miterlimit:10;opacity:.3;stroke-width:.5px;stroke:#fff;fill:none" d="m0 0 1.31.912"/>
            <path data-name="선 364" transform="translate(172.744 10.564)" style="stroke-miterlimit:10;opacity:.3;stroke-width:.5px;stroke:#fff;fill:none" d="m0 0 1.31.912"/>
            <path data-name="패스 1507941" d="M4.509 0C7 0 9.021.889 9.022 1.979S7 3.95 4.513 3.947 0 3.058 0 1.968 2.017 0 4.509 0z" transform="rotate(-63.448 127.599 -154.54)" style="fill:#fff;stroke-width:.5px;stroke:#fff"/>
        </g>
        <g data-name="그룹 629378">
            <path data-name="패스 1507585" d="M429.453 477.462a1.8 1.8 0 0 1 1.12-2.083l1.343.593a1.331 1.331 0 0 1 1.835.151 1.574 1.574 0 0 1 .082 1.919l-.68-.261s.227-.658-.123-.74c-.277-.064-.468.141-.639.5-.138.294-.24.816-.012.9a.469.469 0 0 0 .552-.174l.644.259s-.771 1.634-2.1 1.061a1.2 1.2 0 0 1-.673-1.548z" transform="translate(-217.524 -451.057)" style="fill:#010101;stroke-miterlimit:10;stroke-width:.5px;stroke:#fff"/>
        </g>
    </g>
    <text data-name="Space Station" transform="translate(163.25 49.284)" style="font-size:10px;font-family:YDIYGO340;fill:#fff"><tspan x="0" y="9">Space Station</tspan></text>
    <text data-name="Satellite Fuel Station" transform="translate(.25 125.284)" style="font-size:10px;font-family:YDIYGO340;fill:#fff"><tspan x="0" y="0">Satellite </tspan><tspan x="0" y="14">Fuel Station</tspan></text>
    <text data-name="Space Transportation Shuttle" transform="translate(88.25 210.284)" style="font-size:10px;font-family:YDIYGO340;fill:#fff"><tspan x="0" y="0">Space </tspan><tspan x="0" y="14">Transportation </tspan><tspan x="0" y="28">Shuttle</tspan></text>
    <text data-name="Space Debris Collection" transform="translate(4.25 299.284)" style="font-size:10px;font-family:YDIYGO340;fill:#fff"><tspan x="0" y="9">Space Debris Collection</tspan></text>
    <text data-name="Space-based Solar Power" transform="translate(173.25 152.284)" style="font-size:10px;font-family:YDIYGO340;fill:#fff"><tspan x="0" y="0">Space-based </tspan><tspan x="0" y="14">Solar Power</tspan></text>
    <text data-name="Resource Mining" transform="translate(262.25 140.284)" style="font-size:10px;font-family:YDIYGO340;fill:#fff"><tspan x="0" y="0">Resource </tspan><tspan x="0" y="14">Mining</tspan></text>
</svg>
