<svg xmlns="http://www.w3.org/2000/svg" width="190.192" height="93.377" viewBox="0 0 190.192 93.377">
    <defs>
        <clipPath id="639puriw4a">
            <path data-name="사각형 461630" style="stroke:#fff;stroke-width:.5px;fill:#fff" d="M0 0h2.395v7.974H0z"/>
        </clipPath>
        <clipPath id="f36crip3fb">
            <path data-name="패스 1507627" d="M1626.606 9530.071s-.1 5.731 0 5.744 2.162.716 2.162.716l-1.223.85s-3.921-.521-3.974-.658-.758-5.232-.427-5.5 1.952-2.035 1.952-2.035z" transform="translate(-1623.056 -9529.188)" style="stroke:#707070;fill:none"/>
        </clipPath>
    </defs>
    <g data-name="그룹 629382">
        <g data-name="그룹 629380">
            <path data-name="패스 1507587" d="m30.373 6.276.492.493.389 3.254 2.545-.29 5.126-2.29-.236-3.1-3.784 1.695L20.5.967l3.68 4.708.2.915-2.689 3.429L0 11.887l.424-2.43 1.737-1.183 1.39-1.054L22.439.551 28.327 0z" transform="rotate(6.02 -359.051 810.946)" style="fill:#111113"/>
            <path data-name="패스 1507588" d="m0 0 .445 1.861a13.657 13.657 0 0 0 3.005.974 22.37 22.37 0 0 0 2.857-.6S8.914 3.6 10 3.5a4.211 4.211 0 0 0 1.5-.327l12.179.745 1.259-1.085.211 1.085 3.761.26 4.039 4.239s12.892.594 16.489.494 12.09-.294 14.321-.872S67.931 6 68.032 5.363a3.936 3.936 0 0 0 0-1.188L19.139.345z" transform="matrix(1 .053 -.053 1 118.558 51.112)" style="fill:#080609"/>
            <path data-name="패스 1507589" d="M9.011 0C2.332 2.119 0 12.135 0 12.135l15.285-3.15 3.807 1.131" transform="rotate(5.02 -437.825 1839.008)" style="opacity:.3;fill:none;stroke:#fff;stroke-width:.5px"/>
            <path data-name="패스 1507590" d="M0 32.669S1.113 11.238 24.722 0c0 0 14.441 2.911 21.382 23.856" transform="rotate(6.02 59.671 1189.108)" style="stroke-miterlimit:10;fill:none;stroke:#fff;stroke-width:.5px"/>
            <path data-name="패스 1507591" d="M21.247 12.378S18.54 2.391 10 0c0 0-8.333 3.641-10 14.564 0 0 13.539 1.976 21.247-2.186z" transform="rotate(6.02 -326.48 1520.079)" style="stroke-miterlimit:10;fill:none;stroke:#fff;stroke-width:.5px"/>
            <path data-name="패스 1507592" d="m0 0 .972 2.426a10.349 10.349 0 0 1 6.377 8.623" transform="rotate(6.02 -331.48 1615.104)" style="stroke-miterlimit:10;opacity:.3;fill:none;stroke:#fff;stroke-width:.5px"/>
            <path data-name="패스 1507593" d="M.9 9.894 0 0a10.678 10.678 0 0 1 6.387 8.878" transform="rotate(6.02 -355.019 1623.127)" style="stroke-miterlimit:10;stroke:#fff;stroke-width:.5px;fill:#fff"/>
            <path data-name="패스 1507595" d="M66.865 29.565a10.1 10.1 0 0 1-6.843 2.146S55.3 10.073 37.113 2.724 10.078 5 8.368 7.027C5.19 10.79 5.584 18.763.867 19.235c-1.388.139-.694-3.467-.694-3.467" transform="rotate(6.02 -88.399 1180.993)" style="stroke-miterlimit:10;fill:none;stroke:#fff;stroke-width:.5px"/>
            <path data-name="패스 1507596" d="M0 30.657S-.622 12.486 21.946 0a29.215 29.215 0 0 1 16.662 17.059 39.055 39.055 0 0 0-17.948-4.992C10.453 11.86 4.932 19.351 4.412 21.12S1.529 30.206 0 30.657z" transform="rotate(6.02 26.598 1214.81)" style="stroke-miterlimit:10;stroke:#fff;stroke-width:.5px;fill:#fff"/>
            <path data-name="패스 1507597" d="m13.957 32.923-.99 1.04-12.342-.155S-1.769 22.885 2.814 15.29a20.361 20.361 0 0 1 7.131 6.434c2.019 2.869 3.482 7.745 4.219 12.083h3.75l4.269 4.058s12.547.324 21.34-.375 13.193-2.125 13.713-4-.161-9.259-.161-9.259L53.953.616s-5.519-1.975-15.38 1.147l.556 4.577" transform="rotate(6.02 -135.99 1271.08)" style="stroke-miterlimit:10;fill:none;stroke:#fff;stroke-width:.5px"/>
            <path data-name="패스 1507598" d="M2.99 0a44.459 44.459 0 0 0-1.809 25.939s3.749 2.306 6.275-.27 4.036-10.429 4.792-11.288" transform="rotate(6.02 -196.363 1156.417)" style="stroke-miterlimit:10;fill:none;stroke:#fff;stroke-width:.5px"/>
            <path data-name="패스 1507599" d="M0 0a6.06 6.06 0 0 0 5.259.571" transform="rotate(6.02 -449.507 1210.427)" style="stroke-miterlimit:10;fill:none;stroke:#fff;stroke-width:.5px"/>
            <path data-name="패스 1507600" d="M1.679 0a12.179 12.179 0 0 1 5.913 5.649A13.85 13.85 0 0 1 9.479 12.8s-.341 1.028-8.644.522a11.469 11.469 0 0 1-.827-4.65A21.412 21.412 0 0 1 1.679 0z" transform="rotate(6.02 -313.677 1257.738)" style="stroke-miterlimit:10;stroke:#fff;stroke-width:.5px;fill:#fff"/>
            <path data-name="패스 1507601" d="M0 0a3.062 3.062 0 0 1 1.641 2.289" transform="rotate(6.02 -350.704 1297.012)" style="stroke-miterlimit:10;fill:none;stroke:#fff;stroke-width:.5px"/>
            <path data-name="패스 1507602" d="M17.421 0 15.13 1.249l-.63 2.185L4.3 5.932.653 4.475s-1.77 2.81.52 7.074a45.037 45.037 0 0 0 5.312-.833c.625-.312 5.831 5.1 5.831 5.1l.417 3.225 2.5-.208 4.583-2.082" transform="rotate(6.02 -281.802 990.246)" style="stroke-miterlimit:10;fill:none;stroke:#fff;stroke-width:.5px"/>
            <path data-name="선 365" transform="rotate(6.02 -439.497 1100.048)" style="stroke-miterlimit:10;fill:none;stroke:#fff;stroke-width:.5px" d="M5.754.077 0 0"/>
            <path data-name="패스 1507603" d="M17.465 4.98s-3.771 7.3-11.791 7.406c0 0-2.4.1-1.978-1.04S.988 7.394.78 5.937-.574 2.608.364 1.88 4.009-.1 10.675.006s6.77.935 6.77.935" transform="rotate(6.02 -315.674 824.492)" style="stroke-miterlimit:10;fill:none;stroke:#fff;stroke-width:.5px"/>
            <path data-name="패스 1507604" d="M0 0a9.44 9.44 0 0 0 4.988 1.574" transform="rotate(6.02 -438.904 1340.32)" style="fill:none;stroke:#fff;stroke-width:.5px"/>
        </g>
        <path data-name="패스 1507605" d="M0 .3A1.689 1.689 0 0 1 .963 0C1.456.04 2.93.1 2.93.1l-.341 1.19-1.701.11z" transform="rotate(6.02 -369.442 851.24)" style="stroke-miterlimit:10;fill:none;stroke:#fff;stroke-width:.5px"/>
        <g data-name="그룹 629381">
            <path data-name="패스 1507606" d="m4.792 4.3-2.43.417-.278 1.666L.349 7.631 0 10.129l21.664-1.876L24.093 5.2l2.291-.209a1.272 1.272 0 0 0 1.042-1.318 1.6 1.6 0 0 0-1.458-1.386c-.208 0-1.944.069-1.944.069L24.233 0" transform="rotate(6.02 -376.08 809.879)" style="stroke-miterlimit:10;fill:none;stroke:#fff;stroke-width:.5px"/>
            <path data-name="패스 1507607" d="M0 3.262 19.789 0s2.36.763 1.458 3.884" transform="rotate(6.02 -417.805 811.657)" style="stroke-miterlimit:10;fill:none;stroke:#fff;stroke-width:.5px"/>
            <path data-name="패스 1507608" d="M0 .833 3.264 0a1.678 1.678 0 0 1 1.23 1.433 3.888 3.888 0 0 1-.119 1.618" transform="rotate(6.02 -396.52 959.663)" style="stroke-miterlimit:10;fill:none;stroke:#fff;stroke-width:.5px"/>
            <path data-name="선 366" transform="rotate(6.02 -408.65 1001.838)" style="stroke-miterlimit:10;fill:none;stroke:#fff;stroke-width:.5px" d="M3.699 0 0 .394"/>
            <path data-name="패스 1507609" d="M0 0s1.041 2.6.417 3.745" transform="rotate(6.02 -430.045 975.099)" style="stroke-miterlimit:10;fill:none;stroke:#fff;stroke-width:.5px"/>
        </g>
    </g>
    <g data-name="그룹 629383">
        <path data-name="패스 1507610" d="m-2407.069-15988.4 4.861 1.874.815.208h.56l.607-.208 2.774.881.5 1.7 5.553 1.8h1.352a14.657 14.657 0 0 0 1.891-1.566c.072-.237.463-1.94.463-1.94v-1.252s3.084 1.034 3.206 1.019 1.121-.108 1.121-.108l.716-.539.479-.767.448-1.107v-.776l-.122-.866 2.15.866 1.461.4 1.818-.113.959-.928.478-1.6-.235-.9-.513-1-.69-.623h-7.276l-19.889 3.186z" transform="translate(2425.734 16057.672)" style="fill:#09070a"/>
        <path data-name="패스 1507611" d="M-14030.83 9185.665v5.972l3.968 2.091 13.348-4.451-.356-3.985-11.062 3.985-2.493-2.32z" transform="translate(14057.198 -9126.958)" style="fill:none;stroke:#fff;stroke-width:.5px"/>
        <path data-name="패스 1507612" d="m-14023.29 9184.126 12.905-4.252 5.364.338v.866l-4.82 1.317" transform="translate(14053.159 -9124.053)" style="fill:none;stroke:#fff;stroke-width:.5px"/>
        <path data-name="패스 1507613" d="m-14022.867 9195.765-.236-6.673" transform="translate(14053.06 -9128.996)" style="fill:none;stroke:#fff;stroke-width:.5px"/>
        <path data-name="패스 1507614" d="m-14030.64 9190.486 3.479 1.226" transform="translate(14057.096 -9129.743)" style="opacity:.3;fill:none;stroke:#fff;stroke-width:.5px"/>
        <path data-name="패스 1507615" d="m-14030.7 9190.351 3.56 1.437" transform="translate(14057.13 -9127.695)" style="opacity:.3;fill:none;stroke:#fff;stroke-width:.5px"/>
        <path data-name="패스 1507616" d="m-14031.129 9176.288 2.143-.678v-7.388a1.372 1.372 0 0 1 1.214 0c.016.035 0 7.071 0 7.071l1.065-.419" transform="translate(14057.358 -9117.729)" style="fill:none;stroke:#fff;stroke-width:.5px"/>
        <g data-name="타원 4822" transform="translate(29.804 50.511)" style="stroke:#fff;stroke-width:.5px;fill:#fff">
            <ellipse cx="1.597" cy="1.595" rx="1.597" ry="1.595" style="stroke:none"/>
            <ellipse cx="1.597" cy="1.595" rx="1.347" ry="1.345" style="fill:none"/>
        </g>
        <g data-name="타원 4823" transform="translate(29.804 54.498)" style="stroke:#fff;stroke-width:.5px;fill:#fff">
            <ellipse cx="1.597" cy="1.993" rx="1.597" ry="1.993" style="stroke:none"/>
            <ellipse cx="1.597" cy="1.993" rx="1.347" ry="1.743" style="fill:none"/>
        </g>
        <g data-name="마스크 그룹 124" transform="translate(25.812 50.511)" style="clip-path:url(#639puriw4a)">
            <g data-name="타원 4824" transform="translate(.798)" style="stroke:#fff;stroke-width:.5px;fill:#fff">
                <ellipse cx="1.597" cy="1.595" rx="1.597" ry="1.595" style="stroke:none"/>
                <ellipse cx="1.597" cy="1.595" rx="1.347" ry="1.345" style="fill:none"/>
            </g>
            <g data-name="타원 4825" transform="translate(1.197 3.987)" style="stroke:#fff;stroke-width:.5px;fill:#fff">
                <ellipse cx="1.197" cy="1.595" rx="1.197" ry="1.595" style="stroke:none"/>
                <ellipse cx="1.197" cy="1.595" rx=".947" ry="1.345" style="fill:none"/>
            </g>
        </g>
        <path data-name="패스 1507617" d="m-14017.351 9179.951 5.458-1.246 4.23.665" transform="translate(14049.978 -9123.425)" style="fill:none;stroke:#fff;stroke-width:.5px"/>
        <path data-name="패스 1507618" d="m-14034.809 9185.3-3.192-.817 4.992-1.347" transform="translate(14061.038 -9125.817)" style="fill:none;stroke:#fff;stroke-width:.5px"/>
        <g data-name="타원 4826" transform="rotate(11 -336.049 203.12)" style="fill:none;stroke:#fff;stroke-width:.5px">
            <ellipse cx="3.25" cy="3.71" rx="3.25" ry="3.71" style="stroke:none"/>
            <ellipse cx="3.25" cy="3.71" rx="3" ry="3.46" style="fill:none"/>
        </g>
        <g data-name="타원 4827" transform="rotate(11 -320.621 237.12)" style="fill:none;stroke:#fff;stroke-width:.5px">
            <ellipse cx="2.786" cy="3.015" rx="2.786" ry="3.015" style="stroke:none"/>
            <ellipse cx="2.786" cy="3.015" rx="2.536" ry="2.765" style="fill:none"/>
        </g>
        <g data-name="타원 4828" transform="rotate(11 -302.851 270.14)" style="fill:none;stroke:#fff;stroke-width:.5px">
            <ellipse cx="2.786" cy="3.015" rx="2.786" ry="3.015" style="stroke:none"/>
            <ellipse cx="2.786" cy="3.015" rx="2.536" ry="2.765" style="fill:none"/>
        </g>
        <path data-name="패스 1507619" d="m-14020.583 9213.083-5.724-1.848a5.605 5.605 0 0 1 0-3.927 4.543 4.543 0 0 1 2.431-2.24l4.487 1.139" transform="translate(14054.978 -9137.561)" style="fill:none;stroke:#fff;stroke-width:.5px"/>
        <path data-name="패스 1507620" d="m-14002.952 9213.228-2.9-.922" transform="translate(14043.822 -9141.44)" style="fill:none;stroke:#fff;stroke-width:.5px"/>
        <path data-name="패스 1507621" d="M-14010.179 9203.608a3.582 3.582 0 0 1 .462-2.559 1.586 1.586 0 0 1 1.895-.64l3.923.92" transform="translate(14046.172 -9135.009)" style="fill:none;stroke:#fff;stroke-width:.5px"/>
        <path data-name="패스 1507622" d="m-13989.614 9206.942-3.266-.946" transform="translate(14036.872 -9138.058)" style="fill:none;stroke:#fff;stroke-width:.5px"/>
        <path data-name="패스 1507623" d="m-13989.79 9195.617-3.58-.578a3.072 3.072 0 0 0-2.011 1.449 3.267 3.267 0 0 0 0 2.444" transform="translate(14038.344 -9132.183)" style="fill:none;stroke:#fff;stroke-width:.5px"/>
        <path data-name="패스 1507624" d="m-14043.858 9204.651-4.606-1.692a3.834 3.834 0 0 1 0-3.41 2.474 2.474 0 0 1 2.854-1.535l2.533.583a3.27 3.27 0 0 0-1.542 1.454 4.547 4.547 0 0 0-.445 2.658 3.532 3.532 0 0 0 1.206 1.942z" transform="translate(14066.848 -9133.575)" style="fill:none;stroke:#fff;stroke-width:.5px"/>
        <path data-name="패스 1507625" d="M-14033.85 9199.237h-2.241l-.119 5.813 4.39 1.516" transform="translate(14060.079 -9134.434)" style="fill:none;stroke:#fff;stroke-width:.5px"/>
        <path data-name="패스 1507626" d="m-13993.543 9194.083 1.084.447" transform="translate(14037.229 -9131.671)" style="fill:none;stroke:#fff;stroke-width:.5px"/>
        <g data-name="마스크 그룹 125" transform="translate(20.32 64.018)" style="clip-path:url(#f36crip3fb)">
            <g data-name="타원 4829" transform="rotate(11 -.209 10.187)" style="fill:none;stroke:#fff;stroke-width:.5px">
                <ellipse cx="3.045" cy="3.477" rx="3.045" ry="3.477" style="stroke:none"/>
                <ellipse cx="3.045" cy="3.477" rx="2.795" ry="3.227" style="fill:none"/>
            </g>
        </g>
    </g>
    <text data-name="Residential Complex" transform="translate(121 70.377)" style="font-size:10px;font-family:YDIYGO340;fill:#fff"><tspan x="0" y="9">Resident</tspan></text>
    <text data-name="Asteroid &amp; Moon Exploration" transform="translate(1 81.377)" style="font-size:10px;font-family:YDIYGO340;fill:#fff"><tspan x="0" y="9">Asteroid &amp; </tspan></text>
</svg>
