<svg xmlns="http://www.w3.org/2000/svg" xmlns:xlink="http://www.w3.org/1999/xlink" width="322.818" height="421.632" viewBox="0 0 322.818 421.632">
    <defs>
        <clipPath id="w5ar3ifhqs">
            <use xlink:href="#e3dyiiblja"/>
        </clipPath>
        <clipPath id="d4u9dj09jt">
            <use xlink:href="#7mwrkuza7b"/>
        </clipPath>
        <clipPath id="dub1k6n5qu">
            <use xlink:href="#j0shcffhrc"/>
        </clipPath>
        <clipPath id="i80svielgv">
            <use xlink:href="#vn5rt00b4d"/>
        </clipPath>
        <clipPath id="3ibvgf0vdw">
            <use xlink:href="#teu42opwue"/>
        </clipPath>
        <clipPath id="bt425odehx">
            <use xlink:href="#ci6d4912sf"/>
        </clipPath>
        <clipPath id="rquwkjx10y">
            <use xlink:href="#hn8qjkbx0g"/>
        </clipPath>
        <clipPath id="hrg32v4z4z">
            <use xlink:href="#csqtodtikh"/>
        </clipPath>
        <clipPath id="jrog4hzb4A">
            <use xlink:href="#7mo79ygiji"/>
        </clipPath>
        <clipPath id="wbbc2gn3qB">
            <use xlink:href="#77avpbfbmj"/>
        </clipPath>
        <clipPath id="coskqy6tcC">
            <use xlink:href="#w2sdk9g8tk"/>
        </clipPath>
        <clipPath id="518pncnnjD">
            <use xlink:href="#21xattlu5l"/>
        </clipPath>
        <clipPath id="dpi8lb0p8E">
            <use xlink:href="#6j4n1qs3qm"/>
        </clipPath>
        <clipPath id="5uyiujk71F">
            <use xlink:href="#wu7u8lavnn"/>
        </clipPath>
        <clipPath id="5uvrq8wncG">
            <use xlink:href="#krq5n056mo"/>
        </clipPath>
        <clipPath id="ceizyyqdmH">
            <use xlink:href="#vfyg55amyp"/>
        </clipPath>
        <clipPath id="1nwj23juqI">
            <use xlink:href="#ekwdw7hikq"/>
        </clipPath>
        <clipPath id="fsu4igmwrJ">
            <use xlink:href="#pt4lcefo2r"/>
        </clipPath>
    </defs>
    <g transform="translate(-65.198 75.386)">
        <g data-name="그룹 630127">
            <g data-name="타원 4869" transform="rotate(29 -311.601 603.31)" style="stroke-width:.5px;stroke:#fff;fill:#fff">
                <ellipse cx="21.577" cy="9.415" rx="21.577" ry="9.415" style="stroke:none"/>
                <ellipse cx="21.577" cy="9.415" rx="21.327" ry="9.165" style="fill:none"/>
            </g>
            <g data-name="타원 4870" transform="rotate(29 -310.816 600.277)" style="fill:none;stroke-width:.5px;stroke:#fff">
                <ellipse cx="23.146" cy="10.2" rx="23.146" ry="10.2" style="stroke:none"/>
                <ellipse cx="23.146" cy="10.2" rx="22.896" ry="9.95" style="fill:none"/>
            </g>
            <g data-name="타원 4871" transform="rotate(29 -310.198 642.123)" style="fill:none;stroke-width:.5px;stroke:#fff">
                <ellipse cx="3.531" cy="1.569" rx="3.531" ry="1.569" style="stroke:none"/>
                <ellipse cx="3.531" cy="1.569" rx="3.281" ry="1.319" style="fill:none"/>
            </g>
            <g data-name="타원 4872" transform="rotate(29 -303.422 648.424)" style="fill:none;stroke-width:.5px;stroke:#fff">
                <ellipse cx="1.569" cy=".785" rx="1.569" ry=".785" style="stroke:none"/>
                <ellipse cx="1.569" cy=".785" rx="1.319" ry=".535" style="fill:none"/>
            </g>
            <path data-name="패스 1507802" d="M.416 0 0 3.434l3.439 2.46 3.033 7.465 9.445.682 8.4 7.209 10.334-3.55 5.081 3.239 4.145-6.9" transform="rotate(11 -1101.63 1396.481)" style="fill:none;stroke-width:.5px;stroke:#fff"/>
            <path data-name="패스 1507803" d="m0 0 9.424 5.959 8.1 1.969 15.843-.258" transform="rotate(11 -1174.375 1423.37)" style="fill:none;stroke-width:.5px;stroke:#fff"/>
            <path data-name="패스 1507804" d="m0 0 6.72 9.812" transform="rotate(11 -1120.328 1393.92)" style="fill:none;stroke-width:.5px;stroke:#fff"/>
            <path data-name="패스 1507805" d="m12.989 2.852-.92 5.493-6.488.184L1.842 0H0l1.021 11.241 3.292.51 9.613-.51.774-8.389" transform="rotate(11 -1203.425 1446.493)" style="fill:none;stroke-width:.5px;stroke:#fff"/>
            <path data-name="패스 1507806" d="M2.625 0H0l.488 5.849h2.638" transform="rotate(11 -1210.7 1432.19)" style="fill:none;stroke-width:.5px;stroke:#fff"/>
            <path data-name="패스 1507807" d="M0 .453v1.294a37.282 37.282 0 0 0 4.192.307 29.787 29.787 0 0 0 4.039-.307V0" transform="rotate(11 -1264.768 1458.119)" style="fill:none;stroke-width:.5px;stroke:#fff"/>
            <path data-name="패스 1507808" d="M9.167 0 0 9.407v1.781h27.715V9.866l-1.455-.459L17.749 0" transform="rotate(11 -1268.922 1408.484)" style="fill:none;stroke-width:.5px;stroke:#fff"/>
            <g data-name="타원 4873" transform="rotate(29 -347.893 636.835)" style="stroke:#121212;fill:#121212;stroke-width:.5px">
                <ellipse cx="1.177" cy=".675" rx="1.177" ry=".675" style="stroke:none"/>
                <ellipse cx="1.177" cy=".675" rx=".927" ry=".425" style="fill:none"/>
            </g>
            <path data-name="패스 1507809" d="m0 11.68.538.711L16.754.954 16.558 0z" transform="rotate(11 -1061.039 1441.932)" style="fill:#121212;stroke-width:.5px;stroke:#fff"/>
            <path data-name="패스 1507810" d="M1.842 20.109 0 .113.947 0 2.9 20.109z" transform="rotate(11 -1084.66 1552.718)" style="fill:#121212;stroke-width:.5px;stroke:#fff"/>
            <path data-name="패스 1507811" d="M.273 4.889.782 2.4 0 1.611.076 0" transform="rotate(11 -1056.311 1559.76)" style="fill:none;stroke-width:.5px;stroke:#fff"/>
            <path data-name="패스 1507812" d="m0 3.482 1.6-2.025L2.651 1.2l.7-1.2" transform="rotate(11 -1050.23 1531.596)" style="fill:none;stroke-width:.5px;stroke:#fff"/>
            <path data-name="패스 1507813" d="M0 4.627 1.681 0" transform="rotate(11 -1028.982 1558.082)" style="fill:none;stroke-width:.5px;stroke:#fff"/>
            <path data-name="패스 1507814" d="m0 1.768 6.157 13 .859-.455L.113 0" transform="rotate(11 -1069.712 1561.852)" style="fill:#121212;stroke-width:.5px;stroke:#fff"/>
            <path data-name="패스 1507815" d="M9.231 0C9.113.03 0 5.282 0 5.282l.282.9 4.248-2.13" transform="rotate(11 -1059.118 1485.108)" style="fill:#121212;stroke-width:.5px;stroke:#fff"/>
            <path data-name="패스 1507816" d="M1.84 0C1.666.244 0 5.126 0 5.126" transform="rotate(11 -1082.624 1531.586)" style="fill:none;stroke-width:.5px;stroke:#fff"/>
            <path data-name="패스 1507817" d="m0 0 9.213 3.348 7.926 4.167" transform="rotate(11 -1175.991 1425.902)" style="fill:none;stroke-width:.5px;stroke:#fff"/>
            <path data-name="패스 1507818" d="M1.129 3.486 0 0" transform="rotate(11 -1209.346 1587.147)" style="fill:none;stroke-width:.5px;stroke:#fff"/>
            <path data-name="패스 1507819" d="M0 1.2 6.894 0l7.83.86" transform="rotate(11 -1218.516 1514.512)" style="fill:none;stroke-width:.5px;stroke:#fff"/>
            <path data-name="패스 1507820" d="M2.179 0 0 3.2" transform="rotate(11 -1158.101 1425.164)" style="fill:none;stroke-width:.5px;stroke:#fff"/>
            <path data-name="패스 1507821" d="M0 4.127C.107 4.141 3.192 0 3.192 0" transform="rotate(11 -1203.072 1513.34)" style="fill:none;stroke-width:.5px;stroke:#fff"/>
        </g>
        <text data-name="Ground Control" transform="rotate(1 -16008.385 16553.37)" style="font-size:10px;font-family:YDIYGO340;fill:#fff"><tspan x="0" y="0">Ground Control</tspan></text>
        <text data-name="Operation Service" transform="translate(305.016 193.202)" style="font-size:10px;font-family:YDIYGO340;fill:#fff"><tspan x="0" y="0">Operation Service</tspan></text>
        <g data-name="그룹 630129">
            <text data-name="Navigation Satellite" transform="translate(287.796 32.476)" style="font-size:10px;font-family:YDIYGO340;fill:#fff"><tspan x="0" y="0">Navigation </tspan><tspan x="0" y="14">Satellite</tspan></text>
            <g data-name="그룹 630128">
                <path data-name="패스 1507822" d="M0 10.649 9.3 0l23.148 13.792-13.294 16.555z" transform="rotate(-49 147.65 -325.772)" style="stroke-width:.5px;stroke:#fff"/>
                <path data-name="패스 1507823" d="M1.724.481C1.836.469 8.351 0 8.351 0L14.5 3.532l-3.272 8.614-7.948-.352L0 9.837" transform="rotate(-49 148.97 -312.596)" style="stroke-width:.5px;stroke:#fff"/>
                <path data-name="패스 1507824" d="M4.21 10.069 0 5.805 5.468 0l6.355 3.742-3.742 4.405" transform="rotate(-49 142.389 -300.564)" style="stroke-width:.5px;stroke:#fff"/>
                <path data-name="패스 1507825" d="M0 0v3.211l1.281 1.434" transform="rotate(-49 141.843 -315.22)" style="stroke-width:.5px;stroke:#fff"/>
                <path data-name="패스 1507826" d="m0 0 21 16.7" transform="rotate(-49 151.02 -333.531)" style="opacity:.3;fill:none;stroke-width:.5px;stroke:#fff"/>
                <path data-name="패스 1507827" d="M0 11.761 9.894 0" transform="rotate(-49 148.729 -331.143)" style="opacity:.3;fill:none;stroke-width:.5px;stroke:#fff"/>
                <path data-name="패스 1507828" d="M0 12.927 10.647 0" transform="rotate(-49 149.904 -337.347)" style="opacity:.3;fill:none;stroke-width:.5px;stroke:#fff"/>
                <path data-name="패스 1507829" d="M0 14.461 12.168 0" transform="rotate(-49 151.539 -344.471)" style="opacity:.3;fill:none;stroke-width:.5px;stroke:#fff"/>
                <path data-name="패스 1507830" d="M5.952 4.467 0 0" transform="rotate(-49 144.3 -305.086)" style="opacity:.3;fill:none;stroke-width:.5px;stroke:#fff"/>
                <path data-name="패스 1507831" d="M0 6.022 5.357 0" transform="rotate(-49 142.636 -302.383)" style="opacity:.3;fill:none;stroke-width:.5px;stroke:#fff"/>
                <path data-name="패스 1507832" d="M5.755 0 0 6.507" transform="rotate(-49 142.943 -303.92)" style="opacity:.3;fill:none;stroke-width:.5px;stroke:#fff"/>
                <path data-name="패스 1507833" d="M0 6.668 5.939 0" transform="rotate(-49 143.415 -305.82)" style="opacity:.3;fill:none;stroke-width:.5px;stroke:#fff"/>
                <g data-name="타원 4874" transform="rotate(-41 148.436 -376.734)" style="stroke-width:.5px;stroke:#fff;fill:#fff">
                    <ellipse cx="2.589" cy="6.904" rx="2.589" ry="6.904" style="stroke:none"/>
                    <ellipse cx="2.589" cy="6.904" rx="2.339" ry="6.654" style="fill:none"/>
                </g>
                <g data-name="타원 4875" transform="rotate(-41 156.19 -375.541)" style="fill:none;stroke-width:.5px;stroke:#fff">
                    <ellipse cx=".863" cy="1.51" rx=".863" ry="1.51" style="stroke:none"/>
                    <ellipse cx=".863" cy="1.51" rx=".613" ry="1.26" style="fill:none"/>
                </g>
                <path data-name="패스 1507834" d="M3.321.9.2 0 0 1.166l3.156.3" transform="rotate(-49 153.56 -312.608)" style="stroke:#000;fill:none;stroke-width:.5px"/>
                <path data-name="패스 1507835" d="M0 3.4 3.928 0" transform="rotate(-49 149.929 -306.303)" style="fill:none;stroke-width:.5px;stroke:#fff"/>
                <path data-name="패스 1507836" d="m0 0 2.349 4.532" transform="rotate(-49 156.702 -308.794)" style="fill:none;stroke-width:.5px;stroke:#fff"/>
                <path data-name="패스 1507837" d="M2.941 0 0 3.6" transform="rotate(-49 143.974 -312.295)" style="fill:none;stroke-width:.5px;stroke:#fff"/>
                <path data-name="패스 1507838" d="M1.606 0a12.891 12.891 0 0 1 0 5A22.744 22.744 0 0 1 0 9.689" transform="rotate(-49 149.159 -313.527)" style="fill:none;stroke-width:.5px;stroke:#fff"/>
                <path data-name="패스 1507839" d="M4.223 1.292 2 0 0 .8" transform="rotate(-49 145.901 -329.928)" style="fill:none;stroke-width:.5px;stroke:#fff"/>
                <path data-name="패스 1507840" d="M.977 1.5 0 0" transform="rotate(-49 157.421 -329.26)" style="fill:none;stroke-width:.5px;stroke:#fff"/>
            </g>
        </g>
        <text data-name="Communication Satellite" transform="translate(219.796 -22.524)" style="font-size:10px;font-family:YDIYGO340;fill:#fff"><tspan x="0" y="0">Communication </tspan><tspan x="0" y="14">Satellite</tspan></text>
        <g data-name="그룹 630130">
            <path data-name="패스 1507841" d="M0 10.649 9.3 0l23.148 13.792-13.294 16.555z" transform="rotate(-42 46.247 -327.542)" style="stroke-width:.5px;stroke:#fff"/>
            <path data-name="패스 1507842" d="M1.724.481C1.836.469 8.351 0 8.351 0L14.5 3.532l-3.272 8.614-7.948-.352L0 9.837" transform="rotate(-42 46.841 -312.23)" style="stroke-width:.5px;stroke:#fff"/>
            <path data-name="패스 1507843" d="M4.21 10.069 0 5.805 5.468 0l6.355 3.742-3.742 4.405" transform="rotate(-42 38.39 -298.799)" style="stroke-width:.5px;stroke:#fff"/>
            <path data-name="패스 1507844" d="M0 0v3.211l1.281 1.434" transform="rotate(-42 38.795 -315.765)" style="stroke-width:.5px;stroke:#fff"/>
            <path data-name="패스 1507845" d="m0 0 21 16.7" transform="rotate(-42 50.688 -336.266)" style="opacity:.3;fill:none;stroke-width:.5px;stroke:#fff"/>
            <path data-name="패스 1507846" d="M0 11.761 9.894 0" transform="rotate(-42 47.873 -333.67)" style="opacity:.3;fill:none;stroke-width:.5px;stroke:#fff"/>
            <path data-name="패스 1507847" d="M0 12.927 10.647 0" transform="rotate(-42 49.669 -340.753)" style="opacity:.3;fill:none;stroke-width:.5px;stroke:#fff"/>
            <path data-name="패스 1507848" d="M0 14.461 12.168 0" transform="rotate(-42 52.06 -348.865)" style="opacity:.3;fill:none;stroke-width:.5px;stroke:#fff"/>
            <path data-name="패스 1507849" d="M5.952 4.467 0 0" transform="rotate(-42 40.918 -303.886)" style="opacity:.3;fill:none;stroke-width:.5px;stroke:#fff"/>
            <path data-name="패스 1507850" d="M0 6.022 5.357 0" transform="rotate(-42 38.804 -300.882)" style="opacity:.3;fill:none;stroke-width:.5px;stroke:#fff"/>
            <path data-name="패스 1507851" d="M5.755 0 0 6.507" transform="rotate(-42 39.267 -302.635)" style="opacity:.3;fill:none;stroke-width:.5px;stroke:#fff"/>
            <path data-name="패스 1507852" d="M0 6.668 5.939 0" transform="rotate(-42 39.946 -304.797)" style="opacity:.3;fill:none;stroke-width:.5px;stroke:#fff"/>
            <g data-name="타원 4876" transform="rotate(-34 28.175 -380.139)" style="stroke-width:.5px;stroke:#fff;fill:#fff">
                <ellipse cx="2.589" cy="6.904" rx="2.589" ry="6.904" style="stroke:none"/>
                <ellipse cx="2.589" cy="6.904" rx="2.339" ry="6.654" style="fill:none"/>
            </g>
            <g data-name="타원 4877" transform="rotate(-34 37.359 -378.145)" style="fill:none;stroke-width:.5px;stroke:#fff">
                <ellipse cx=".863" cy="1.51" rx=".863" ry="1.51" style="stroke:none"/>
                <ellipse cx=".863" cy="1.51" rx=".613" ry="1.26" style="fill:none"/>
            </g>
            <path data-name="패스 1507853" d="M3.321.9.2 0 0 1.166l3.156.3" transform="rotate(-42 52.143 -311.92)" style="stroke:#000;fill:none;stroke-width:.5px"/>
            <path data-name="패스 1507854" d="M0 3.4 3.928 0" transform="rotate(-42 47.504 -304.894)" style="fill:none;stroke-width:.5px;stroke:#fff"/>
            <path data-name="패스 1507855" d="m0 0 2.349 4.532" transform="rotate(-42 55.504 -307.293)" style="fill:none;stroke-width:.5px;stroke:#fff"/>
            <path data-name="패스 1507856" d="M2.941 0 0 3.6" transform="rotate(-42 41.05 -312.236)" style="fill:none;stroke-width:.5px;stroke:#fff"/>
            <path data-name="패스 1507857" d="M1.606 0a12.891 12.891 0 0 1 0 5A22.744 22.744 0 0 1 0 9.689" transform="rotate(-42 47.125 -313.293)" style="fill:none;stroke-width:.5px;stroke:#fff"/>
            <path data-name="패스 1507858" d="M4.223 1.292 2 0 0 .8" transform="rotate(-42 44.521 -332.466)" style="fill:none;stroke-width:.5px;stroke:#fff"/>
            <path data-name="패스 1507859" d="M.977 1.5 0 0" transform="rotate(-42 57.78 -330.881)" style="fill:none;stroke-width:.5px;stroke:#fff"/>
        </g>
        <g data-name="그룹 630133">
            <text data-name="Observation Satellite" transform="translate(323.796 129.476)" style="font-size:10px;font-family:YDIYGO340;fill:#fff"><tspan x="0" y="0">Observation </tspan><tspan x="0" y="14">Satellite</tspan></text>
            <g data-name="그룹 630132">
                <path data-name="패스 1507860" d="M0 4.356V3.4L5.249 0l8.061 4.356 2.39 8.016-4.252 4.073H10.8" transform="translate(333.013 81.195)" style="stroke-width:.5px;stroke:#fff"/>
                <path data-name="패스 1507861" d="M0 1.459 1.888 0 10.2 4.442l2.434 7.266-2.084 2.076" transform="translate(332.168 84.857)" style="stroke-width:.5px;stroke:#fff"/>
                <g data-name="타원 4878" transform="rotate(-41.97 291.597 -357.794)" style="fill:none;stroke-width:.5px;stroke:#fff">
                    <ellipse cx="5.088" cy="7.879" rx="5.088" ry="7.879" style="stroke:none"/>
                    <ellipse cx="5.088" cy="7.879" rx="4.838" ry="7.629" style="fill:none"/>
                </g>
                <path data-name="패스 1507862" d="M0 3.533C.164 3.449 5.367 0 5.367 0l10.709 12.662-5.345 3.55z" transform="translate(321.89 68.705)" style="stroke-width:.5px;stroke:#fff"/>
                <path data-name="패스 1507863" d="M6.091 8.459H2.764L0 0l12.894 1.041" transform="translate(319.852 83.94)" style="stroke-width:.5px;stroke:#fff"/>
                <path data-name="패스 1507864" d="m0 0 12.582.792 2.809 8.4-13.063-.858-.3-.509" transform="translate(346.559 85.5)" style="fill:none;stroke-width:.5px;stroke:#fff"/>
                <path data-name="패스 1507865" d="M0 3.826 10.463 16.1l5.4-3.615L5.225 0" transform="translate(343.887 93.855)" style="fill:none;stroke-width:.5px;stroke:#fff"/>
                <path data-name="패스 1507866" d="m13.267 12.572-6.45-7.853-1.16.569S2 1 2.076.978 3.567 0 3.567 0l2.09 2.4-4.4 3.083L0 3.9l1.13-.781 9.265 11.305" transform="translate(323.64 69.466)" style="opacity:.3;fill:none;stroke-width:.5px;stroke:#fff"/>
                <path data-name="패스 1507867" d="M0 1.4c.576 0 11.271.573 11.271.573L10.659.1 9.1 0l2.4 6.936 2.364.212-.8-2.246-4.441-.243.477 1.452-7.69-.451" transform="translate(347.185 86.908)" style="opacity:.3;fill:none;stroke-width:.5px;stroke:#fff"/>
                <path data-name="패스 1507868" d="m0 2.519 6.232 7.2.968-.595 3.331 3.913-1.231.817-1.821-2.088 4.3-2.924 1.49 1.848-1.284.849L2.368 0" transform="translate(344.974 94.922)" style="opacity:.3;fill:none;stroke-width:.5px;stroke:#fff"/>
                <path data-name="패스 1507869" d="M11.925 1.63 4.6 1.259l.386 1.534-4.24-.244L0 0l2.35.23L4.7 7.1H2.9l-.55-2.021 3.68.194" transform="translate(320.628 84.499)" style="opacity:.3;fill:none;stroke-width:.5px;stroke:#fff"/>
                <path data-name="패스 1507870" d="m9.861 17.487 1.3.2 5.433-4-2.551-9.012L5.255 0 0 3.7v1.68" transform="translate(326.33 86.226)" style="stroke-width:.5px;stroke:#fff"/>
                <path data-name="패스 1507871" d="m0 11.1 1.721-1.18.953-.12 5.344-4.731V3.387L12.811 0l7.441 3.767 2.555 7.552-4.744 3.855-.917-.154-5.289 5.005v.587L10.4 22.44" transform="translate(318.07 88.641)" style="stroke-width:.5px;stroke:#fff"/>
                <g data-name="타원 4879" transform="rotate(-41.97 293.67 -360.063)" style="stroke-width:.5px;stroke:#fff;fill:#fff">
                    <ellipse cx="3.775" cy="5.909" rx="3.775" ry="5.909" style="stroke:none"/>
                    <ellipse cx="3.775" cy="5.909" rx="3.525" ry="5.659" style="fill:none"/>
                </g>
                <g data-name="타원 4880" transform="rotate(-41.97 298.265 -365.999)" style="stroke:#000;stroke-width:.5px">
                    <ellipse cx=".985" cy="1.313" rx=".985" ry="1.313" style="stroke:none"/>
                    <ellipse cx=".985" cy="1.313" rx=".735" ry="1.063" style="fill:none"/>
                </g>
            </g>
        </g>
        <g data-name="그룹 630138">
            <text data-name="Space Launch Vehicle (SLV)" transform="translate(65.197 344.246)" style="font-size:10px;font-family:YDIYGO340;fill:#fff"><tspan x="0" y="0">Space Launch Vehicle (SLV)</tspan></text>
            <g data-name="그룹 630137">
                <g data-name="그룹 630136">
                    <g data-name="2">
                        <g data-name="그룹 630134">
                            <g data-name="사각형 462023" style="stroke-linejoin:round;fill:none;stroke-width:.5px;stroke:#fff">
                                <path style="stroke:none" d="M0 0h.575v1.725H0z" transform="translate(66.578 252.236)"/>
                                <path style="fill:none" d="M.25.25h.075v1.225H.25z" transform="translate(66.578 252.236)"/>
                            </g>
                            <g data-name="사각형 462024" style="stroke-linejoin:round;fill:none;stroke-width:.5px;stroke:#fff">
                                <path style="stroke:none" d="M0 0h.575v1.725H0z" transform="translate(75.51 252.236)"/>
                                <path style="fill:none" d="M.25.25h.075v1.225H.25z" transform="translate(75.51 252.236)"/>
                            </g>
                            <path data-name="패스 1507872" d="M5.29 132.964H0V78.2l1.834-12.205s-.033-54.441 0-57.162a11.986 11.986 0 0 1 1.341-5.821C4 1.164 5.258 0 5.744 0s1.749 1.164 2.57 3.012a11.986 11.986 0 0 1 1.341 5.82c.033 2.721 0 57.162 0 57.162L11.489 78.2v54.761z" transform="translate(65.591 184.202)" style="stroke-linejoin:round;stroke-width:.5px;stroke:#fff;fill:#fff"/>
                            <g data-name="사각형 462025" transform="translate(69.223 251.776)" style="stroke:#000;stroke-width:.5px">
                                <rect width=".92" height="2.53" rx=".46" style="stroke:none"/>
                                <rect x=".25" y=".25" width=".42" height="2.03" rx=".21" style="fill:none"/>
                            </g>
                            <g data-name="사각형 462026" style="stroke-linejoin:round;stroke:#000;stroke-width:.5px">
                                <path style="stroke:none" d="M0 0h.92v1.035H0z" transform="translate(72.212 253.041)"/>
                                <path style="fill:none" d="M.25.25h.42v.535H.25z" transform="translate(72.212 253.041)"/>
                            </g>
                            <path data-name="패스 1507873" d="M1.681 4.034c-.3 0-1.679.019-1.681 0A6.753 6.753 0 0 1 1.107 0h1.149a6.753 6.753 0 0 1 1.106 4.033 4.371 4.371 0 0 1-.452.01c-.431 0-1.041-.007-1.229-.009z" transform="translate(69.654 318.159)" style="stroke-width:.5px;stroke:#fff;fill:#fff"/>
                            <g data-name="사각형 462027" transform="translate(67.383 193.015)" style="stroke:#000;opacity:.3;fill:none;stroke-width:.5px">
                                <path id="e3dyiiblja" style="stroke:none" d="M0 0h7.819v.258H0z"/>
                                <path d="M0 .008h7.82M7.57 0v.258M7.82.25H0m.25.008V0" style="clip-path:url(#w5ar3ifhqs);fill:none"/>
                            </g>
                            <g data-name="사각형 462028" transform="translate(67.383 204.399)" style="stroke:#000;opacity:.3;fill:none;stroke-width:.5px">
                                <path id="7mwrkuza7b" style="stroke:none" d="M0 0h7.819v.258H0z"/>
                                <path d="M0 .008h7.82M7.57 0v.258M7.82.25H0m.25.008V0" style="clip-path:url(#d4u9dj09jt);fill:none"/>
                            </g>
                            <g data-name="사각형 462029" transform="translate(67.383 224.293)" style="stroke:#000;opacity:.3;fill:none;stroke-width:.5px">
                                <path id="j0shcffhrc" style="stroke:none" d="M0 0h7.819v.258H0z"/>
                                <path d="M0 .008h7.82M7.57 0v.258M7.82.25H0m.25.008V0" style="clip-path:url(#dub1k6n5qu);fill:none"/>
                            </g>
                            <g data-name="사각형 462030" transform="translate(67.383 243.036)" style="stroke:#000;opacity:.3;fill:none;stroke-width:.5px">
                                <path id="vn5rt00b4d" style="stroke:none" d="M0 0h7.819v.258H0z"/>
                                <path d="M0 .008h7.82M7.57 0v.258M7.82.25H0m.25.008V0" style="clip-path:url(#i80svielgv);fill:none"/>
                            </g>
                            <g data-name="사각형 462031" transform="translate(67.383 250.166)" style="stroke:#000;opacity:.3;fill:none;stroke-width:.5px">
                                <path id="teu42opwue" style="stroke:none" d="M0 0h7.819v.258H0z"/>
                                <path d="M0 .008h7.82M7.57 0v.258M7.82.25H0m.25.008V0" style="clip-path:url(#3ibvgf0vdw);fill:none"/>
                            </g>
                            <g data-name="사각형 462032" transform="translate(66.003 293.632)" style="stroke:#000;opacity:.3;fill:none;stroke-width:.5px">
                                <path id="ci6d4912sf" style="stroke:none" d="M0 0h10.579v.258H0z"/>
                                <path d="M0 .008h10.58M10.33 0v.258m.25-.008H0m.25.008V0" style="clip-path:url(#bt425odehx);fill:none"/>
                            </g>
                            <g data-name="사각형 462033" style="stroke-linejoin:round;stroke:#000;stroke-width:.5px">
                                <path style="stroke:none" d="M0 0h.805v2.3H0z" transform="translate(69.223 292.482)"/>
                                <path style="fill:none" d="M.25.25h.305v1.8H.25z" transform="translate(69.223 292.482)"/>
                            </g>
                            <g data-name="사각형 462034" style="stroke-linejoin:round;stroke:#000;stroke-width:.5px">
                                <path style="stroke:none" d="M0 0h.805v2.3H0z" transform="translate(72.672 292.482)"/>
                                <path style="fill:none" d="M.25.25h.305v1.8H.25z" transform="translate(72.672 292.482)"/>
                            </g>
                            <g data-name="사각형 462035" style="stroke-linejoin:round;stroke:#000;stroke-width:.5px">
                                <path style="stroke:none" d="M0 0h.805v2.3H0z" transform="translate(76.582 292.482)"/>
                                <path style="fill:none" d="M.25.25h.305v1.8H.25z" transform="translate(76.582 292.482)"/>
                            </g>
                            <g data-name="사각형 462036" style="stroke-linejoin:round;stroke:#000;stroke-width:.5px">
                                <path style="stroke:none" d="M0 0h.805v2.3H0z" transform="translate(65.198 292.482)"/>
                                <path style="fill:none" d="M.25.25h.305v1.8H.25z" transform="translate(65.198 292.482)"/>
                            </g>
                            <path data-name="사각형 462037" transform="translate(77.099 309.286)" style="fill:none" d="M0 0h.076v7.75H0z"/>
                            <path data-name="사각형 462038" transform="translate(65.55 309.286)" style="fill:none" d="M0 0h.076v7.75H0z"/>
                            <g data-name="사각형 462039" transform="translate(65.658 309.243)" style="stroke:#000;opacity:.3;stroke-width:.5px">
                                <path id="hn8qjkbx0g" style="stroke:none" d="M0 0h11.384v.258H0z"/>
                                <path d="M0 .008h11.384M11.134 0v.258m.25-.008H0m.25.008V0" style="clip-path:url(#rquwkjx10y);fill:none"/>
                            </g>
                            <g data-name="사각형 462040" transform="translate(65.543 312.376)" style="stroke:#000;opacity:.3;stroke-width:.5px">
                                <path id="csqtodtikh" style="stroke:none" d="M0 0h11.499v.258H0z"/>
                                <path d="M0 .008h11.5M11.25 0v.258M11.5.25H0m.25.008V0" style="clip-path:url(#hrg32v4z4z);fill:none"/>
                            </g>
                            <path data-name="패스 1507874" d="m0 0 2.65.993H8.8L11.367 0" transform="translate(65.658 317.166)" style="stroke-width:.5px;stroke:#fff;fill:#fff"/>
                            <path data-name="패스 1507875" d="M1.681 4.034c-.3 0-1.679.019-1.681 0A6.753 6.753 0 0 1 1.107 0h1.149a6.753 6.753 0 0 1 1.106 4.033 4.371 4.371 0 0 1-.452.01c-.431 0-1.041-.007-1.229-.009z" transform="translate(67.302 318.159)" style="stroke-width:.5px;stroke:#fff;fill:#fff"/>
                            <path data-name="패스 1507876" d="M1.681 4.034c-.3 0-1.679.019-1.681 0A6.753 6.753 0 0 1 1.107 0h1.149a6.753 6.753 0 0 1 1.106 4.033 4.371 4.371 0 0 1-.452.01c-.431 0-1.041-.007-1.229-.009z" transform="translate(72.127 318.159)" style="stroke-width:.5px;stroke:#fff;fill:#fff"/>
                            <path data-name="패스 1507877" d="M72.779 268.966h-.457v1.333h-.326v-1.271h-.449v3.216h.449v-1.558h.325v1.729h.457zm-2.876 2.666h.24a6.189 6.189 0 0 0 1.24-.093l-.039-.4a5.37 5.37 0 0 1-.961.085v-1.468h.806v-.39h-1.286zm2.636 1.734h-.489v2.572h.488v-1.123h.465v-.4h-.464zm-2.736.743h2.046v-.38h-.783v-.371h-.48v.372h-.783zm.17.79c0 .391.349.655.852.651s.849-.26.852-.651-.353-.67-.852-.674-.852.272-.852.675zm.33 1.845h2.36v-.387h-1.876v-.62h-.484zm.143-1.844c0-.2.151-.3.38-.3s.387.1.387.3-.155.287-.387.287-.384-.101-.38-.287zm1.217 3.128h-1.682v1.658h1.682zm-1.287 3.092h2.4v-.387h-1.911v-.752h-.489zm.077-1.813v-.891h.728v.891zm1.751.9h.48v-2.45h-.481zm.38 2.09H70.19v.38h1.907a3.786 3.786 0 0 1-.07.806h-2.224v.383h1.325v.5h-1.007v.38h1.976v.845h.488v-1.225h-.969v-.5h1.341v-.387h-.442a5.277 5.277 0 0 0 .07-.914z"/>
                            <g data-name="사각형 462041" transform="translate(73.017 210.149)" style="stroke:#000;fill:none;stroke-width:.5px">
                                <path id="7mo79ygiji" style="stroke:none" d="M0 0h.435v1.955H0z"/>
                                <path d="M0 .25h.435M.25 0v1.955m.185-.25H0m.185.25V0" style="clip-path:url(#jrog4hzb4A);fill:none"/>
                            </g>
                            <path data-name="사각형 462042" transform="translate(65.55 295.93)" style="fill:none" d="M0 0h11.625v.258H0z"/>
                            <path data-name="사각형 462043" transform="translate(65.55 291.821)" style="fill:none" d="M0 0h11.625v.258H0z"/>
                        </g>
                        <g data-name="그룹 630135">
                            <g data-name="패스 1507878" style="opacity:.3;fill:none">
                                <path d="M0 0h7.129v13.569H0z" style="stroke:none" transform="translate(67.728 295.932)"/>
                                <path d="M.5.5v12.569h6.13V.5H.5M0 0h7.13v13.569H0V0z" style="fill:#000;stroke:none" transform="translate(67.728 295.932)"/>
                            </g>
                        </g>
                    </g>
                </g>
            </g>
        </g>
        <g data-name="그룹 630143">
            <g data-name="그룹 630142">
                <g data-name="그룹 630141">
                    <g data-name="2">
                        <g data-name="그룹 630139">
                            <g data-name="사각형 462044" style="stroke-linejoin:round;fill:none;stroke-width:.5px;stroke:#fff">
                                <path style="stroke:none" d="M0 0h.576v1.728H0z" transform="rotate(25 -112.747 265.227)"/>
                                <path style="fill:none" d="M.25.25h.076v1.228H.25z" transform="rotate(25 -112.747 265.227)"/>
                            </g>
                            <g data-name="사각형 462045" style="stroke-linejoin:round;fill:none;stroke-width:.5px;stroke:#fff">
                                <path style="stroke:none" d="M0 0h.576v1.728H0z" transform="rotate(25 -117.222 285.41)"/>
                                <path style="fill:none" d="M.25.25h.076v1.228H.25z" transform="rotate(25 -117.222 285.41)"/>
                            </g>
                            <path data-name="패스 1507879" d="M5.3 133.208H0V78.346l1.837-12.23s-.033-54.541 0-57.267a12.008 12.008 0 0 1 1.344-5.832C4 1.167 5.268 0 5.755 0s1.751 1.167 2.574 3.017a12.008 12.008 0 0 1 1.344 5.832c.033 2.726 0 57.267 0 57.267l1.837 12.23v54.861z" transform="rotate(25 41.467 297.076)" style="stroke-linejoin:round;stroke-width:.5px;stroke:#fff"/>
                            <g data-name="사각형 462046" transform="rotate(25 -113.033 271.434)" style="fill:none;stroke-width:.5px;stroke:#fff">
                                <rect width=".922" height="2.534" rx=".461" style="stroke:none"/>
                                <rect x=".25" y=".25" width=".422" height="2.034" rx=".211" style="fill:none"/>
                            </g>
                            <g data-name="사각형 462047" style="stroke-linejoin:round;fill:none;stroke-width:.5px;stroke:#fff">
                                <path style="stroke:none" d="M0 0h.922v1.037H0z" transform="rotate(25 -117.39 277.555)"/>
                                <path style="fill:none" d="M.25.25h.422v.537H.25z" transform="rotate(25 -117.39 277.555)"/>
                            </g>
                            <path data-name="패스 1507880" d="M1.684 4.041c-.3 0-1.682.019-1.684 0A6.765 6.765 0 0 1 1.109 0H2.26a6.765 6.765 0 0 1 1.108 4.04 4.379 4.379 0 0 1-.453.01c-.431 0-1.042-.007-1.231-.009z" transform="rotate(25 -263.243 239.156)" style="fill:none;stroke-width:.5px;stroke:#fff"/>
                            <g data-name="사각형 462048" transform="rotate(25 20.657 296.712)" style="fill:none;stroke-width:.5px;stroke:#fff">
                                <path id="77avpbfbmj" style="stroke:none" d="M0 0h7.834v.259H0z"/>
                                <path d="M0 .009h7.834M7.584 0v.259m.25-.009H0m.25.009V0" style="clip-path:url(#wbbc2gn3qB);fill:none"/>
                            </g>
                            <g data-name="사각형 462049" transform="rotate(25 -5.065 291.01)" style="fill:none;stroke-width:.5px;stroke:#fff">
                                <path id="w2sdk9g8tk" style="stroke:none" d="M0 0h7.834v.259H0z"/>
                                <path d="M0 .009h7.834M7.584 0v.259m.25-.009H0m.25.009V0" style="clip-path:url(#coskqy6tcC);fill:none"/>
                            </g>
                            <g data-name="사각형 462050" transform="rotate(25 -50.015 281.044)" style="fill:none;stroke-width:.5px;stroke:#fff">
                                <path id="21xattlu5l" style="stroke:none" d="M0 0h7.834v.259H0z"/>
                                <path d="M0 .009h7.834M7.584 0v.259m.25-.009H0m.25.009V0" style="clip-path:url(#518pncnnjD);fill:none"/>
                            </g>
                            <g data-name="사각형 462051" transform="rotate(25 -92.366 271.655)" style="fill:none;stroke-width:.5px;stroke:#fff">
                                <path id="6j4n1qs3qm" style="stroke:none" d="M0 0h7.834v.259H0z"/>
                                <path d="M0 .009h7.834M7.584 0v.259m.25-.009H0m.25.009V0" style="clip-path:url(#dpi8lb0p8E);fill:none"/>
                            </g>
                            <g data-name="사각형 462052" transform="rotate(25 -108.476 268.084)" style="fill:none;stroke-width:.5px;stroke:#fff">
                                <path id="wu7u8lavnn" style="stroke:none" d="M0 0h7.834v.259H0z"/>
                                <path d="M0 .009h7.834M7.584 0v.259m.25-.009H0m.25.009V0" style="clip-path:url(#5uyiujk71F);fill:none"/>
                            </g>
                            <g data-name="사각형 462053" transform="rotate(25 -205.996 243.192)" style="fill:none;stroke-width:.5px;stroke:#fff">
                                <path id="krq5n056mo" style="stroke:none" d="M0 0h10.599v.259H0z"/>
                                <path d="M0 .009h10.599M10.349 0v.259m.25-.009H0m.25.009V0" style="clip-path:url(#5uvrq8wncG);fill:none"/>
                            </g>
                            <g data-name="사각형 462054" style="stroke-linejoin:round;fill:none;stroke-width:.5px;stroke:#fff">
                                <path style="stroke:none" d="M0 0h.806v2.304H0z" transform="rotate(25 -205.01 251.043)"/>
                                <path style="fill:none" d="M.25.25h.306v1.804H.25z" transform="rotate(25 -205.01 251.043)"/>
                            </g>
                            <g data-name="사각형 462055" style="stroke-linejoin:round;fill:none;stroke-width:.5px;stroke:#fff">
                                <path style="stroke:none" d="M0 0h.806v2.304H0z" transform="rotate(25 -206.739 258.838)"/>
                                <path style="fill:none" d="M.25.25h.306v1.804H.25z" transform="rotate(25 -206.739 258.838)"/>
                            </g>
                            <g data-name="사각형 462056" style="stroke-linejoin:round;fill:none;stroke-width:.5px;stroke:#fff">
                                <path style="stroke:none" d="M0 0h.806v2.304H0z" transform="rotate(25 -208.697 267.672)"/>
                                <path style="fill:none" d="M.25.25h.306v1.804H.25z" transform="rotate(25 -208.697 267.672)"/>
                            </g>
                            <g data-name="사각형 462057" style="stroke-linejoin:round;fill:none;stroke-width:.5px;stroke:#fff">
                                <path style="stroke:none" d="M0 0h.806v2.304H0z" transform="rotate(25 -202.995 241.95)"/>
                                <path style="fill:none" d="M.25.25h.306v1.804H.25z" transform="rotate(25 -202.995 241.95)"/>
                            </g>
                            <path data-name="사각형 462058" transform="rotate(25 -246.923 260.423)" style="fill:none" d="M0 0h.076v7.764H0z"/>
                            <path data-name="사각형 462059" transform="rotate(25 -241.138 234.329)" style="fill:none" d="M0 0h.076v7.764H0z"/>
                            <g data-name="사각형 462060" transform="rotate(25 -241.095 234.594)" style="fill:none;stroke-width:.5px;stroke:#fff">
                                <path id="vfyg55amyp" style="stroke:none" d="M0 0h11.405v.259H0z"/>
                                <path d="M0 .009h11.405M11.155 0v.259m.25-.009H0m.25.009V0" style="clip-path:url(#ceizyyqdmH);fill:none"/>
                            </g>
                            <g data-name="사각형 462061" transform="rotate(25 -248.117 232.765)" style="fill:none;stroke-width:.5px;stroke:#fff">
                                <path id="ekwdw7hikq" style="stroke:none" d="M0 0h11.52v.259H0z"/>
                                <path d="M0 .009h11.52M11.27 0v.259m.25-.009H0m.25.009V0" style="clip-path:url(#1nwj23juqI);fill:none"/>
                            </g>
                            <path data-name="패스 1507881" d="m0 0 2.655 1h6.16l2.574-1" transform="rotate(25 -258.995 230.626)" style="fill:none;stroke-width:.5px;stroke:#fff"/>
                            <path data-name="패스 1507882" d="M1.684 4.041c-.3 0-1.682.019-1.684 0A6.765 6.765 0 0 1 1.109 0H2.26a6.765 6.765 0 0 1 1.108 4.04 4.379 4.379 0 0 1-.453.01c-.431 0-1.042-.007-1.231-.009z" transform="rotate(25 -262.065 233.84)" style="fill:none;stroke-width:.5px;stroke:#fff"/>
                            <path data-name="패스 1507883" d="M1.684 4.041c-.3 0-1.682.019-1.684 0A6.765 6.765 0 0 1 1.109 0H2.26a6.765 6.765 0 0 1 1.108 4.04 4.379 4.379 0 0 1-.453.01c-.431 0-1.042-.007-1.231-.009z" transform="rotate(25 -264.482 244.745)" style="fill:none;stroke-width:.5px;stroke:#fff"/>
                            <path data-name="패스 1507884" d="M2.981 0h-.458v1.335H2.2V.062h-.45v3.222h.45v-1.56h.326v1.731h.458zM.1 2.671h.242a6.2 6.2 0 0 0 1.242-.093l-.039-.4a5.379 5.379 0 0 1-.963.085V.792h.808V.4H.1zm2.64 1.737h-.488v2.577h.489V5.859h.466v-.4h-.466zM0 5.153h2.05v-.38h-.784V4.4H.784v.373H0zm.171.792c0 .392.349.656.854.652s.85-.26.854-.652-.353-.672-.854-.675-.854.271-.854.675zM.5 7.792h2.365V7.4H.986v-.617H.5zm.144-1.847c0-.2.151-.3.38-.3s.388.1.388.3-.155.287-.388.287-.383-.101-.38-.287zm1.219 3.134H.179v1.661h1.684zm-1.289 3.1h2.407v-.388H1.064v-.753H.575zm.078-1.819v-.893h.73v.893zm1.755.9h.481V8.807h-.481zm.38 2.094H.388v.38H2.3a3.792 3.792 0 0 1-.07.807H0v.388h1.328v.5H.318v.38H2.3v.846h.489v-1.228h-.972v-.5H3.16v-.388h-.443a5.286 5.286 0 0 0 .07-.916z" transform="rotate(25 -152.165 264.134)" style="fill:#fff"/>
                            <g data-name="사각형 462062" transform="rotate(25 -20.879 300.86)" style="fill:none;stroke-width:.5px;stroke:#fff">
                                <path id="pt4lcefo2r" style="stroke:none" d="M0 0h.436v1.958H0z"/>
                                <path d="M0 .25h.436M.25 0v1.958m.186-.25H0m.186.25V0" style="clip-path:url(#fsu4igmwrJ);fill:none"/>
                            </g>
                            <path data-name="사각형 462063" transform="rotate(25 -210.961 241.019)" style="fill:none" d="M0 0h11.646v.259H0z"/>
                            <path data-name="사각형 462064" transform="rotate(25 -201.676 243.078)" style="fill:none" d="M0 0h11.646v.259H0z"/>
                        </g>
                        <g data-name="그룹 630140">
                            <g data-name="패스 1507885" style="fill:none">
                                <path d="M0 0h7.143v13.594H0z" style="stroke:none" transform="rotate(25 -212.057 245.94)"/>
                                <path d="M.5.5v12.594h6.143V.5H.5M0 0h7.143v13.594H0V0z" style="fill:#fff;stroke:none" transform="rotate(25 -212.057 245.94)"/>
                            </g>
                        </g>
                    </g>
                </g>
            </g>
        </g>
        <g data-name="그룹 630144">
            <path data-name="패스 1507886" d="m0 10.958 15.424 3.151h50.708l14.5-3.151V0L67.049 2.547l-1.343 1.667-1.191-1.174-22.006.51-1.271 1.487-1.367-1.487-23.219-.31-1.228 1.178L14.23 3.04 0 .735z" transform="translate(148.603 270.432)" style="fill:none;stroke-width:.5px;stroke:#fff"/>
            <path data-name="패스 1507887" d="M0 0c.188.008 13.893 2.325 13.893 2.325L14.9 3.636v8.855" transform="translate(148.603 271.925)" style="fill:none;stroke-width:.5px;stroke:#fff"/>
            <path data-name="패스 1507888" d="M0 13.362V4.425l1.271-1.189 22.473.3 1.345 1.469v8.345h.7V5.006l1.331-1.469L48.5 3.1l1.1 1.057v9.194h.818V4.157l1.273-1.63L64.817 0" transform="translate(164.373 271.19)" style="fill:none;stroke-width:.5px;stroke:#fff"/>
            <path data-name="패스 1507889" d="M0 0v5.74l6.366 3.34" transform="translate(222.822 272.26)" style="opacity:.3;fill:none;stroke-width:.5px;stroke:#fff"/>
            <path data-name="패스 1507890" d="M0 1.551 7.747 0" transform="translate(215.034 277.951)" style="opacity:.3;fill:none;stroke-width:.5px;stroke:#fff"/>
            <path data-name="패스 1507891" d="M5.1 10.241 0 6.649V0" transform="translate(208.796 274.301)" style="opacity:.3;fill:none;stroke-width:.5px;stroke:#fff"/>
            <path data-name="패스 1507892" d="M18.56 0 0 .165" transform="translate(190.237 280.964)" style="opacity:.3;fill:none;stroke-width:.5px;stroke:#fff"/>
            <path data-name="패스 1507893" d="M24.714.135 5.263 0 0 3.477" transform="translate(164.207 280.993)" style="opacity:.3;fill:none;stroke-width:.5px;stroke:#fff"/>
            <path data-name="패스 1507894" d="M0 6.677V0" transform="translate(169.496 274.317)" style="opacity:.3;fill:none;stroke-width:.5px;stroke:#fff"/>
            <path data-name="패스 1507895" d="M5.665 0v5.887L0 8.609" transform="translate(148.709 272.738)" style="opacity:.3;fill:none;stroke-width:.5px;stroke:#fff"/>
            <path data-name="패스 1507896" d="m0 0 9.265 2.053" transform="translate(154.374 278.608)" style="opacity:.3;fill:none;stroke-width:.5px;stroke:#fff"/>
            <g data-name="패스 1507897" style="fill:#fff">
                <path d="M18.024 8.177.25 7.857V.254l17.774.32v7.602z" style="stroke:none" transform="translate(168.545 265.28)"/>
                <path d="M.5.51v7.1l17.274.313V.82L.5.51M0 0l18.274.33v8.102L0 8.102V0z" style="fill:#fff;stroke:none" transform="translate(168.545 265.28)"/>
            </g>
            <g data-name="패스 1507898" style="fill:#fff">
                <path d="M.25 8.291V.69L18.087.256v7.602L.25 8.29z" style="stroke:none" transform="translate(192.328 265.165)"/>
                <path d="M17.837.512.5.934v7.101l17.337-.421V.512m.5-.512v8.102L0 8.548V.446L18.337 0z" style="fill:#fff;stroke:none" transform="translate(192.328 265.165)"/>
            </g>
            <path data-name="패스 1507899" d="M0 2.648v7.709l14.063-2.74V0z" transform="translate(215.203 262.147)" style="stroke-width:.5px;stroke:#fff;fill:#fff"/>
            <path data-name="패스 1507900" d="M0 6.987V0l12.98 2.112v7.233z" transform="translate(150.243 263.713)" style="stroke-width:.5px;stroke:#fff;fill:#fff"/>
            <path data-name="패스 1507901" d="m0 6.254 18.209-5.086L39.152 0l19.756.6 19.333 4" transform="translate(150.822 257.498)" style="fill:none;stroke-width:.5px;stroke:#fff"/>
            <path data-name="패스 1507902" d="M0 13.645V0l15.5 1.085v10.894z" transform="translate(150.822 242.227)" style="opacity:.3;fill:none;stroke-width:.5px;stroke:#fff"/>
            <path data-name="패스 1507903" d="M0 0v9.85l15.714-.264V.266z" transform="translate(171.677 243.686)" style="opacity:.3;fill:none;stroke-width:.5px;stroke:#fff"/>
            <path data-name="패스 1507904" d="M0 0v8.91l17.775.161V0z" transform="translate(194.323 243.931)" style="opacity:.3;fill:none;stroke-width:.5px;stroke:#fff"/>
            <path data-name="패스 1507905" d="M0 0v11.562L9.9 14.1V0z" transform="translate(219.27 243.516)" style="opacity:.3;fill:none;stroke-width:.5px;stroke:#fff"/>
            <path data-name="패스 1507906" d="M0 1.66V8.1l13.527-3.42V0z" transform="translate(150.571 254.84)" style="stroke-width:.5px;stroke:#fff;fill:#fff"/>
            <path data-name="패스 1507907" d="m13.264 0 2.891.834L0 5.894" transform="translate(155.71 258.702)" style="opacity:.3;fill:none;stroke-width:.5px;stroke:#fff"/>
            <path data-name="패스 1507908" d="m0 2.007 17.952-1V0" transform="translate(171.864 257.522)" style="opacity:.3;fill:none;stroke-width:.5px;stroke:#fff"/>
            <path data-name="패스 1507909" d="m0 .358 17.436.628L19.862 0" transform="translate(189.816 258.167)" style="opacity:.3;fill:none;stroke-width:.5px;stroke:#fff"/>
            <path data-name="패스 1507910" d="m0 0 17.518 3.85" transform="translate(207.313 259.153)" style="opacity:.3;fill:none;stroke-width:.5px;stroke:#fff"/>
            <path data-name="패스 1507911" d="M0 3.815 7.664 0h12.788l6.039 3.815-3.448 1.609H3.679z" transform="translate(175.408 259.139)" style="fill:none;stroke-width:.5px;stroke:#fff"/>
            <path data-name="패스 1507912" d="M0 3.851V.348L8.967 0v3.378z" transform="translate(169.809 254.081)" style="stroke-width:.5px;stroke:#fff;fill:#fff"/>
            <path data-name="패스 1507913" d="M0 3.418V.161L8.006 0v3z" transform="translate(179.446 253.946)" style="stroke-width:.5px;stroke:#fff;fill:#fff"/>
            <path data-name="패스 1507914" d="M0 0v2.946l8.188.278V.189z" transform="translate(190.441 253.89)" style="stroke-width:.5px;stroke:#fff;fill:#fff"/>
            <path data-name="패스 1507915" d="M0 0v3.07l7.821.213V.258z" transform="translate(199.299 254.082)" style="stroke-width:.5px;stroke:#fff;fill:#fff"/>
            <path data-name="패스 1507916" d="M0 0v3.2l6.329 1.264V1.3z" transform="translate(211.348 254.675)" style="stroke-width:.5px;stroke:#fff;fill:#fff"/>
            <path data-name="패스 1507917" d="M0 0v3.209l6.25 1.378V1.466z" transform="translate(218.33 256.092)" style="stroke-width:.5px;stroke:#fff;fill:#fff"/>
            <path data-name="패스 1507918" d="M0 2.723V0" transform="translate(175.408 262.954)" style="fill:none;stroke-width:.5px;stroke:#fff"/>
            <path data-name="패스 1507919" d="M0 0v1.2" transform="translate(179.107 264.596)" style="fill:none;stroke-width:.5px;stroke:#fff"/>
            <path data-name="패스 1507920" d="M0 0v1.06" transform="translate(198.372 264.698)" style="fill:none;stroke-width:.5px;stroke:#fff"/>
            <path data-name="패스 1507921" d="M0 0v2.838" transform="translate(201.899 263.003)" style="fill:none;stroke-width:.5px;stroke:#fff"/>
        </g>
        <text data-name="Reusable Technology-based Commercial Launch Service" transform="translate(86.593 157.565)" style="font-size:10px;font-family:YDIYGO340;fill:#fff"><tspan x="0" y="0">Reusable Technology-based </tspan><tspan x="0" y="14">Commercial Launch Service</tspan></text>
        <path data-name="패스 1507922" d="m15598.521 4859.288-21.407-73.43" transform="rotate(-97 5744.3 9223.394)" style="stroke-dasharray:1 1;opacity:.579;fill:none;stroke:#fff"/>
        <circle data-name="타원 4881" cx="2" cy="2" r="2" transform="rotate(-57 74.187 -125.108)" style="fill:#fff"/>
        <circle data-name="타원 4882" cx="2" cy="2" r="2" transform="translate(209.796 -27.525)" style="fill:#fff"/>
        <circle data-name="타원 4883" cx="2" cy="2" r="2" transform="translate(277.796 27.475)" style="fill:#fff"/>
        <path data-name="패스 1507923" d="m15577.113 4920.079 41.471-134.22" transform="rotate(-97 5765.034 9241.738)" style="stroke-dasharray:1 1;opacity:.579;fill:none;stroke:#fff"/>
        <path data-name="패스 1507924" d="m15577.113 4944.981 142.258-159.123" transform="rotate(-97 5815.427 9286.322)" style="stroke-dasharray:1 1;opacity:.579;fill:none;stroke:#fff"/>
        <path data-name="패스 1507925" d="m282.214 227.426 35.1-95.653" transform="translate(-.521 -5.298)" style="stroke-linecap:round;stroke-width:1.5px;stroke-dasharray:0 4;stroke:#fff;fill:#fff"/>
        <path data-name="패스 1507926" d="M280.272 166.732a86.337 86.337 0 0 1-1.031-17.743c.533-8.942 5.1-17.217 5.1-17.217" transform="translate(-209.743 11.321)" style="stroke-linecap:round;stroke-width:1.5px;stroke-dasharray:0 4;fill:none;stroke:#fff"/>
        <circle data-name="타원 4884" cx="2" cy="2" r="2" transform="translate(314.796 124.475)" style="fill:#fff"/>
        <circle data-name="타원 4885" cx="2" cy="2" r="2" transform="translate(279.796 220.475)" style="fill:#fff"/>
    </g>
</svg>
