<svg xmlns="http://www.w3.org/2000/svg" width="127.4" height="48" viewBox="0 0 127.4 48">
    <g data-name="그룹 628862">
        <path data-name="사각형 461215" style="fill:none" d="M0 0h48v48H0z"/>
        <g data-name="그룹 628101">
            <path data-name="빼기 3" d="M16.193 22.512a19.387 19.387 0 0 1-3.69-.36 19.553 19.553 0 0 1-2.872-.788A18.343 18.343 0 0 1 7.038 20.2a16.731 16.731 0 0 1-2.261-1.48 14.749 14.749 0 0 1-1.882-1.747 12.607 12.607 0 0 1-1.453-1.956 10.635 10.635 0 0 1-.974-2.11A9.181 9.181 0 0 1 .023 10.7a8.537 8.537 0 0 1 .133-2.255 8.655 8.655 0 0 1 1.52-3.461 10.646 10.646 0 0 1 2.869-2.665A14.067 14.067 0 0 1 8.442.606 17.343 17.343 0 0 1 13.047 0a19.612 19.612 0 0 1 6.563 1.148A18.343 18.343 0 0 1 22.2 2.31a16.732 16.732 0 0 1 2.262 1.482 14.749 14.749 0 0 1 1.882 1.747A12.606 12.606 0 0 1 27.8 7.495a10.635 10.635 0 0 1 .974 2.11 9.182 9.182 0 0 1 .445 2.209 8.538 8.538 0 0 1-.133 2.253 8.653 8.653 0 0 1-1.521 3.46 10.647 10.647 0 0 1-2.869 2.665 14.069 14.069 0 0 1-3.9 1.713 17.345 17.345 0 0 1-4.603.607zM13.6.888a16.308 16.308 0 0 0-4.14.518 12.638 12.638 0 0 0-3.467 1.458A8.845 8.845 0 0 0 3.5 5.12a6.647 6.647 0 0 0-1.236 2.911 6.491 6.491 0 0 0-.026 1.843 7.2 7.2 0 0 0 .479 1.8 8.722 8.722 0 0 0 .939 1.705 10.826 10.826 0 0 0 1.352 1.571 13.165 13.165 0 0 0 1.72 1.392A15.376 15.376 0 0 0 8.77 17.51 17.77 17.77 0 0 0 13.639 19a18.423 18.423 0 0 0 2.871.229 16.309 16.309 0 0 0 4.14-.518 12.638 12.638 0 0 0 3.464-1.458 8.845 8.845 0 0 0 2.5-2.256 6.646 6.646 0 0 0 1.234-2.912 6.492 6.492 0 0 0 .026-1.843 7.2 7.2 0 0 0-.479-1.8 8.723 8.723 0 0 0-.939-1.705A10.824 10.824 0 0 0 25.1 5.168a13.164 13.164 0 0 0-1.72-1.392 15.375 15.375 0 0 0-2.042-1.168 17.77 17.77 0 0 0-4.868-1.491A18.429 18.429 0 0 0 13.6.888z" transform="translate(15.555 14.803)" style="fill:#fff"/>
            <path data-name="제외 1" d="M11.191 23.248a11.822 11.822 0 0 1-2.563-.28 11.357 11.357 0 0 1-2.42-.832 10.863 10.863 0 0 1-5.925-7.384A11.214 11.214 0 0 1 0 12.54a11.631 11.631 0 0 1 .158-2.23 12 12 0 0 1 .589-2.182 12.252 12.252 0 0 1 1-2.068 12.459 12.459 0 0 1 1.4-1.888 12.768 12.768 0 0 1 1.8-1.643A12.6 12.6 0 0 1 8.56.626 12.185 12.185 0 0 1 12.408 0a11.824 11.824 0 0 1 2.563.28 11.358 11.358 0 0 1 2.42.832A10.862 10.862 0 0 1 23.317 8.5a11.215 11.215 0 0 1 .279 2.212 11.63 11.63 0 0 1-.158 2.23 12 12 0 0 1-.584 2.182 12.253 12.253 0 0 1-1 2.068 12.46 12.46 0 0 1-1.4 1.888 12.767 12.767 0 0 1-1.8 1.643 12.6 12.6 0 0 1-3.614 1.9 12.187 12.187 0 0 1-3.849.625zM11.954.766a10.688 10.688 0 0 0-3.384.553 11.24 11.24 0 0 0-5.989 4.757 10.76 10.76 0 0 0-.881 1.8 10.462 10.462 0 0 0-.52 1.889 10.065 10.065 0 0 0-.15 1.935 9.631 9.631 0 0 0 .23 1.914 9.251 9.251 0 0 0 5.079 6.347 9.774 9.774 0 0 0 2.08.71 10.262 10.262 0 0 0 2.207.239 10.684 10.684 0 0 0 3.383-.553A11.242 11.242 0 0 0 20 15.6a10.76 10.76 0 0 0 .881-1.8 10.461 10.461 0 0 0 .521-1.893 10.064 10.064 0 0 0 .15-1.932 9.63 9.63 0 0 0-.23-1.914 9.252 9.252 0 0 0-5.079-6.347 9.771 9.771 0 0 0-2.08-.71 10.261 10.261 0 0 0-2.209-.238z" transform="translate(14.181 19.974)" style="fill:#fff"/>
            <path data-name="빼기 2" d="M13.236 31.3a18.654 18.654 0 0 1-3.8-.377A14.63 14.63 0 0 1 6.077 29.8a11.549 11.549 0 0 1-2.771-1.85A9.981 9.981 0 0 1 .26 22.722a11.121 11.121 0 0 1-.251-2.867 13.5 13.5 0 0 1 .466-2.979 16.78 16.78 0 0 1 1.14-3 20.43 20.43 0 0 1 1.771-2.937 23.881 23.881 0 0 1 2.358-2.786 26.706 26.706 0 0 1 2.9-2.542 28.752 28.752 0 0 1 3.4-2.211 27.993 27.993 0 0 1 6.28-2.558A23.573 23.573 0 0 1 24.444 0a18.657 18.657 0 0 1 3.8.377A14.631 14.631 0 0 1 31.6 1.5a11.549 11.549 0 0 1 2.771 1.85 9.98 9.98 0 0 1 3.048 5.23 11.121 11.121 0 0 1 .251 2.867 13.5 13.5 0 0 1-.466 2.979 16.781 16.781 0 0 1-1.14 3 20.43 20.43 0 0 1-1.771 2.937 23.88 23.88 0 0 1-2.358 2.784 26.706 26.706 0 0 1-2.9 2.542 28.753 28.753 0 0 1-3.4 2.211 27.993 27.993 0 0 1-6.275 2.558 23.575 23.575 0 0 1-6.124.842zm8.869-29.021a18.12 18.12 0 0 0-4.61.611 20.119 20.119 0 0 0-4.62 1.864 20.46 20.46 0 0 0-2.727 1.809 19.332 19.332 0 0 0-2.3 2.126 17.886 17.886 0 0 0-1.832 2.367 16.1 16.1 0 0 0-1.337 2.53 14.132 14.132 0 0 0-.809 2.618 12.286 12.286 0 0 0-.25 2.628 10.912 10.912 0 0 0 .342 2.562 10.318 10.318 0 0 0 2.927 4.936A11.3 11.3 0 0 0 9.5 28.159a13.284 13.284 0 0 0 3.112 1.116 15.687 15.687 0 0 0 3.461.377 18.122 18.122 0 0 0 4.61-.611 20.119 20.119 0 0 0 4.62-1.864 20.461 20.461 0 0 0 2.727-1.809 19.334 19.334 0 0 0 2.3-2.126 17.888 17.888 0 0 0 1.832-2.367 16.1 16.1 0 0 0 1.337-2.53 14.13 14.13 0 0 0 .809-2.618 12.285 12.285 0 0 0 .25-2.628 10.912 10.912 0 0 0-.342-2.562A10.318 10.318 0 0 0 31.29 5.6a11.3 11.3 0 0 0-2.611-1.829 13.284 13.284 0 0 0-3.112-1.116 15.683 15.683 0 0 0-3.461-.377z" transform="translate(2.34 4.813)" style="fill:#fff"/>
        </g>
    </g>
    <text transform="translate(54.4 27.399)" style="font-size:15px;font-family:Hanwha_R_OTF,Hanwha;fill:#fff"><tspan x="0" y="0">한화시스템</tspan></text>
</svg>
