<svg xmlns="http://www.w3.org/2000/svg" width="186.4" height="48" viewBox="0 0 186.4 48">
    <g data-name="그룹 628102">
        <g data-name="그룹 628862">
            <path data-name="사각형 461215" style="fill:none" d="M0 0h48v48H0z"/>
            <g data-name="그룹 628101">
                <path data-name="빼기 3" d="M15.759 21.909a18.868 18.868 0 0 1-3.591-.35 19.029 19.029 0 0 1-2.795-.767A17.851 17.851 0 0 1 6.85 19.66a16.283 16.283 0 0 1-2.2-1.442 14.354 14.354 0 0 1-1.832-1.7 12.269 12.269 0 0 1-1.414-1.9 10.35 10.35 0 0 1-.948-2.054 8.935 8.935 0 0 1-.433-2.15 8.308 8.308 0 0 1 .129-2.196 8.423 8.423 0 0 1 1.48-3.368 10.361 10.361 0 0 1 2.791-2.593A13.69 13.69 0 0 1 8.216.59 16.879 16.879 0 0 1 12.7 0a19.087 19.087 0 0 1 6.387 1.117 17.852 17.852 0 0 1 2.522 1.132 16.284 16.284 0 0 1 2.2 1.442 14.354 14.354 0 0 1 1.832 1.7 12.268 12.268 0 0 1 1.414 1.9A10.35 10.35 0 0 1 28 9.348a8.936 8.936 0 0 1 .433 2.15 8.309 8.309 0 0 1-.133 2.192 8.421 8.421 0 0 1-1.48 3.368 10.362 10.362 0 0 1-2.792 2.593 13.692 13.692 0 0 1-3.792 1.667 16.88 16.88 0 0 1-4.477.591zM13.233.864a15.871 15.871 0 0 0-4.029.5 12.3 12.3 0 0 0-3.372 1.423A8.608 8.608 0 0 0 3.4 4.982a6.469 6.469 0 0 0-1.2 2.834 6.317 6.317 0 0 0-.022 1.794 7 7 0 0 0 .467 1.748 8.488 8.488 0 0 0 .914 1.66 10.536 10.536 0 0 0 1.316 1.528A12.812 12.812 0 0 0 6.549 15.9a14.964 14.964 0 0 0 1.987 1.137 17.294 17.294 0 0 0 4.737 1.451 17.929 17.929 0 0 0 2.794.222 15.873 15.873 0 0 0 4.029-.5 12.3 12.3 0 0 0 3.371-1.419 8.608 8.608 0 0 0 2.428-2.2 6.468 6.468 0 0 0 1.2-2.833 6.317 6.317 0 0 0 .025-1.794 7 7 0 0 0-.467-1.748 8.488 8.488 0 0 0-.914-1.66 10.535 10.535 0 0 0-1.316-1.528 12.811 12.811 0 0 0-1.674-1.354 14.963 14.963 0 0 0-1.987-1.137 17.294 17.294 0 0 0-4.732-1.45 17.935 17.935 0 0 0-2.797-.223z" transform="translate(15.816 15.058)" style="fill:#fff"/>
                <path data-name="제외 1" d="M10.892 22.625a11.505 11.505 0 0 1-2.492-.272 11.052 11.052 0 0 1-2.355-.81 10.572 10.572 0 0 1-5.77-7.186A10.914 10.914 0 0 1 0 12.2a11.319 11.319 0 0 1 .154-2.17 11.674 11.674 0 0 1 .573-2.12A11.924 11.924 0 0 1 1.7 5.9a12.125 12.125 0 0 1 1.365-1.84 12.426 12.426 0 0 1 1.748-1.6A12.262 12.262 0 0 1 8.33.609 11.858 11.858 0 0 1 12.076 0a11.507 11.507 0 0 1 2.494.272 11.054 11.054 0 0 1 2.355.81 10.571 10.571 0 0 1 5.767 7.187 10.914 10.914 0 0 1 .271 2.153 11.318 11.318 0 0 1-.154 2.17 11.674 11.674 0 0 1-.569 2.123 11.925 11.925 0 0 1-.973 2.013 12.126 12.126 0 0 1-1.367 1.837 12.425 12.425 0 0 1-1.748 1.6 12.262 12.262 0 0 1-3.517 1.851 11.861 11.861 0 0 1-3.743.609zM11.633.746a10.4 10.4 0 0 0-3.293.538 10.939 10.939 0 0 0-5.828 4.629 10.472 10.472 0 0 0-.857 1.748A10.181 10.181 0 0 0 1.149 9.5 9.8 9.8 0 0 0 1 11.384a9.373 9.373 0 0 0 .224 1.863 9 9 0 0 0 4.943 6.177 9.512 9.512 0 0 0 2.024.691 9.987 9.987 0 0 0 2.148.232 10.4 10.4 0 0 0 3.293-.538 10.94 10.94 0 0 0 5.828-4.629 10.471 10.471 0 0 0 .857-1.748 10.181 10.181 0 0 0 .507-1.842 9.8 9.8 0 0 0 .146-1.88 9.372 9.372 0 0 0-.224-1.863 9 9 0 0 0-4.943-6.177 9.509 9.509 0 0 0-2.022-.692 9.986 9.986 0 0 0-2.148-.232z" transform="translate(14.479 20.09)" style="fill:#fff"/>
                <path data-name="빼기 2" d="M12.881 30.462a18.154 18.154 0 0 1-3.7-.367A14.238 14.238 0 0 1 5.914 29a11.24 11.24 0 0 1-2.7-1.8 9.713 9.713 0 0 1-2.961-5.087 10.823 10.823 0 0 1-.244-2.79 13.139 13.139 0 0 1 .454-2.9A16.331 16.331 0 0 1 1.572 13.5 19.883 19.883 0 0 1 3.3 10.643a23.242 23.242 0 0 1 2.29-2.709A25.991 25.991 0 0 1 8.415 5.46a27.982 27.982 0 0 1 3.311-2.152A27.243 27.243 0 0 1 17.833.819 22.941 22.941 0 0 1 23.788 0a18.157 18.157 0 0 1 3.7.367 14.238 14.238 0 0 1 3.27 1.091 11.24 11.24 0 0 1 2.7 1.8 9.713 9.713 0 0 1 2.959 5.092 10.824 10.824 0 0 1 .244 2.79 13.14 13.14 0 0 1-.454 2.9 16.332 16.332 0 0 1-1.11 2.922 19.882 19.882 0 0 1-1.723 2.858 23.241 23.241 0 0 1-2.295 2.709A25.991 25.991 0 0 1 28.255 25a27.984 27.984 0 0 1-3.311 2.152 27.243 27.243 0 0 1-6.107 2.489 22.944 22.944 0 0 1-5.956.821zm8.632-28.244a17.634 17.634 0 0 0-4.486.594 19.58 19.58 0 0 0-4.5 1.814 19.912 19.912 0 0 0-2.651 1.762 18.814 18.814 0 0 0-2.234 2.069 17.407 17.407 0 0 0-1.783 2.3 15.667 15.667 0 0 0-1.3 2.463 13.753 13.753 0 0 0-.787 2.547 11.957 11.957 0 0 0-.243 2.558 10.62 10.62 0 0 0 .332 2.493 10.041 10.041 0 0 0 2.844 4.8 11 11 0 0 0 2.54 1.782 12.928 12.928 0 0 0 3.028 1.086 15.267 15.267 0 0 0 3.368.367 17.636 17.636 0 0 0 4.487-.594 19.579 19.579 0 0 0 4.5-1.815 19.912 19.912 0 0 0 2.654-1.761 18.817 18.817 0 0 0 2.234-2.069 17.409 17.409 0 0 0 1.783-2.3 15.666 15.666 0 0 0 1.3-2.463 13.751 13.751 0 0 0 .787-2.547 11.956 11.956 0 0 0 .243-2.558 10.619 10.619 0 0 0-.332-2.493 10.041 10.041 0 0 0-2.844-4.8 11 11 0 0 0-2.541-1.78 12.928 12.928 0 0 0-3.028-1.086 15.263 15.263 0 0 0-3.368-.367z" transform="translate(2.955 5.335)" style="fill:#fff"/>
            </g>
        </g>
        <text transform="translate(54.4 27.4)" style="font-size:15px;font-family:Hanwha_R_OTF,Hanwha;fill:#fff"><tspan x="0" y="0">한화에어로스페이스</tspan></text>
    </g>
</svg>
