<svg xmlns="http://www.w3.org/2000/svg" width="96.001" height="28" viewBox="0 0 96.001 28">
    <g style="opacity:.6">
        <path data-name="사각형 462833" transform="translate(.001)" style="fill:none" d="M0 0h96v28H0z"/>
        <path d="M9.237 2.584a8.388 8.388 0 0 0-2.79.54A5.882 5.882 0 0 0 3.09 6.492a8.45 8.45 0 0 0-.529 2.793c-.054 1.224-.066 1.618-.06 4.741s.02 3.515.079 4.741a8.407 8.407 0 0 0 .54 2.79 5.878 5.878 0 0 0 3.37 3.357 8.443 8.443 0 0 0 2.792.529c1.224.054 1.618.066 4.74.06s3.515-.02 4.742-.078a8.414 8.414 0 0 0 2.789-.54 5.878 5.878 0 0 0 3.357-3.37 8.412 8.412 0 0 0 .529-2.791c.054-1.228.066-1.619.06-4.742s-.02-3.514-.078-4.74a8.4 8.4 0 0 0-.54-2.79 5.646 5.646 0 0 0-1.33-2.034 5.612 5.612 0 0 0-2.039-1.322 8.416 8.416 0 0 0-2.792-.529c-1.225-.055-1.62-.067-4.742-.067s-3.514.019-4.741.079m.134 20.79a6.382 6.382 0 0 1-2.136-.391 3.581 3.581 0 0 1-1.324-.858 3.542 3.542 0 0 1-.863-1.32 6.369 6.369 0 0 1-.4-2.135c-.057-1.212-.069-1.576-.076-4.646s.005-3.434.058-4.646a6.365 6.365 0 0 1 .391-2.135A3.807 3.807 0 0 1 7.2 5.054a6.368 6.368 0 0 1 2.134-.4c1.213-.058 1.576-.069 4.646-.076s3.434 0 4.648.058a6.36 6.36 0 0 1 2.135.391 3.807 3.807 0 0 1 2.187 2.179 6.336 6.336 0 0 1 .4 2.134c.058 1.213.071 1.576.076 4.646s-.005 3.434-.058 4.646a6.39 6.39 0 0 1-.391 2.137 3.809 3.809 0 0 1-2.177 2.187 6.37 6.37 0 0 1-2.134.4c-1.213.057-1.576.069-4.647.076s-3.433-.006-4.646-.058m9.373-15.517a1.38 1.38 0 1 0 1.377-1.382 1.38 1.38 0 0 0-1.377 1.382M8.095 14.015A5.905 5.905 0 1 0 13.988 8.1a5.9 5.9 0 0 0-5.894 5.917m2.071 0a3.834 3.834 0 1 1 3.841 3.826 3.834 3.834 0 0 1-3.841-3.826" transform="translate(-2.499 -1.502)" style="fill:#fff"/>
        <text transform="translate(30.001 17)" style="font-size:15px;font-family:YDIYGO330;fill:#fff"><tspan x="0" y="0">Instagram</tspan></text>
    </g>
</svg>
