<svg width="924" height="208" viewBox="0 0 924 208" fill="none" xmlns="http://www.w3.org/2000/svg">
<path d="M118.217 148.157V59.8406L194.698 103.999L118.217 148.157ZM288.698 33.1406C287.02 26.9028 283.733 21.2152 279.165 16.6476C274.598 12.08 268.91 8.79272 262.672 7.11492C239.713 0.962891 147.656 0.962891 147.656 0.962891C147.656 0.962891 55.5972 0.962891 32.6393 7.11492C26.4015 8.79288 20.7141 12.0803 16.1465 16.6478C11.5789 21.2154 8.29154 26.9029 6.61358 33.1406C0.461548 56.1003 0.461548 103.999 0.461548 103.999C0.461548 103.999 0.461548 151.899 6.61358 174.855C8.29137 181.093 11.5787 186.781 16.1463 191.348C20.7139 195.916 26.4014 199.203 32.6393 200.881C55.5972 207.035 147.656 207.035 147.656 207.035C147.656 207.035 239.713 207.035 262.672 200.881C268.91 199.203 274.598 195.916 279.166 191.349C283.733 186.781 287.021 181.093 288.698 174.855C294.85 151.898 294.85 103.997 294.85 103.997C294.85 103.997 294.85 56.1003 288.698 33.1406ZM460.397 168.222C462.009 164.016 462.818 157.139 462.818 147.594V107.385C462.818 98.1213 462.009 91.3514 460.397 87.0695C458.783 82.7894 455.941 80.6485 451.873 80.6485C447.942 80.6485 445.167 82.7894 443.555 87.0695C441.941 91.3514 441.134 98.1213 441.134 107.385V147.594C441.134 157.135 441.905 164.014 443.451 168.222C444.992 172.435 447.799 174.537 451.871 174.537C455.941 174.537 458.783 172.435 460.397 168.222ZM427.769 188.435C421.94 184.51 417.798 178.403 415.346 170.117C412.889 161.841 411.662 150.822 411.662 137.067V118.329C411.662 104.437 413.064 93.2779 415.872 84.8577C418.678 76.4375 423.061 70.2982 429.03 66.4379C434.995 62.5795 442.819 60.6476 452.504 60.6476C462.047 60.6476 469.695 62.614 475.451 66.5415C481.203 70.4708 485.414 76.6138 488.082 84.9631C490.746 93.3142 492.08 104.437 492.08 118.331V137.069C492.08 150.822 490.783 161.877 488.188 170.225C485.589 178.576 481.378 184.682 475.554 188.539C469.73 192.399 461.836 194.329 451.873 194.329C441.623 194.329 433.59 192.363 427.769 188.435ZM878.59 83.0584C877.117 84.8849 876.132 87.8673 875.644 92.0057C875.149 96.1458 874.909 102.427 874.909 110.847V120.111H896.168V110.845C896.168 102.567 895.886 96.2857 895.326 92.0038C894.765 87.7238 893.749 84.7086 892.277 82.953C890.801 81.1973 888.52 80.3195 885.432 80.3195C882.343 80.3195 880.064 81.2337 878.59 83.0566V83.0584ZM874.909 137.374V143.901C874.909 152.183 875.149 158.393 875.644 162.531C876.132 166.673 877.148 169.692 878.697 171.586C880.24 173.478 882.623 174.428 885.854 174.428C890.201 174.428 893.187 172.744 894.801 169.374C896.413 166.006 897.291 160.392 897.431 152.53L922.484 154.006C922.624 155.133 922.695 156.676 922.695 158.637C922.695 170.568 919.433 179.483 912.905 185.375C906.382 191.267 897.149 194.217 885.221 194.217C870.907 194.217 860.871 189.727 855.117 180.742C849.36 171.764 846.485 157.868 846.485 139.059V116.532C846.485 97.1635 849.467 83.0257 855.434 74.1093C861.397 65.1984 871.609 60.7421 886.065 60.7421C896.028 60.7421 903.678 62.5668 909.012 66.2162C914.342 69.8692 918.099 75.5524 920.274 83.2692C922.45 90.9879 923.538 101.656 923.538 115.269V137.374H874.909ZM357.025 134.957L323.971 15.5878H352.812L364.389 69.693C367.339 83.0311 369.514 94.3992 370.915 103.799H371.759C372.74 97.0636 374.917 85.7664 378.285 69.9038L390.286 15.5878H419.127L385.655 134.957V192.225H357.023V134.957M585.886 63.1738V192.225H563.148L560.621 176.435H559.991C553.813 188.364 544.55 194.327 532.2 194.327C523.64 194.327 517.325 191.523 513.254 185.907C509.183 180.297 507.149 171.522 507.149 159.591V63.1738H536.201V157.91C536.201 163.667 536.833 167.771 538.096 170.225C539.359 172.684 541.464 173.909 544.412 173.909C546.938 173.909 549.359 173.14 551.674 171.591C553.99 170.048 555.709 168.087 556.832 165.701V63.172L585.886 63.1738ZM734.907 63.1738V192.225H712.169L709.641 176.435H709.014C702.831 188.364 693.569 194.327 681.221 194.327C672.659 194.327 666.344 191.523 662.273 185.907C658.202 180.297 656.17 171.522 656.17 159.591V63.1738H685.221V157.91C685.221 163.667 685.852 167.771 687.113 170.225C688.378 172.684 690.485 173.909 693.431 173.909C695.959 173.909 698.38 173.14 700.693 171.591C703.011 170.048 704.728 168.087 705.853 165.701V63.172H734.905" fill="white"/>
<path d="M664.83 38.9618H635.987V192.225H607.568V38.96H578.727V15.5932H664.83V38.9618ZM804.429 136.442C804.429 145.845 804.038 153.215 803.268 158.546C802.497 163.883 801.198 167.671 799.373 169.914C797.548 172.16 795.089 173.283 792.007 173.283C789.687 173.303 787.402 172.722 785.373 171.598C783.338 170.475 781.691 168.792 780.426 166.546V93.2814C781.408 89.7737 783.092 86.8967 785.479 84.6504C787.865 82.4077 790.458 81.2827 793.266 81.2827C796.216 81.2827 798.493 82.4404 800.111 84.754C801.721 87.0712 802.846 90.966 803.479 96.4401C804.111 101.912 804.429 109.702 804.429 119.807V136.442ZM831.058 83.8016C829.301 75.6632 826.458 69.7692 822.531 66.118C818.6 62.4704 813.196 60.6457 806.321 60.6457C800.987 60.6457 796.005 62.1541 791.374 65.1711C786.807 68.1179 783.102 72.2222 780.637 77.0662H780.424L780.426 9.06494H752.429V192.221H776.426L779.374 180.013H780.005C782.249 184.362 785.617 187.801 790.109 190.327C794.599 192.853 799.584 194.117 805.058 194.117C814.879 194.117 822.109 189.589 826.742 180.538C831.373 171.484 833.69 157.348 833.69 138.118V117.697C833.69 103.243 832.81 91.9438 831.058 83.8016Z" fill="white"/>
</svg>
