<svg xmlns="http://www.w3.org/2000/svg" width="126" height="38" viewBox="0 0 126 38">
    <path data-name="사각형 461899" style="fill:none" d="M0 0h126v38H0z"/>
    <path data-name="패스 1505403" d="M21.5 23.021c-.471-4.289 4.022-7.729 10.037-7.682s11.275 3.56 11.746 7.843-4.019 7.726-10.036 7.679-11.28-3.556-11.747-7.84m22.9 1.33c-.543-5.317-6.6-9.672-13.52-9.731s-12.1 4.208-11.553 9.523 6.6 9.674 13.52 9.732 12.1-4.208 11.553-9.525" transform="translate(-5.093 -3.114)" style="fill:#fff"/>
    <path data-name="패스 1505404" d="M33.233 37.088a8.662 8.662 0 0 1-12.226.661 8.662 8.662 0 0 1 .128-12.241 8.669 8.669 0 0 1 12.226-.661 8.665 8.665 0 0 1-.127 12.241M20.6 25.4c-3.964 4.139-4.028 10.511-.145 14.23S30.7 43 34.662 38.857s4.032-10.512.147-14.23-10.246-3.373-14.209.773" transform="translate(-4.381 -6.222)" style="fill:#fff"/>
    <path data-name="패스 1505405" d="M13.607 2.836c7.094-2.656 14.107.032 15.666 6s-2.927 12.981-10.019 15.637-14.108-.029-15.666-6S6.515 5.5 13.607 2.836M7.02 5.121C-.339 10.946-2.212 19.39 2.835 23.975s15.1 3.581 22.465-2.244 9.232-14.266 4.184-18.853S14.377-.707 7.02 5.121" transform="translate(2.973 3.001)" style="fill:#fff"/>
    <g data-name="그룹 627971">
        <path data-name="패스 1505406" d="M82.977 16.985v13.191h-2.066v-6.957h-7.818v6.957h-2.067V16.985h2.067v4.425h7.818v-4.425z" transform="translate(-26.733 -4.103)" style="fill:#fff"/>
        <path data-name="패스 1505407" d="M97.828 32.528a3.172 3.172 0 0 1-2.29-.809 2.732 2.732 0 0 1-.861-2.084v-.706a2.752 2.752 0 0 1 .861-2.1 3.132 3.132 0 0 1 2.29-.829h5.389v-.052q0-1.584-1.739-1.584h-5.992v-1.755h5.958a3.933 3.933 0 0 1 2.841.947 3.414 3.414 0 0 1 1 2.652v3.5a2.631 2.631 0 0 1-.913 2.118 3.473 3.473 0 0 1-2.325.706zm3.771-4.77h-3.271q-1.585 0-1.584 1.344v.327q0 1.326 1.584 1.326h3.272q1.619 0 1.618-1.326V29.1q0-1.342-1.618-1.342z" transform="translate(-36.625 -6.455)" style="fill:#fff"/>
        <path data-name="패스 1505408" d="M120.341 22.609h2.032a4.061 4.061 0 0 1 3.031 1.119 4.251 4.251 0 0 1 1.1 3.117v5.683h-2.064v-5.58a2.771 2.771 0 0 0-.482-1.808 2.114 2.114 0 0 0-1.739-.741h-1.756a2.124 2.124 0 0 0-1.722.741 2.926 2.926 0 0 0-.448 1.808v5.58h-2.066v-5.683a4.249 4.249 0 0 1 1.1-3.117 4.036 4.036 0 0 1 3.014-1.119z" transform="translate(-45.637 -6.455)" style="fill:#fff"/>
        <path data-name="패스 1505409" d="M144.719 31.2a3.422 3.422 0 0 1-2.738 1.326h-1.274a3.571 3.571 0 0 1-2.738-1.085 4.014 4.014 0 0 1-.969-2.874v-5.958h2.05v5.975a2.271 2.271 0 0 0 .465 1.584 1.824 1.824 0 0 0 1.4.568h.9a1.844 1.844 0 0 0 1.412-.568 2.218 2.218 0 0 0 .482-1.584v-5.975h2.032v5.975a2.271 2.271 0 0 0 .465 1.584 1.824 1.824 0 0 0 1.4.568h.9a1.845 1.845 0 0 0 1.412-.568 2.218 2.218 0 0 0 .482-1.584v-5.975h2.049v5.958a3.93 3.93 0 0 1-1 2.876 3.6 3.6 0 0 1-2.756 1.085h-1.257a3.39 3.39 0 0 1-2.717-1.328z" transform="translate(-54.327 -6.455)" style="fill:#fff"/>
        <path data-name="패스 1505410" d="M170.9 22.023a2.125 2.125 0 0 0-1.722.741 2.926 2.926 0 0 0-.447 1.808v5.58h-2.066V16.926h2.066v3.909a3.586 3.586 0 0 1 2.049-.6h2.032a4.062 4.062 0 0 1 3.031 1.119 4.253 4.253 0 0 1 1.1 3.117v5.683h-2.066v-5.58a2.771 2.771 0 0 0-.482-1.808 2.114 2.114 0 0 0-1.739-.741z" transform="translate(-66.732 -4.078)" style="fill:#fff"/>
        <path data-name="패스 1505411" d="M190.417 32.528a3.169 3.169 0 0 1-2.29-.809 2.73 2.73 0 0 1-.861-2.084v-.706a2.75 2.75 0 0 1 .861-2.1 3.13 3.13 0 0 1 2.29-.827h5.39v-.052q0-1.584-1.739-1.584h-5.993v-1.757h5.958a3.933 3.933 0 0 1 2.841.947 3.414 3.414 0 0 1 1 2.652v3.5a2.631 2.631 0 0 1-.913 2.118 3.473 3.473 0 0 1-2.325.706zm3.772-4.77h-3.272q-1.586 0-1.585 1.344v.327q0 1.326 1.585 1.326h3.272q1.618 0 1.618-1.326V29.1q0-1.342-1.619-1.342z" transform="translate(-75.349 -6.455)" style="fill:#fff"/>
    </g>
</svg>
