<svg id="logo_spacehub_GNB" xmlns="http://www.w3.org/2000/svg" width="180" height="30" viewBox="0 0 180 30">
  <rect id="사각형_460902" data-name="사각형 460902" width="180" height="30" transform="translate(0)" fill="none"/>
  <path id="패스_1505398" data-name="패스 1505398" d="M20.089-12.631v3.074H7.882c-2.246,0-3.369.857-3.369,2.542v1.537c0,1.685,1.094,2.512,3.34,2.512h6.562a7.379,7.379,0,0,1,4.966,1.478A5.06,5.06,0,0,1,21.153,2.5V4.6a4.959,4.959,0,0,1-1.773,3.961,7.41,7.41,0,0,1-5,1.448H1.793V6.936H14.207c2.246,0,3.369-.828,3.369-2.512V2.62c0-1.685-1.123-2.542-3.369-2.542H7.645A7.273,7.273,0,0,1,2.68-1.37,4.935,4.935,0,0,1,.936-5.33V-7.163a5.035,5.035,0,0,1,1.744-3.99,7.274,7.274,0,0,1,4.966-1.478ZM27.833.138v6.8h7.626a3.346,3.346,0,0,0,2.778-1.153,4.825,4.825,0,0,0,.709-2.867V.138a4.927,4.927,0,0,0-.709-2.9,3.364,3.364,0,0,0-2.778-1.182H31.291a3.265,3.265,0,0,0-2.749,1.182A4.927,4.927,0,0,0,27.833.138ZM24.286-.069a6.831,6.831,0,0,1,1.8-5.113,6.863,6.863,0,0,1,4.966-1.833h4.64A6.963,6.963,0,0,1,40.66-5.183,6.844,6.844,0,0,1,42.493-.069V3.093A6.772,6.772,0,0,1,40.66,8.177a6.694,6.694,0,0,1-4.936,1.833H27.833v5.852H24.286ZM57.271,1.822H51.655c-1.833,0-2.719.768-2.719,2.305v.562c0,1.537.887,2.276,2.719,2.276h5.616c1.833,0,2.778-.739,2.778-2.276V4.128C60.049,2.591,59.1,1.822,57.271,1.822ZM50.8,10.01A5.329,5.329,0,0,1,46.867,8.62a4.578,4.578,0,0,1-1.478-3.576V3.832A4.684,4.684,0,0,1,46.867.226,5.344,5.344,0,0,1,50.8-1.192h9.251v-.089c0-1.8-1-2.719-2.985-2.719H46.778V-7.015H57A6.836,6.836,0,0,1,61.882-5.39,5.97,5.97,0,0,1,63.6-.838v6A4.548,4.548,0,0,1,62.03,8.8a5.858,5.858,0,0,1-3.99,1.212Zm34.2,0H73.675a6.626,6.626,0,0,1-4.966-1.833,6.76,6.76,0,0,1-1.8-5.084V-.04a6.831,6.831,0,0,1,1.8-5.113,7,7,0,0,1,4.966-1.862H85v3.074H73.97a3.347,3.347,0,0,0-2.808,1.182,4.94,4.94,0,0,0-.68,2.9V2.916a4.837,4.837,0,0,0,.68,2.867A3.331,3.331,0,0,0,73.97,6.936H85Zm9.458-8.867H100.1c1.833,0,2.749-.739,2.749-2.276v-.562Q102.847-4,100.1-4H94.453c-1.833,0-2.719.768-2.719,2.305v.562C91.734.4,92.621,1.143,94.453,1.143ZM106.394-1.99V-.808a4.6,4.6,0,0,1-1.507,3.576,5.375,5.375,0,0,1-3.931,1.389H91.734v.118c0,1.8.975,2.69,2.985,2.69H105.6V10.01H94.749a6.827,6.827,0,0,1-4.877-1.6,5.843,5.843,0,0,1-1.685-4.522V-1.99A4.684,4.684,0,0,1,89.665-5.6a5.369,5.369,0,0,1,3.961-1.419h7.3A5.463,5.463,0,0,1,104.887-5.6,4.707,4.707,0,0,1,106.394-1.99Zm32.246-10.64V10.01h-3.547V-1.931H121.675V10.01h-3.547v-22.64h3.547v7.6h13.419v-7.6Zm10.4,22.64a6.823,6.823,0,0,1-5.172-1.921A7.067,7.067,0,0,1,141.98,2.8V-7.015h3.547V2.591a4.895,4.895,0,0,0,.768,3.1,3.671,3.671,0,0,0,2.956,1.241h3.015a3.692,3.692,0,0,0,2.985-1.241,4.872,4.872,0,0,0,.828-3.1V-7.015h3.547V2.8a7.185,7.185,0,0,1-1.892,5.291,6.937,6.937,0,0,1-5.2,1.921Zm17.232-7.094a4.825,4.825,0,0,0,.709,2.867,3.249,3.249,0,0,0,2.749,1.153H173.9a3.346,3.346,0,0,0,2.778-1.153,4.825,4.825,0,0,0,.709-2.867V.138a4.927,4.927,0,0,0-.709-2.9A3.364,3.364,0,0,0,173.9-3.941h-7.626Zm-3.547.177V-12.69h3.547v5.675h7.892A7.087,7.087,0,0,1,179.1-5.153,6.844,6.844,0,0,1,180.936-.04V3.093A6.773,6.773,0,0,1,179.1,8.177a6.718,6.718,0,0,1-4.966,1.833H169.5a6.626,6.626,0,0,1-4.966-1.833A6.76,6.76,0,0,1,162.729,3.093Z" transform="translate(-0.936 13.69)" fill="#fff"/>
</svg>
